<?xml version="1.0" encoding="UTF-8"?><svg id="Layer_2" xmlns="http://www.w3.org/2000/svg" viewBox="0 0 12.34 14.45"><defs><style>.cls-1{fill:#333;}</style></defs><g id="_アイコン"><path class="cls-1" d="M11.15,8.14l-3.51-1.16c0-.26.08-.53.09-.79.08-1.7-.59-3.2.27-4.87.84-1.64,2.69-1.79,3.72-.25,1.32,1.98.25,5.06-.56,7.06Z"/><path class="cls-1" d="M3.78,3.8c.92.9,1.07,2.39.98,3.6-.03.4-.14.81-.17,1.21-.03.54.03,1.08.11,1.61l-3.51,1.13c-.13-.27-.24-.55-.35-.83-.72-1.86-1.47-4.91.03-6.55.79-.86,2.04-1.02,2.91-.17Z"/><path class="cls-1" d="M10.69,9.1c-.31.9-.83,1.99-1.9,2.09-1.71.17-1.84-1.96-1.4-3.13l3.3,1.04Z"/><path class="cls-1" d="M2.4,13.8c-.38-.42-.57-.92-.78-1.44l3.3-1.09c.27.91.44,2.22-.4,2.89-.7.56-1.59.25-2.13-.36Z"/></g></svg>