<?xml version="1.0" encoding="UTF-8"?><svg id="Layer_2" xmlns="http://www.w3.org/2000/svg" viewBox="0 0 22.98 22.98"><defs><style>.cls-1{fill:#fff;stroke:#676767;stroke-miterlimit:10;stroke-width:.25px;}.cls-2{fill:#333;}</style></defs><g id="_アイコン"><circle class="cls-1" cx="11.49" cy="11.49" r="11.36"/><polygon class="cls-2" points="14.14 8.22 13.24 8.98 13.18 8.96 13.13 8.92 13.09 8.87 13.05 8.85 12.99 8.83 12.95 8.83 12.91 8.77 12.83 8.75 12.74 8.73 12.7 8.73 12.58 8.67 12.48 8.61 12.4 8.59 12.31 8.57 12.21 8.53 12.13 8.51 12 8.51 11.84 8.49 11.74 8.51 11.62 8.51 11.59 8.51 11.51 8.51 11.45 8.49 11.43 8.46 11.33 8.44 11.14 8.44 11 8.44 10.86 8.44 10.73 8.46 10.61 8.48 10.42 8.51 10.34 8.53 10.28 8.55 10.22 8.59 10.08 8.63 10.05 8.67 10.03 8.69 9.97 8.71 9.91 8.73 9.87 8.77 9.85 8.79 9.83 8.83 9.75 8.88 9.62 8.98 9.58 9 9.56 9.02 9.52 9.06 9.5 9.1 9.46 9.14 9.42 9.16 9.3 9.26 9.27 9.29 9.25 9.33 9.21 9.37 9.21 9.43 9.19 9.45 9.13 9.51 9.07 9.61 9.03 9.63 8.97 9.65 8.93 9.7 8.91 9.74 8.86 9.78 8.84 9.8 8.82 9.86 8.8 9.9 8.72 9.98 8.7 10.02 8.66 10.05 8.64 10.13 8.6 10.21 8.54 10.29 8.54 10.39 8.49 10.46 8.43 10.56 8.41 10.6 8.37 10.68 8.33 10.72 8.31 10.8 8.29 10.87 8.23 10.95 8.21 11.17 8.19 11.22 8.19 11.36 8.13 11.44 8.13 11.56 8.13 11.65 8.11 11.79 8.13 12.16 8.13 12.24 8.17 12.3 8.21 12.38 8.21 12.47 8.23 12.73 8.27 12.77 8.31 12.82 8.33 12.88 8.33 12.94 8.37 12.98 8.39 13 8.43 13.06 8.43 13.14 8.47 13.17 8.49 13.19 8.56 13.25 8.56 13.37 8.54 13.41 8.6 13.47 8.66 13.56 8.7 13.62 8.78 13.66 8.78 13.7 8.86 13.8 8.27 14.64 8.25 14.6 8.19 14.52 8.1 14.52 8 14.4 7.96 14.38 7.94 14.34 7.94 14.33 7.94 14.29 7.9 14.25 7.84 14.21 7.84 14.15 7.82 14.11 7.74 14.05 7.76 14.01 7.74 13.97 7.67 13.94 7.65 13.88 7.63 13.88 7.57 13.82 7.53 13.74 7.53 13.72 7.47 13.68 7.47 13.64 7.45 13.58 7.37 13.53 7.35 13.51 7.35 13.47 7.35 13.43 7.33 13.33 7.28 13.27 7.26 13.21 7.26 13.1 7.24 13.06 7.2 12.98 7.18 12.84 7.16 12.78 7.1 12.71 7.1 12.61 7.08 12.57 7.06 12.51 7.08 12.47 7.06 12.38 7 12.34 7 12.28 7 12.2 6.98 12.14 6.96 11.99 6.98 11.91 7 11.87 7 11.79 6.98 11.67 6.98 11.6 7 11.5 7.02 11.46 7.02 11.22 7.02 11.15 7.02 11.11 7.08 11.05 7.12 10.95 7.1 10.91 7.1 10.89 7.12 10.85 7.14 10.76 7.16 10.72 7.2 10.66 7.2 10.62 7.2 10.56 7.22 10.54 7.26 10.48 7.32 10.39 7.32 10.33 7.37 10.27 7.39 10.21 7.37 10.11 7.37 10.09 7.41 10.05 7.49 9.96 7.51 9.92 7.53 9.86 7.55 9.82 7.65 9.65 7.71 9.61 7.72 9.55 7.76 9.51 7.78 9.45 7.86 9.39 7.92 9.29 8 9.18 8 9.14 8.04 9.1 8.11 9 8.13 8.94 8.17 8.87 8.23 8.77 8.35 8.67 8.41 8.61 8.47 8.53 8.5 8.49 8.54 8.46 8.6 8.42 8.72 8.24 8.8 8.18 8.93 8.07 9.11 7.89 9.19 7.89 9.28 7.83 9.36 7.81 9.46 7.77 9.46 7.71 9.6 7.68 9.67 7.66 9.71 7.58 9.89 7.58 10.03 7.54 10.08 7.52 10.1 7.48 10.3 7.46 10.42 7.48 10.47 7.44 10.49 7.38 10.55 7.38 10.67 7.38 10.84 7.38 10.92 7.38 10.96 7.34 11.04 7.33 11.04 7.31 11.1 7.29 11.39 7.29 11.41 7.33 11.45 7.34 11.53 7.33 11.59 7.36 11.66 7.38 11.9 7.38 11.92 7.4 12.03 7.46 12.07 7.48 12.23 7.5 12.46 7.48 12.48 7.5 12.52 7.52 12.58 7.54 12.64 7.52 12.7 7.54 12.74 7.58 12.85 7.58 12.89 7.6 12.93 7.66 12.95 7.68 13.03 7.68 13.15 7.68 13.18 7.71 13.22 7.73 13.34 7.75 13.36 7.75 13.44 7.77 13.48 7.77 13.52 7.83 13.55 7.87 13.61 7.85 13.65 7.87 13.69 7.91 13.75 7.95 13.79 7.95 13.85 7.97 13.89 8.01 13.93 8.05 13.98 8.12 14.04 8.16 14.08 8.18 14.14 8.22"/><polygon class="cls-2" points="13.07 9.12 11.96 9.88 11.94 9.88 11.88 9.84 11.82 9.82 11.74 9.8 11.68 9.78 11.61 9.78 11.55 9.78 11.51 9.76 11.45 9.76 11.37 9.74 11.29 9.72 11.25 9.74 11.18 9.74 11.1 9.72 10.96 9.72 10.9 9.72 10.84 9.76 10.81 9.78 10.77 9.82 10.73 9.82 10.65 9.84 10.61 9.92 10.55 9.94 10.49 9.92 10.45 9.94 10.44 9.98 10.4 10 10.38 10.02 10.36 10.04 10.3 10.04 10.28 10.05 10.26 10.11 10.2 10.13 10.18 10.13 10.14 10.17 10.12 10.21 10.1 10.23 10.06 10.25 10.03 10.31 10.01 10.33 9.97 10.35 9.97 10.37 9.95 10.41 9.93 10.43 9.91 10.44 9.89 10.5 9.87 10.52 9.79 10.6 9.77 10.64 9.75 10.7 9.71 10.76 9.71 10.8 9.69 10.83 9.67 10.87 9.66 10.93 9.66 10.95 9.62 11.03 9.58 11.07 9.58 11.15 9.58 11.21 9.6 11.36 9.6 11.4 9.52 11.46 9.54 11.6 9.54 11.71 9.54 11.75 9.6 11.81 9.6 11.87 9.58 11.97 9.6 12.02 9.67 12.18 9.69 12.24 9.73 12.26 9.71 12.34 9.03 13.47 8.99 13.47 8.95 13.43 8.91 13.39 8.89 13.35 8.86 13.31 8.84 13.25 8.8 13.21 8.78 13.19 8.76 13.12 8.74 13.08 8.7 13.04 8.7 12.96 8.66 12.92 8.6 12.8 8.58 12.77 8.58 12.71 8.56 12.67 8.54 12.67 8.54 12.65 8.52 12.59 8.49 12.49 8.49 12.45 8.5 12.41 8.49 12.39 8.47 12.32 8.45 12.28 8.43 12.24 8.45 12.2 8.45 12.12 8.45 12.08 8.39 11.99 8.41 11.97 8.43 11.93 8.41 11.87 8.39 11.79 8.39 11.75 8.39 11.71 8.39 11.67 8.39 11.61 8.39 11.58 8.41 11.56 8.41 11.52 8.39 11.36 8.39 11.32 8.43 11.26 8.47 11.22 8.47 11.13 8.47 11.09 8.47 11.05 8.49 10.99 8.5 10.93 8.54 10.89 8.54 10.87 8.56 10.83 8.56 10.78 8.56 10.74 8.58 10.7 8.6 10.62 8.62 10.62 8.64 10.58 8.66 10.54 8.66 10.48 8.68 10.44 8.7 10.43 8.74 10.41 8.76 10.37 8.78 10.33 8.78 10.29 8.8 10.25 8.82 10.23 8.86 10.17 8.88 10.15 8.91 10.11 8.95 10.07 8.93 10.04 8.97 9.96 9.01 9.92 9.03 9.9 9.07 9.86 9.09 9.84 9.09 9.8 9.11 9.72 9.15 9.7 9.19 9.68 9.21 9.65 9.23 9.65 9.23 9.59 9.27 9.55 9.3 9.53 9.38 9.47 9.4 9.45 9.42 9.39 9.44 9.37 9.46 9.33 9.52 9.31 9.56 9.27 9.62 9.24 9.66 9.22 9.67 9.18 9.69 9.14 9.75 9.06 9.83 9.04 9.89 9 9.95 8.98 10.01 8.94 10.06 8.92 10.24 8.92 10.28 8.9 10.36 8.85 10.44 8.81 10.53 8.79 10.63 8.75 10.67 8.73 10.81 8.73 10.88 8.73 11 8.73 11.02 8.71 11.04 8.69 11.18 8.69 11.33 8.69 11.43 8.69 11.61 8.69 11.8 8.69 12.03 8.71 12.15 8.71 12.31 8.73 12.37 8.77 12.4 8.81 12.46 8.83 12.52 8.83 12.6 8.88 12.66 8.9 12.74 8.9 12.79 8.92 12.85 8.94 12.89 8.98 12.97 9.02 12.97 9.04 12.99 9.08 13.01 9.1 13.07 9.12"/><polygon class="cls-2" points="11.7 10 10.81 10.62 10.71 10.68 10.65 10.72 10.57 10.8 9.83 12.1 9.81 12.08 9.75 11.95 9.73 11.89 9.69 11.79 9.69 11.71 9.71 11.58 9.69 11.52 9.71 11.44 9.73 11.36 9.71 11.3 9.69 11.24 9.75 11.11 9.75 11.07 9.79 11.05 9.81 10.91 9.85 10.85 9.89 10.78 9.91 10.7 9.93 10.64 9.99 10.58 10.03 10.52 10.1 10.44 10.16 10.39 10.26 10.29 10.32 10.21 10.38 10.19 10.45 10.17 10.49 10.15 10.51 10.11 10.55 10.07 10.59 10.07 10.63 10.05 10.69 10.02 10.71 9.98 10.75 9.98 10.83 9.96 10.92 9.92 10.98 9.88 11.02 9.88 11.16 9.88 11.29 9.88 11.37 9.86 11.41 9.88 11.51 9.92 11.55 9.94 11.62 9.94 11.68 9.98 11.7 10"/><path class="cls-2" d="M6.77,4.83l.29-.19.37-.21.1-.04.08-.06.1-.02.06-.08.14-.04.12-.1.12-.06.18-.1.12-.04.02-.02.18-.02.08-.04.08-.06.14-.02.18-.1.18-.04.12-.04h.18l.14-.04.16-.06.1-.04h.43l.16-.02.08-.02h.27l.37-.04.53.02.1.06h.39l.27.02.1.04.16.04.14.06.12.06.21-.02.16.06.12.06.19.02.16.04.14.02.1.04.08.06.1.04.08.04.16.04h.14l.1.06.06.06.06.02.18.06h.1l.1.06.16.08.1.06.1.06.06.1.08.04.1.06.06.04.12.04.06.06.1.06.1.04.1.08h.08l.1.14.18.14.25.25.19.16.08.04.18.16.23.25.14.23.06.06.04.06.04.12.1.1.08.1.14.2v.12l.06.1.08.04.08.12.04.08.1.14.06.12.04.08.08.08.02.1.08.06v.1s.1.08.1.08l.06.08.02.1.14.27.04.12.03.14.05.04.04.14.12.23.02.18.06.21.06.18.02.18.04.12.06.08.02.31.04.08.02.25.04.18-.02.12-.04.35.06.35-.04.31v.23l-.02.16-.04.1.04.16-.04.18-.06.21-.06.47-.04.23-.1.37-.06.16-.08.19v.1l-.08.02-.02.06v.06l-.08.19-.16.31-.18.29-.08.1-.06.1-.14.18-.18.23-.1.16-.11.12-.05.14-.11.1-.06.14-.31.33-.25.25-.25.27-.31.29-.49.35-.08.12-.12.08-.12.04-.04.06-.08.04-.1.1-.06.06-.12.02-.06.08h-.12l-.08.08-.19.04-.16.12-.1.02-.18.06-.14.12-.12.04-.06.02-.16.06-.18.04-.08.02-.12.06-.08.02-.06.04h-.08l-.1.06h-.16l-.12.04-.1.06-.23.02h-.08l-.06.08-.29-.02-.16.04h-.19l-.25.02-.12.02-.08.06-.58-.04h-.47l-.08-.02-.19-.04h-.18l-.14-.04h-.31l-.25-.08-.12-.04-.1-.02-.14-.02-.27-.08h-.18l-.23-.02-.12-.08-.1-.02-.08-.02-.1-.02-.06-.06h-.29l-.16-.1-.08-.04-.06-.04-.12-.06-.06-.06h-.08l-.1-.06-.1-.1-.1-.12-.12-.08-.08-.04-.08-.06-.14-.12-.1-.08-.08-.12-.12-.06-.06-.08-.12-.06-.25-.21-.12-.12-.14-.16-.08-.04-.08-.04-.21-.21-.06-.1-.02-.08-.08-.1-.06-.04-.1-.06-.06-.16-.12-.2-.08-.12-.04-.1-.02-.14-.06-.08-.06-.1-.06-.12-.08-.1v-.1l-.08-.06-.02-.06-.06-.1-.06-.12.02-.08-.08-.12-.04-.14-.08-.11-.06-.13-.04-.1-.04-.16-.06-.06-.06-.18-.04-.18-.04-.12-.04-.12-.04-.08v-.14l-.04-.08-.06-.19v-.12l-.06-.18-.04-.21v-.29l-.04-.04v-.08l-.06-.18v-.29l-.04-.08v-.08l-.02-.21-.02-.29v-.58l.02-.49.04-.1-.02-.1.04-.06v-.18l.04-.18.04-.14.02-.06.02-.14.02-.14.06-.1.02-.1.02-.06.04-.1.08-.16.1-.14.04-.08v-.12l.06-.06.06-.06.04-.08.1-.14.08-.08.02-.14.06-.23.08-.19.08-.16.1-.18.06-.06.06-.14.1-.12.06-.12.1-.16.12-.08.04-.08.06-.12.16-.12.02-.1.06-.06.1-.14.14-.14.06-.08.12-.1.12-.12.14-.06.06-.08.06.02.04-.1.04-.02.12-.1.1-.08.12-.02.02-.06.14-.06.08-.08.04-.06.06-.02.06-.06ZM8.31,4.11l-.08.04h-.06l-.08.06-.08.06-.08.08-.21.04-.1.1-.16.08-.12.08-.18.12-.27.14-.06.06-.1.04-.12.12-.12.12-.06.08-.14.04h-.06l-.12.14-.16.1-.12.06-.02.06-.04.12-.1.02-.14.1-.23.23-.06.1-.1.04-.04.06-.08.16-.04.08-.04.12-.08.06-.06.1-.06.04-.04.08-.06.08-.06.06.02.08-.08.12-.06.1-.19.27-.04.16-.08.16-.02.14-.06.14-.14.1-.06.1-.02.06-.02.1-.06.1-.06.08v.1l-.1.12-.02.16-.06.08-.04.12-.06.12-.02.06-.04.1v.18l-.06.08-.02.21.02.14-.02.14-.04.06v.16l-.02.08-.04.12-.02.39v.29l.04.55.04.08.04.06-.02.14.04.12.04.27.02.06v.08l.02.12.02.16-.02.18v.14l.06.08.04.16.02.12.04.06.02.14.04.19.06.1.04.06.02.12.06.14.06.14v.06l.06.14.06.16.04.1.06.14.08.04-.02.12.02.08.08.08.06.12.04.08.02.14.06.06.04.1.14.16.04.14.06.06.04.12.06.04.08.12.04.19.21.31.31.35.23.18.19.16.21.16v.12l.12.04.14.1.08.08.08.02.02.06.1.06.14.08.1.14.21.18.14.1.18.14.41.18.12.04.23.08.16.02.14.08.37.04.12.02.16.04.23.06.14.04.14.04.37.02.1.04.43.04.47.02.41.02.9-.06.37-.1.12-.02.33-.08h.18l.14-.02.14-.06.18-.02.14-.08.23-.06.08-.08h.16l.04-.02.1-.05.19-.07.14-.1.16-.08.14-.04.16-.06.08-.08.06-.06.1-.02.06-.04.14-.06.1-.12h.1l.25-.16.04-.04.14-.1.14-.06.06-.06.08-.04.06-.08.23-.21.04-.06.1-.08.1-.08.06-.1.06-.04.04-.06.06-.1h.06l.04-.04.06-.12.16-.19.19-.16.12-.16.14-.19.06-.1.06-.14.1-.1.08-.06.04-.14.12-.18.06-.08.02-.14.08-.1.08-.1.06-.1.06-.1.14-.16-.04-.06.08-.08.02-.1.08-.1.04-.12.02-.1.06-.12.02-.33.06-.06.06-.04-.02-.1.02-.12.04-.04v-.21l.06-.14.02-.08.02-.02.02-.16v-.16l-.02-.16.04-.16.02-.12.02-.18v-.29l-.04-.19v-.41l-.02-.23v-.21l.02-.1.02-.1v-.12l-.08-.08-.02-.1.02-.27v-.16l-.04-.1-.06-.1-.02-.12-.06-.19-.06-.1-.04-.1v-.16l-.12-.1-.1-.12-.02-.1-.02-.21-.08-.1v-.1l-.08-.14-.06-.06v-.12l-.08-.04-.04-.1-.1-.14-.06-.08v-.1l-.1-.18-.19-.16-.14-.23-.08-.16-.04-.08-.21-.31-.1-.06-.06-.14-.08-.1-.06-.08-.02-.08-.04-.06-.04-.06-.04-.06h-.1l-.14-.14-.19-.16-.12-.1-.1-.1-.18-.21-.12-.04-.08-.08-.1-.04-.06-.1h-.16l-.08-.1h-.14l-.08-.06-.06-.08h-.1l-.06-.04-.06-.08-.04-.04-.06-.02-.06-.06-.08-.06-.12-.04-.18-.1-.23-.06-.25-.08-.19-.1-.16-.04-.08-.08-.19-.02-.16-.08-.23-.02-.18-.04-.16-.04-.21-.02-.04-.06-.23-.04h-.04l-.14-.04-.14-.04-.21-.02-.19-.04-.08-.02h-.18l-.2.02-.1.02h-.6l-.16.02-.35.02-.27.02-.08.06-.14.02h-.23l-.14.06-.04.06-.08.06h-.21l-.1.06-.1.02-.1.04-.1.02h-.1l-.02.02-.12.06-.08.06Z"/><path class="cls-2" d="M11.31,10.72l.12-.02.14.02.06.04.04.02.1.04.04.02.06.06.06.04.04.02.04.08.04.06.04.06.04.06.02.06.02.14-.02.1-.04.08-.02.04-.04.04-.02.12-.02.02-.04.06-.02.04-.04.1-.04.02-.02.04-.04.06-.06.04-.08.04-.14.08-.18-.02-.06-.02-.08-.02-.12-.02-.06-.06-.08-.04-.06-.06-.02-.06-.08-.04-.06-.04-.02-.06-.02-.08-.04-.08-.04-.19v-.08l.04-.14.04-.1.02-.06.02-.06.04-.08.06-.06.02-.04.1-.08.08-.02.1-.04.1-.02h.08ZM11.31,11.28h-.04l-.04.02-.06.1-.02.1v.04l.02.06.08.02.06.06.02.02.06.02.08-.02h.02l.04-.04.04-.04.06-.04v-.12l-.02-.06-.02-.02-.02-.04-.04-.02-.04-.04-.08-.02h-.04l-.06.02Z"/><path class="cls-2" d="M10.96,4.15l.19-.04.25-.04h.21l.2.04.21.02h.12l.16.04.16.02h.04l.35.12.18-.02.18.08h.39l.16.06.1.06.16.08.21.06.12.1.14.02.1.02.06.1h.12l.08.1.04.02.18.08.08.06.14.02.08.06.08.06.14.08.1.04.08.08h.1l.08.08.08.06.08.04.06.04.25.25.04.06.12.02.08.08.14.06.14.18.18.12.1.1.04.14.12.06.12.16.1.04.06.06.02.06.08.08.1.14.04.08.12.14.08.1v.1l.02.08.06.04.06.12.14.12.02.1.06.08.06.08v.14l.06.12.06.12.04.1.04.1.06.1.04.04v.19l.06.1.08.08v.21l.04.1.02.04v.25l.02.08.02.21.04.06.04.16-.02.18.06.12.04.08v.9l-.06.04-.02.08.02.08.04.06.04.18v.33l-.02.19v.1l-.06.08v.25l.02.1-.06.1-.04.14-.02.14-.04.12-.06.06v.18l-.04.14-.06.08-.06.1-.06.1-.02.08.02.1-.06.06-.1.12-.02.16-.2.33-.04.12-.04.1-.08.1-.1.16-.12.14v.1l-.06.04-.04.12-.18.12-.18.29-.04.1-.06.06-.06.1-.06.1-.55.51-.12.14-.08.04-.12.08-.23.21-.08.08-.1.02-.08.08-.08.08-.12.08-.06-.04-.04.08-.04.06-.16.04-.18.12-.02.04-.06.04-.06-.02-.06.1h-.19v.12l-.08-.02h-.08l-.08.06-.1.04h-.08l-.06.08-.04.04-.1-.02-.08.06-.08.02-.14.06-.14.06-.1.06-.14.06-.08.02-.16.06h-.23l-.1.04-.06.06-.12.02-.1.04-.08.02-.08.04-.16-.02-.29.06h-.41l-.08-.02-.08-.02h-.39l-.51.02-.16-.02h-.58l-.12-.04-.08-.06-.16-.04-.12-.06h-.08l-.08-.04-.1-.04-.04-.02-.14-.02-.08.02-.16-.08-.21-.1-.12-.06-.14-.06-.1-.06-.21-.1-.12-.04-.1-.04-.12-.06-.1-.1-.12-.1-.16-.02v-.12h-.14l-.06-.08-.18-.06-.1-.1-.06-.08-.06-.14-.31-.25-.35-.37-.25-.27-.14-.19-.12-.18-.12-.12-.06-.12-.14-.14-.1-.16-.1-.19-.06-.08-.12-.16-.06-.16-.04-.1-.08-.23-.29-.57-.12-.16-.04-.14-.02-.08-.04-.08v-.16l-.06-.14v-.19l-.06-.33-.04-.12-.06-.21-.02-.23-.06-1.03-.02-.45.06-.35.04-.16.02-.1v-.16l-.06-.16.06-.39.08-.14v-.16l.04-.12.1-.19.04-.14.04-.1.14-.16.08-.18v-.08l.04-.1.04-.18.08-.06.04-.14.29-.43.04-.14.06-.12.12-.14.16-.19.12-.1.14-.14.23-.31.06-.1.02-.06.55-.51.2-.18.37-.27.1-.04.08-.06.29-.16.1-.04.1-.1.18-.08.12-.12.19-.04.18-.12.1-.04.14-.06.12-.08.14-.06h.16l.23-.08.16-.06.21-.04.08-.04.27-.02h.25l.18-.04.04-.04.2.02h.23l.12-.02ZM9.21,4.67l-.16.06-.1.04-.23.06-.19.08-.16.1-.19.08-.16.1-.19.04-.21.18-.21.16-.25.18-.16.12-.12.12-.25.16-.23.25-.21.19-.35.37-.04.08-.08.19-.16.23-.16.23-.1.14-.06.12-.14.23-.18.19-.1.21-.06.14-.12.21-.21.51-.02.1-.04.08-.02.14-.04.12-.1.16.02.25-.02.62-.04.06.02.06.02.08-.08.14.02.39v.23l.04.08.02.92.02.1.02.16.08.12v.33l.06.12.06.21.06.12.1.2.08.12.04.16.06.1.12.21.04.16.06.12.1.12.1.18.08.18.08.16.02.12.08.12.25.25-.02.06.08.1.12.14v.1l.14.12.06.06.04.14.21.21.14.16.1.08.12.08.12.14.16.16.14.06.14.14.12.06.1.06.18.16.12.1.1.12.16.02.08.06.18.06.27.1.16.08.12.04.14.08.16.02.12.08h.08l.12.04.18.06.19.02.08.06.14.04.06.04h.18l.45.02.25.06.23-.08h.66l.21.02.18-.02.12-.06.16.02h.21l.14-.1.2-.02.1-.06h.08l.18-.06.06-.06.08.02.16-.06.14-.02.1-.14.14-.02.16-.1h.08l.06-.02.08-.02.08.02.16-.12.08-.08.08.02.06-.04h.08l.14-.08.08-.08h.04l.18-.16.06-.02.1-.04.08-.06h.1l.14-.12.1-.1.18-.18.14-.1.08-.06.19-.12.1-.1.39-.45.04-.06.06-.12.12-.16.18-.14.06-.08.04-.12.06-.06.08-.16.08-.08.04-.08.1-.18.1-.1.02-.12.04-.04.1-.16.08-.21.12-.16.14-.33.02-.12.02-.12.08-.04.08-.21.04-.1.04-.1.04-.12.04-.12v-.41l.02-.16-.02-.21.02-.25.04-.25-.02-.18-.02-.12.02-.19-.06-.14-.04-.16.04-.33-.04-.08-.06-.1v-.19l-.02-.14-.02-.19v-.16l-.06-.06.02-.18-.06-.18-.04-.1-.1-.18v-.2l.02-.1-.12-.12v-.1l-.02-.1-.02-.19-.14-.21-.02-.06-.06-.06.04-.08-.12-.08v-.14l-.1-.08-.06-.08-.02-.12-.06-.06-.1-.08-.04-.1-.06-.12-.16-.06-.02-.16-.1-.06-.08-.08-.06-.12-.06-.16-.25-.25-.12-.12-.19-.14-.12-.06-.16-.14-.25-.19-.25-.12-.18-.12-.25-.18-.12-.1-.04-.08-.06-.02-.14-.04-.23-.1-.19-.14-.14-.02-.08-.06-.14-.02-.08-.06.02-.02-.19-.04-.14-.12-.18.08-.16-.12-.21-.04-.08-.04-.18-.06-.12-.02-.12-.06h-.47l-.04-.06-.7-.02-.74.02-.19.02-.12.06-.25.04h-.31l-.18.08-.06.04-.23.04-.21.04Z"/><path class="cls-2" d="M9.23,5.16l.16-.1h.16l.14-.08.06-.04h.23l.18-.1h.21l.19.04.21-.02.16-.06.25-.02h1.44l.1.04.12.06.16.02.06.08h.21l.1.02.02.08.18.02.18.08.12.04.06.08.14.02.1.1h.1l.14.1.04.06h.08l.08.08.14.04.04.06h.04l.08.1.14.02.08.04.02.06.27.19.08.02.06.06.12.1.1.06.06.06.12.04.08.1.12.1.06.04.08.1.1.08.08.12.23.19.14.18.12.12.08.12.08.16.06.1.06.06.08.12.06.14.12.08.08.21.19.39.08.12.04.1.12.18.06.18v.18l.08.14.04.18.04.12.02.23-.02.16.04.1.08.1-.02.12.02.23.04.16.02.08.02.12.02.21v1.03l-.04.1-.02.08.02.31-.08.08.02.12-.04.16-.08.08.02.08-.06.1-.02.18-.08.12-.1.12-.06.19-.06.1-.08.1-.08.12-.12.18-.08.18-.1.08-.02.1-.08.08-.12.12-.04.08-.02.12-.14.1-.08.08-.02.08-.18.27-.08.1-.06.06-.08.16-.29.23-.02.08-.02.06-.06.04-.08.08h-.12l-.16.18-.06.04-.12.14-.12.04-.12.04-.08.04-.29.31-.14.12-.16.06-.14.06-.23.02-.06.12-.12-.02-.1.02-.1.08-.14.02-.06.08-.18-.04-.16.16h-.12l-.16.04-.18.06-.08.06h-.12l-.18.1-.51.02-.19.08-.29-.04-.1.06-.47-.02-.29-.02-.23-.06-.06-.02-.21-.04-.12-.04-.23.02-.12-.06-.21-.02-.06-.08-.31-.06-.18-.06-.27-.12-.43-.25-.29-.21-.21-.16-.12-.12-.27-.18-.08-.1-.12-.1-.1-.08-.06-.08-.04-.08-.1-.06-.14-.04-.16-.18-.08-.08-.06-.04-.04-.08-.08-.08-.08-.04-.04-.1-.06-.08-.02-.1-.08-.08-.12-.08-.06-.1v-.08l-.12-.06-.06-.12v-.08l-.04-.1-.08-.04-.02-.1-.04-.06-.02-.08-.02-.04-.06-.06-.25-.41-.04-.06-.06-.12v-.08l-.02-.1-.04-.12-.02-.1v-.08l-.08-.08-.02-.1v-.12l-.08-.14-.02-.12.02-.1-.04-.14-.06-.06-.02-.08v-.39l-.02-.08-.04-.06-.02-.96.06-.04.02-.16v-.33l.08-.14.04-.18.04-.16.04-.2.06-.12.02-.08.04-.06-.04-.18.04-.16.08-.12.06-.08.04-.12v-.14l.02-.1.08-.1.02-.06.02-.1.06-.08.12-.06.06-.1.02-.12.04-.16.12-.18.06-.06.06-.02.02-.1v-.06l.1-.08.04-.08.06-.14.1-.1.06-.1.06-.06.08-.1.14-.08.12-.14.1-.16.06-.08.51-.41.19-.14.14-.18.14-.1.18-.1.27-.14.18-.12.06-.12h.1l.16-.02.04-.12.12-.02.06-.08.04-.02h.12l.04-.08h.14ZM10.69,5.2l-.2.06h-.18l-.18.02-.16.12-.21.04-.06.04-.12.02-.08.08-.25.02-.14.06-.14.04-.16.1-.16.08-.04.06-.14.04-.08.04-.14.16-.29.21-.14.12-.18.12-.12.06-.21.16-.21.18-.19.23-.21.21-.12.19-.1.18-.14.19-.12.18-.08.1-.21.23-.18.37v.12l-.06.18-.06.1-.02.12-.18.16-.08.14-.02.2-.04.1-.06.39-.06.1-.02.27v.99l-.04.1-.02.08v.18l.04.14-.04.12-.04.04.06.19.04.08v.47l.04.12.06.27v.16l.06.1.08.16.06.16.08.12.04.14.06.16.06.08.1.14.06.18.06.08.12.12.14.19.12.21.1.14.27.41.14.12.14.1.21.12.12.18.08.14.27.27.12.1.18.08.21.18.2.14.27.1.19.08.23.06.39.14.18.04.25.02.08.06.14.04.14.04.19.06.1.06.21.04.31.02.31.06.43-.02.16-.02.35-.08.1-.06.14.02.33-.14.1-.12.31.02.04-.08.12-.02h.14l.12-.08.16-.06.04-.06.06-.02h.25l.14-.08.19-.1.06-.06h.08l.1-.04.02-.12.08-.04.06-.06.1-.12.08-.02.18-.1.16-.18.14-.06.08-.1.08-.1.14-.14.02-.04.12-.14.1-.08.23-.23.08-.08.08-.1.08-.08.1-.14.06-.06.08-.08.06-.12.14-.23.06-.04.08-.1.02-.08.12-.16.02-.12.06-.14.06-.08.06-.06.02-.1.02-.08.1-.21.08-.06-.02-.12.04-.18.08-.12.02-.25v-.27l.02-.18.04-.39.02-.12-.02-.25v-.47l-.06-.23v-.47l-.02-.06-.06-.18v-.39l-.04-.14-.02-.16-.12-.18-.06-.14-.04-.12-.06-.1-.12-.19-.1-.21-.12-.23-.12-.18-.16-.23-.1-.16-.18-.2-.12-.14-.23-.23-.16-.12-.14-.21-.12-.18-.12-.1-.1-.06-.12-.08-.21-.16-.18-.08-.1-.08-.08-.08-.12-.04-.16-.12-.12-.1-.16-.06-.21-.1-.14-.16-.1-.02-.12-.04-.06-.04-.16-.04-.06-.08h-.2l-.1-.06-.1-.04-.18-.02-.12-.04-.1-.06h-.7l-.1-.08h-.76l-.1.04h-.12l-.19-.04Z"/><path class="cls-2" d="M11.47,5.49l.12.1.16-.04.19-.02.19.02.35.04.19.06.27.04.25.08.06.04.29.1.14.08.25.19.25.1.25.14.18.12.18.14.31.18.14.16.43.33.21.1.12.16.06.12.08.2.16.08.16.14.21.29v.16l.14.21.12.12.1.18.04.08-.04.12.1.31.14.27.1.29.06.18.04.64v.45l-.06.43v.58l-.08.27-.02.41-.08.31-.08.35-.23.6-.12.33-.18.27-.16.25-.12.21-.21.19-.1.1-.27.19-.33.25-.08.06-.29.31-.27.18-.25.18-.19.14-.68.29-.21.1-.27.16-.21.06h-.25l-.21.04-.1.12h-.25l-.86.02-.43-.02-.45-.04-.27-.06-.25-.1-.45-.16-.33-.16-.43-.18-.25-.1-.12-.04-.08-.1-.08-.04-.12-.06-.08-.08-.18-.08-.14-.16-.23-.18-.21-.2-.25-.18-.16-.21-.16-.25-.18-.18-.1-.16-.12-.18-.1-.14-.1-.12-.08-.19-.1-.21-.14-.27-.06-.14-.12-.19-.02-.16-.02-.25-.04-.12-.04-.16-.02-.29-.04-.08-.04-.57.06-.25v-.23l.04-.18v-.66l.06-.16.06-.14.02-.18.1-.12v-.21l.08-.16.04-.08.19-.41.08-.16.1-.23.14-.16.12-.18.04-.14.25-.41.21-.23.25-.27.16-.16.08-.14.18-.16.21-.16.21-.2.19-.16.16-.12.12-.08h.02l.19-.1.21-.14.25-.12.2-.12.19-.06.21-.1.14-.1h.7l.19-.06.14-.06.08.02.06.04h.14l.08-.02.08-.04.12-.04ZM9.38,6.47l-.1.02-.06.06-.1.06-.16.1-.14.06-.12.08-.12.02-.19.14-.1.1-.21.19-.16.14-.23.2-.1.12-.1.18-.18.2-.33.39-.08.08-.04.1-.12.16-.12.23-.08.18-.08.21-.21.37-.14.21-.04.14-.06.18-.04.12-.12.37v.35l.02.21-.08.31-.04.18v.53l.04.14.06.1v.12l.08.31.02.39.04.12.08.23.14.29.19.35.41.66.16.1.31.35.43.39.29.12.14.12.21.1.45.27.19.06.16.04.19.12.23.06.35.16.19.06.16.06.21.08.12.02.12.02.27.02.27-.04h.23l.35.02.14-.02h.35l.39-.08.14-.04.21-.16.25-.08.21-.06.14-.08.27-.12.21-.16.23-.14.19-.16.18-.14.19-.12.18-.18.12-.14.19-.12.12-.08.35-.35.1-.14.06-.18.16-.19.08-.14.04-.12.12-.39.06-.08.04-.14.04-.16.06-.19.19-.57.02-.21.08-1.19-.02-.76-.1-.21-.06-.14-.06-.23-.08-.29-.12-.43-.12-.1-.1-.16-.12-.18-.14-.33-.1-.12-.14-.14-.31-.41-.14-.08-.14-.12-.27-.25-.18-.16-.33-.2-.35-.19-.35-.25-.12-.04-.16-.08-.12-.12-.35-.08-.19-.06-.2-.1-.29-.06-.14-.04h-.23l-.23-.06-.14-.04h-.31l-.16.02-.23.06-.16.08-.21.04-.27.02-.25-.02-.14.1-.53.21Z"/><path class="cls-2" d="M10.18,6.37l.18-.02h.19l.23-.06h.16l.21-.04.12-.06.31-.04.12.02.21.06.12.04.18.06h.25l.1.04.04.04.16.04.06.04.16.04.14.02.04.06.19.04.02.02.02.06.08.02h.1l.04.02.18.08.14.06.06.06.08.02.14.12.16.08.04.02.12.06.06.06.08.06.12.02.1.12.14.1.06.1.08.04.08.06.1.1.08.06.08.04.08.1.14.18.04.08.08.08.06.1.19.16.02.14v.08l.12.14.02.1.04.1.06.18.08.18.04.08.08.33.12.16-.02.08.06.21v.1l.1.12v.21l.04.18.02.21.02.18-.02.18.02.18v.12l-.02.06-.08.19v.08l-.02.18v.14l-.04.16-.04.06-.04.21-.06.12-.02.16-.08.23v.23l-.18.23-.06.12-.08.12-.08.1-.12.18-.12.12-.08.14-.1.04-.12.16-.1.08-.08.1-.18.19-.08.1-.21.21-.21.14-.08.08-.08.1-.12.12-.1.04-.21.12-.1.06-.16.12-.16.06-.14.04-.18.06-.12.04-.21.1-.21.12-.16.06-.35.06-.12.02-.18.06-.23.06-.14-.02-.1-.04h-.1l-.14.02-.08.04h-.21l-.16-.02-.16-.04-.08-.06-.16-.02-.1-.06-.12-.02h-.18l-.16-.04-.14-.04-.16-.06-.1-.06-.12-.08-.31-.16-.1-.08-.02-.04-.08-.1-.12-.04-.1-.04-.12-.08-.1-.06-.18-.02-.04-.06-.19-.1h-.1l-.1-.06-.2-.23-.14-.04-.02-.08-.08-.12-.18-.14-.08-.1-.02-.06-.14-.25-.08-.04-.06-.06-.08-.1-.04-.06-.02-.12-.04-.08-.08-.08-.08-.14-.04-.06-.04-.14h-.08l-.04-.08-.06-.08v-.14l-.02-.06-.02-.16.02-.06-.02-.08-.02-.08-.08-.25-.04-.1v-.16l.08-.08-.04-.08-.04-.1v-.49l-.02-.06-.02-.06.02-.12.02-.1v-.08l.02-.35-.02-.06.02-.08.06-.16.02-.12-.02-.1.06-.04.04-.1.02-.08v-.08l.04-.02.1-.23-.02-.04.04-.12.08-.12.04-.1v-.06l.12-.14.1-.18.18-.29.06-.02.08-.12.04-.1.06-.1.08-.08.06-.06.02-.1.06-.14.08-.08.06.02.06-.12.02-.06.06-.12h.06l.04-.06.2-.18.04-.06.08-.06.1-.1.1-.08h.1l.06-.08v-.02l.1-.1.12-.08.02-.04h.1l.08-.06.04-.06.02-.02.04-.04.06-.02.08-.04.04-.04.06-.06h.1l.1-.08.06-.04.04-.04.1-.04h.06l.04-.08.14-.02.08-.02.04-.04.06-.04.1.02.08-.04ZM12.05,7.21l-.06-.02-.04-.02h-.08l-.06-.02-.06-.06h-.16l-.04-.02-.12-.04h-.08l-.1.04h-.41l-.1.06-.06.06-.16-.02-.08.02-.16.02h-.06l-.1.06-.1.02-.04.02-.02.04h-.18l-.08.02-.08.08h-.1l-.08.08-.21.1-.12.06-.1.08-.06.06-.04.04-.19.12-.12.04-.06.04-.08.12h-.04l-.06.08-.02.04-.1.12-.08.1-.04-.02-.04.06-.02.08-.02.04-.12.08-.04.1-.04.12-.12.1-.08.04-.08.14-.06.1-.04.06-.04.12-.02.06-.08.08-.06.1-.04.08-.04.16-.1.12v.06l-.02.12-.1.1-.02.08-.04.1-.04.06-.02.08-.04.12v.16l-.02.04-.08.14v.14l-.02.14-.02.12v.25l-.02.19v.47l.12.14-.02.04.02.06.04.06v.06l.02.08.02.06v.1l.02.08.04.08v.21l.06.08.06.04.04.06.04.12.08.08.06.08.02.14.14.08.06.19.1.1.1.1.04.08.02.08.08.06.04.04.06.04.12.08v.04l-.04.12.02.08.02.1.08-.02.1-.04.06-.04.08.02.1.08.1.06.14.08.14.08.08.04.1.06.18.1.06.04.06.02.06.08.16.02.06.06.08.06.25.12.14.04h.23l.12.02.19.02h.06l.14.08.12.02h.14l.14-.02.08-.02h.25l.08-.02h.14l.16.02h.14l.45-.06.04-.02.12-.04.1-.02h.08l.12-.08.08-.02.04-.06.06-.02.12-.06.21-.08.1-.06.08-.04.18-.04.29-.25.08-.04.06-.06.06-.08.23-.18.06-.1.2-.21.02-.1.1-.1.12-.12.1-.12.12-.1.06-.08.08-.1.18-.21.04-.06.06-.14.04-.08.06-.1.02-.1.06-.27.02-.06.08-.02.06-.04v-.25l.02-.08.04-.1.02-.12v-.53l.04-.33-.02-.06-.08-.1.04-.14-.04-.08-.04-.04v-.29l-.02-.02-.06-.18-.06-.1.04-.04-.02-.02-.06-.04-.06-.14-.02-.12v-.06l-.06-.02-.06-.14v-.14l-.04-.08-.04-.04-.04-.16-.06-.16-.04-.08-.1-.06-.06-.1-.04-.08-.02-.02-.04-.08-.08-.08-.04-.04-.02-.04-.06-.08-.02-.04-.08-.02-.1-.19-.08-.06-.06-.06.06-.18.02-.12h-.06l-.08.02-.1.06-.06-.02-.16-.06-.06-.06-.04-.04h-.08l-.06-.04-.02-.04-.04-.02h-.04l-.08-.04-.02-.04h-.04l-.1-.02-.04-.06-.02-.02-.12-.04-.08-.02-.06-.08h-.12l-.08-.02h-.08l-.06-.02-.04-.06h-.06l-.08-.02-.06-.04-.08-.02-.08.02-.1-.02h-.02l-.12-.02-.06-.06-.14.02h-.14Z"/><polygon class="cls-2" points="14.41 8.51 14.51 8.61 14.59 8.67 14.72 8.73 14.72 8.81 14.76 8.9 14.82 8.94 14.88 9.02 15 9.14 15.06 9.18 15.11 9.35 15.19 9.45 15.27 9.49 15.25 9.57 15.29 9.68 15.35 9.8 15.35 9.86 15.39 9.94 15.43 10.02 15.45 10.09 15.47 10.17 15.49 10.25 15.54 10.27 15.52 10.39 15.56 10.43 15.58 10.48 15.58 10.56 15.6 10.6 15.64 10.68 15.66 10.7 15.68 10.85 15.66 10.93 15.7 10.99 15.72 11.05 15.7 11.17 15.74 11.22 15.76 11.24 15.78 11.63 15.78 11.71 15.76 11.77 15.76 11.93 15.8 12.04 15.76 12.14 15.78 12.2 15.76 12.26 15.74 12.32 15.7 12.38 15.74 12.41 15.76 12.53 15.72 12.67 15.66 12.73 15.62 12.86 15.58 12.94 15.56 12.98 15.56 13.06 15.52 13.1 15.49 13.12 15.35 13.23 15.35 13.33 15.35 13.37 15.31 13.43 15.25 13.49 15.25 13.53 15.23 13.56 15.21 13.58 15.15 13.62 15.13 13.68 15.08 13.76 15.08 13.86 15.04 13.92 15 13.99 14.9 14.09 14.86 14.15 14.78 14.29 14.76 14.31 14.71 14.36 14.61 14.4 14.51 14.5 14.41 14.58 14.33 14.64 14.26 14.73 14.12 14.79 14.04 14.85 13.98 14.99 13.93 15.03 13.87 15.09 13.5 15.3 13.42 15.34 13.38 15.42 13.3 15.46 13.24 15.48 13.15 15.55 13.05 15.55 12.99 15.61 12.91 15.65 12.83 15.65 12.76 15.77 12.56 15.77 12.44 15.79 12.33 15.79 12.25 15.81 12.21 15.85 12.09 15.87 11.64 15.89 11.22 15.83 10.98 15.87 10.94 15.83 10.88 15.79 10.59 15.77 10.53 15.75 10.45 15.73 10.4 15.71 10.32 15.69 10.22 15.65 10.16 15.59 10.1 15.59 10.05 15.59 9.91 15.53 9.81 15.5 9.75 15.5 9.67 15.46 9.64 15.42 9.58 15.4 9.46 15.38 9.42 15.34 9.32 15.34 9.28 15.32 9.28 15.3 9.21 15.22 9.15 15.22 9.03 15.2 8.91 15.12 8.8 15.07 8.7 15.01 8.68 14.97 8.64 14.93 8.56 14.91 8.52 14.87 8.6 14.79 9.3 14.19 9.44 14.21 9.54 14.27 9.6 14.31 9.67 14.29 9.73 14.33 9.75 14.36 9.85 14.38 9.89 14.4 9.95 14.44 10.01 14.46 10.12 14.46 10.16 14.48 10.26 14.54 10.32 14.56 10.49 14.58 10.71 14.58 10.83 14.6 11 14.6 11.02 14.64 11.08 14.68 11.39 14.7 11.55 14.68 11.7 14.7 12.07 14.7 12.23 14.66 12.37 14.66 12.44 14.6 12.54 14.56 12.64 14.54 12.68 14.48 12.76 14.46 12.83 14.42 12.85 14.4 12.89 14.38 12.93 14.38 12.99 14.34 13.03 14.31 13.07 14.27 13.11 14.25 13.15 14.19 13.16 14.19 13.42 13.97 13.5 13.9 13.59 13.8 13.63 13.76 13.75 13.62 13.85 13.51 13.89 13.49 13.93 13.39 13.96 13.35 14 13.23 14.04 13.19 14.12 13.19 14.12 13.12 14.12 13.08 14.22 13 14.24 12.9 14.3 12.92 14.3 12.82 14.3 12.75 14.37 12.63 14.41 12.55 14.43 12.47 14.45 12.41 14.49 12.38 14.49 12.3 14.51 12.18 14.57 12.1 14.59 12.04 14.57 11.97 14.59 11.67 14.65 11.52 14.61 11.46 14.59 11.4 14.57 11.3 14.53 11.22 14.51 11.07 14.53 10.91 14.53 10.85 14.49 10.8 14.45 10.76 14.43 10.66 14.41 10.6 14.43 10.54 14.35 10.23 14.33 10.15 14.28 10.04 14.1 9.78 14.06 9.66 14.04 9.63 13.98 9.61 13.96 9.57 13.93 9.55 13.87 9.49 13.81 9.43 14.41 8.51"/><polygon class="cls-2" points="13.65 9.65 13.71 9.68 13.75 9.7 13.77 9.78 13.87 9.82 13.87 9.86 13.89 9.92 13.94 9.98 14 10.05 13.98 10.11 14.08 10.19 14.08 10.21 14.06 10.27 14.12 10.35 14.16 10.37 14.16 10.48 14.16 10.58 14.22 10.62 14.26 10.7 14.24 10.76 14.28 10.82 14.26 10.87 14.26 10.91 14.3 10.95 14.33 11.01 14.33 11.11 14.33 11.3 14.28 11.42 14.33 11.46 14.37 11.5 14.41 11.65 14.39 11.81 14.35 11.83 14.35 11.87 14.32 11.97 14.33 12.1 14.32 12.2 14.3 12.28 14.26 12.3 14.26 12.36 14.22 12.45 14.18 12.51 14.14 12.57 14.14 12.63 14.18 12.71 14.12 12.8 14.06 12.8 14 12.84 14 12.92 13.96 13.02 13.93 13.04 13.89 13.16 13.81 13.23 13.73 13.33 13.71 13.39 13.69 13.43 13.65 13.45 13.63 13.45 13.57 13.49 13.55 13.58 13.5 13.62 13.48 13.62 13.44 13.66 13.38 13.7 13.36 13.78 13.34 13.78 13.3 13.8 13.22 13.9 13.15 13.95 13.09 13.99 13.05 13.99 13.03 14.03 13.01 14.07 12.95 14.09 12.93 14.09 12.89 14.11 12.87 14.13 12.81 14.13 12.77 14.15 12.74 14.21 12.68 14.27 12.64 14.31 12.62 14.33 12.58 14.33 12.54 14.33 12.5 14.34 12.46 14.4 12.44 14.42 12.4 14.44 12.37 14.42 12.31 14.44 12.29 14.44 12.23 14.52 12.21 14.52 12.17 14.52 11.94 14.52 11.8 14.5 11.68 14.52 11.51 14.5 11.45 14.52 11.31 14.52 11.23 14.5 11.2 14.48 11.16 14.44 11.12 14.42 11.1 14.42 10.98 14.44 10.88 14.42 10.83 14.42 10.69 14.42 10.57 14.42 10.51 14.4 10.49 14.38 10.45 14.36 10.34 14.36 10.3 14.34 10.24 14.33 10.18 14.33 10.14 14.31 10.1 14.27 10.01 14.25 9.93 14.23 9.89 14.21 9.83 14.19 9.79 14.15 9.75 14.11 9.69 14.09 9.64 14.07 9.52 14.03 10.88 13.16 10.96 13.19 11.04 13.23 11.1 13.23 11.12 13.25 11.16 13.29 11.23 13.29 11.37 13.29 11.53 13.27 11.59 13.25 11.64 13.21 11.7 13.19 11.72 13.19 11.8 13.23 11.88 13.21 11.9 13.21 11.98 13.19 12.03 13.12 12.07 13.1 12.13 13.08 12.19 13.04 12.21 13.02 12.25 13 12.31 13 12.35 12.96 12.37 12.9 12.42 12.86 12.44 12.84 12.44 12.82 12.48 12.78 12.58 12.73 12.64 12.67 12.68 12.63 12.7 12.57 12.72 12.55 12.76 12.51 12.81 12.49 12.83 12.47 12.83 12.41 12.83 12.38 12.93 12.24 12.95 12.16 12.95 12.12 12.95 12.08 12.99 12.04 13.01 12 13.01 11.97 13.03 11.85 13.05 11.79 13.03 11.75 13.03 11.71 13.01 11.65 13.01 11.58 13.01 11.56 13.03 11.48 13.03 11.4 13.03 11.34 13.03 11.3 13.01 11.21 13.01 11.15 13.01 11.11 12.97 11.05 12.95 11.03 12.89 10.97 12.89 10.95 13.65 9.65"/><polygon class="cls-2" points="12.79 11.09 12.79 11.15 12.81 11.22 12.83 11.26 12.85 11.28 12.87 11.36 12.87 11.4 12.89 11.44 12.89 11.5 12.87 11.6 12.87 11.73 12.85 11.83 12.81 11.89 12.81 11.97 12.77 12.08 12.74 12.16 12.7 12.2 12.66 12.24 12.68 12.28 12.68 12.3 12.64 12.34 12.62 12.36 12.58 12.39 12.54 12.47 12.52 12.53 12.52 12.57 12.48 12.61 12.44 12.61 12.37 12.67 12.33 12.73 12.31 12.77 12.29 12.77 12.23 12.77 12.21 12.8 12.19 12.82 12.15 12.86 12.09 12.86 12.05 12.9 12.03 12.94 11.98 12.96 11.9 12.98 11.8 13.02 11.76 13.08 11.72 13.08 11.61 13.14 11.55 13.12 11.49 13.12 11.45 13.12 11.39 13.12 11.37 13.1 11.33 13.08 11.27 13.06 11.23 13.06 11.22 13.06 11.14 13.02 11.1 13 12.15 12.22 12.21 12.16 12.25 12.1 12.29 12.02 12.79 11.09"/></g></svg>