<?xml version="1.0" encoding="UTF-8"?><svg id="Layer_2" xmlns="http://www.w3.org/2000/svg" viewBox="0 0 73.03 73.29"><defs><style>.cls-1{fill:#010101;}</style></defs><g id="hatch"><polygon class="cls-1" points="48.18 21.35 44.25 24.69 43.99 24.6 43.73 24.43 43.56 24.17 43.39 24.09 43.14 24 42.97 24 42.8 23.75 42.45 23.66 42.03 23.58 41.86 23.58 41.34 23.32 40.92 23.06 40.57 22.98 40.15 22.89 39.72 22.72 39.38 22.64 38.78 22.64 38.1 22.55 37.67 22.64 37.16 22.64 36.99 22.64 36.65 22.64 36.39 22.55 36.3 22.38 35.88 22.29 35.02 22.29 34.42 22.29 33.83 22.29 33.23 22.38 32.72 22.47 31.86 22.64 31.52 22.72 31.26 22.81 31.01 22.98 30.41 23.15 30.24 23.32 30.15 23.4 29.9 23.49 29.64 23.58 29.47 23.75 29.38 23.83 29.3 24 28.96 24.26 28.36 24.69 28.19 24.77 28.1 24.86 27.93 25.03 27.85 25.2 27.68 25.37 27.51 25.46 26.99 25.88 26.82 26.05 26.74 26.22 26.57 26.39 26.57 26.65 26.48 26.74 26.22 26.99 25.97 27.42 25.8 27.51 25.54 27.59 25.37 27.85 25.28 28.02 25.03 28.19 24.94 28.27 24.86 28.53 24.77 28.7 24.43 29.04 24.34 29.21 24.17 29.38 24.09 29.73 23.92 30.07 23.66 30.41 23.66 30.84 23.41 31.18 23.15 31.61 23.06 31.78 22.89 32.12 22.72 32.29 22.64 32.63 22.55 32.97 22.29 33.31 22.21 34.25 22.12 34.51 22.12 35.11 21.87 35.45 21.87 35.96 21.87 36.39 21.78 36.99 21.87 38.61 21.87 38.95 22.04 39.21 22.21 39.55 22.21 39.98 22.29 41.09 22.47 41.26 22.64 41.51 22.72 41.77 22.72 42.03 22.89 42.2 22.98 42.28 23.15 42.54 23.15 42.88 23.32 43.05 23.41 43.14 23.75 43.39 23.75 43.91 23.66 44.08 23.92 44.33 24.17 44.76 24.34 45.02 24.69 45.19 24.69 45.36 25.03 45.78 22.47 49.46 22.38 49.29 22.12 48.95 21.7 48.95 21.27 48.43 21.1 48.35 21.01 48.18 21.01 48.09 21.01 47.92 20.84 47.75 20.59 47.58 20.59 47.32 20.5 47.15 20.16 46.9 20.24 46.72 20.16 46.55 19.82 46.38 19.73 46.13 19.65 46.13 19.39 45.87 19.22 45.53 19.22 45.44 18.96 45.27 18.96 45.1 18.88 44.85 18.54 44.59 18.45 44.5 18.45 44.33 18.45 44.16 18.37 43.73 18.11 43.48 18.02 43.22 18.02 42.71 17.94 42.54 17.77 42.2 17.68 41.6 17.6 41.34 17.34 41 17.34 40.57 17.25 40.4 17.17 40.15 17.25 39.98 17.17 39.55 16.91 39.38 16.91 39.12 16.91 38.78 16.83 38.52 16.74 37.84 16.83 37.5 16.91 37.33 16.91 36.99 16.83 36.47 16.83 36.13 16.91 35.71 17 35.53 17 34.51 17 34.17 17 34 17.25 33.74 17.43 33.31 17.34 33.14 17.34 33.06 17.43 32.89 17.51 32.46 17.6 32.29 17.77 32.03 17.77 31.86 17.77 31.61 17.85 31.52 18.02 31.26 18.28 30.84 18.28 30.58 18.54 30.32 18.62 30.07 18.54 29.64 18.54 29.56 18.71 29.38 19.05 28.96 19.13 28.79 19.22 28.53 19.3 28.36 19.73 27.59 19.99 27.42 20.07 27.16 20.24 26.99 20.33 26.74 20.67 26.48 20.93 26.05 21.27 25.54 21.27 25.37 21.44 25.2 21.78 24.77 21.87 24.52 22.04 24.17 22.29 23.75 22.81 23.32 23.06 23.06 23.32 22.72 23.49 22.55 23.66 22.38 23.92 22.21 24.43 21.44 24.77 21.18 25.37 20.67 26.14 19.9 26.48 19.9 26.91 19.65 27.25 19.56 27.68 19.39 27.68 19.13 28.27 18.96 28.62 18.88 28.79 18.54 29.56 18.54 30.15 18.37 30.41 18.28 30.49 18.11 31.35 18.02 31.86 18.11 32.12 17.94 32.2 17.68 32.46 17.68 32.97 17.68 33.74 17.68 34.08 17.68 34.25 17.51 34.6 17.43 34.6 17.34 34.85 17.25 36.13 17.25 36.22 17.43 36.39 17.51 36.73 17.43 36.99 17.6 37.33 17.68 38.35 17.68 38.44 17.77 38.95 18.02 39.12 18.11 39.81 18.19 40.83 18.11 40.92 18.19 41.09 18.28 41.34 18.37 41.6 18.28 41.86 18.37 42.03 18.54 42.54 18.54 42.71 18.62 42.88 18.88 42.97 18.96 43.31 18.96 43.82 18.96 43.99 19.13 44.16 19.22 44.67 19.3 44.76 19.3 45.1 19.39 45.27 19.39 45.44 19.65 45.61 19.82 45.87 19.73 46.04 19.82 46.21 19.99 46.47 20.16 46.64 20.16 46.9 20.24 47.07 20.42 47.24 20.59 47.49 20.93 47.75 21.1 47.92 21.18 48.18 21.35"/><polygon class="cls-1" points="43.48 25.28 38.61 28.62 38.52 28.62 38.27 28.44 38.01 28.36 37.67 28.27 37.41 28.19 37.07 28.19 36.82 28.19 36.65 28.1 36.39 28.1 36.05 28.02 35.71 27.93 35.53 28.02 35.19 28.02 34.85 27.93 34.25 27.93 34 27.93 33.74 28.1 33.57 28.19 33.4 28.36 33.23 28.36 32.89 28.44 32.72 28.79 32.46 28.87 32.2 28.79 32.03 28.87 31.95 29.04 31.78 29.13 31.69 29.21 31.61 29.3 31.35 29.3 31.26 29.38 31.18 29.64 30.92 29.73 30.84 29.73 30.67 29.9 30.58 30.07 30.49 30.15 30.32 30.24 30.15 30.49 30.07 30.58 29.9 30.67 29.9 30.75 29.81 30.92 29.73 31.01 29.64 31.09 29.56 31.35 29.47 31.43 29.13 31.78 29.04 31.95 28.96 32.2 28.79 32.46 28.79 32.63 28.7 32.8 28.62 32.97 28.53 33.23 28.53 33.31 28.36 33.66 28.19 33.83 28.19 34.17 28.19 34.42 28.27 35.11 28.27 35.28 27.93 35.53 28.02 36.13 28.02 36.65 28.02 36.82 28.27 37.07 28.27 37.33 28.19 37.76 28.27 38.01 28.62 38.7 28.7 38.95 28.87 39.04 28.79 39.38 25.8 44.33 25.63 44.33 25.46 44.16 25.28 43.99 25.2 43.82 25.03 43.65 24.94 43.39 24.77 43.22 24.69 43.14 24.6 42.8 24.52 42.62 24.34 42.45 24.34 42.11 24.17 41.94 23.92 41.43 23.83 41.26 23.83 41 23.75 40.83 23.66 40.83 23.66 40.75 23.58 40.49 23.41 40.06 23.41 39.89 23.49 39.72 23.41 39.63 23.32 39.29 23.23 39.12 23.15 38.95 23.23 38.78 23.23 38.44 23.23 38.27 22.98 37.84 23.06 37.76 23.15 37.58 23.06 37.33 22.98 36.99 22.98 36.82 22.98 36.65 22.98 36.47 22.98 36.22 22.98 36.05 23.06 35.96 23.06 35.79 22.98 35.11 22.98 34.94 23.15 34.68 23.32 34.51 23.32 34.08 23.32 33.91 23.32 33.74 23.41 33.48 23.49 33.23 23.66 33.06 23.66 32.97 23.75 32.8 23.75 32.54 23.75 32.37 23.83 32.2 23.92 31.86 24 31.86 24.09 31.69 24.17 31.52 24.17 31.26 24.26 31.09 24.34 31.01 24.52 30.92 24.6 30.75 24.69 30.58 24.69 30.41 24.77 30.24 24.86 30.15 25.03 29.9 25.11 29.81 25.28 29.64 25.46 29.47 25.37 29.3 25.54 28.96 25.71 28.79 25.8 28.7 25.97 28.53 26.05 28.44 26.05 28.27 26.14 27.93 26.31 27.85 26.48 27.76 26.57 27.59 26.65 27.59 26.65 27.33 26.82 27.16 26.99 27.08 27.33 26.82 27.42 26.74 27.51 26.48 27.59 26.39 27.68 26.22 27.93 26.14 28.1 25.97 28.36 25.8 28.53 25.71 28.62 25.54 28.7 25.37 28.96 25.03 29.3 24.94 29.56 24.77 29.81 24.69 30.07 24.52 30.32 24.43 31.09 24.43 31.26 24.34 31.61 24.09 31.95 23.92 32.37 23.83 32.8 23.66 32.97 23.58 33.57 23.58 33.91 23.58 34.42 23.58 34.51 23.49 34.6 23.4 35.19 23.4 35.88 23.4 36.3 23.4 37.07 23.4 37.93 23.4 38.95 23.49 39.46 23.49 40.15 23.58 40.4 23.75 40.57 23.92 40.83 24 41.09 24 41.43 24.26 41.68 24.34 42.03 24.34 42.28 24.43 42.54 24.52 42.71 24.69 43.05 24.86 43.05 24.94 43.14 25.11 43.22 25.2 43.48 25.28"/><polygon class="cls-1" points="37.5 29.13 33.57 31.86 33.14 32.12 32.89 32.29 32.54 32.63 29.3 38.35 29.21 38.27 28.96 37.67 28.87 37.41 28.7 36.99 28.7 36.65 28.79 36.05 28.7 35.79 28.79 35.45 28.87 35.11 28.79 34.85 28.7 34.59 28.96 34 28.96 33.83 29.13 33.74 29.21 33.14 29.38 32.89 29.56 32.54 29.64 32.2 29.73 31.95 29.98 31.69 30.15 31.43 30.49 31.09 30.75 30.84 31.18 30.41 31.43 30.07 31.69 29.98 32.03 29.9 32.2 29.81 32.29 29.64 32.46 29.47 32.63 29.47 32.8 29.38 33.06 29.21 33.14 29.04 33.31 29.04 33.66 28.96 34.08 28.79 34.34 28.62 34.51 28.62 35.11 28.62 35.71 28.62 36.05 28.53 36.22 28.62 36.65 28.79 36.82 28.87 37.16 28.87 37.41 29.04 37.5 29.13"/><path class="cls-1" d="M15.89,6.49l1.28-.85,1.62-.94.43-.17.34-.26.43-.09.26-.34.6-.17.51-.43.51-.26.77-.43.51-.17.09-.09.77-.09.34-.17.34-.26.6-.09.77-.43.77-.17.51-.17h.77l.6-.17.68-.26.43-.17h1.88l.68-.09.34-.09h1.2l1.62-.17,2.31.09.43.26h1.71l1.2.09.43.17.68.17.6.26.51.26.94-.09.68.26.51.26.85.09.68.17.6.09.43.17.34.26.43.17.34.17.68.17h.6l.43.26.26.26.26.09.77.26h.43l.43.26.68.34.43.26.43.26.26.43.34.17.43.26.26.17.51.17.26.26.43.26.43.17.43.34h.34l.43.6.77.6,1.11,1.11.85.68.34.17.77.68,1.03,1.11.6,1.03.26.26.17.26.17.51.43.43.34.43.6.85v.51l.26.43.34.17.34.51.17.34.43.6.26.51.17.34.34.34.09.43.34.26-.04.43.47.34.26.34.09.43.6,1.2.17.51.13.6.21.17.17.6.51,1.03.09.77.26.94.26.77.09.77.17.51.26.34.09,1.37.17.34.09,1.11.17.77-.09.51-.17,1.54.26,1.54-.17,1.37v1.03l-.09.68-.17.43.17.68-.17.77-.26.94-.26,2.05-.17,1.03-.43,1.62-.26.68-.34.85v.43l-.34.09-.09.26v.26l-.34.85-.68,1.37-.77,1.28-.34.43-.26.43-.6.77-.77,1.02-.43.68-.48.51-.24.6-.48.43-.26.6-1.37,1.45-1.11,1.11-1.11,1.2-1.37,1.28-2.14,1.54-.34.51-.51.34-.51.17-.17.26-.34.17-.43.43-.26.26-.51.09-.26.34h-.51l-.34.34-.85.17-.68.51-.43.09-.77.26-.6.51-.51.17-.26.09-.68.26-.77.17-.34.09-.51.26-.34.09-.26.17h-.34l-.43.26h-.68l-.51.17-.43.26-1.03.09h-.34l-.26.34-1.28-.09-.68.17h-.85l-1.11.09-.51.09-.34.26-2.56-.17h-2.05l-.34-.09-.85-.17h-.77l-.6-.17h-1.37l-1.11-.34-.51-.17-.43-.09-.6-.09-1.2-.34h-.77l-1.03-.09-.51-.34-.43-.09-.34-.09-.43-.09-.26-.26h-1.28l-.68-.43-.34-.17-.26-.17-.51-.26-.26-.26h-.34l-.43-.26-.43-.43-.43-.51-.51-.34-.34-.17-.34-.26-.6-.51-.43-.34-.34-.51-.51-.26-.26-.34-.51-.26-1.11-.94-.51-.51-.6-.68-.34-.17-.34-.17-.94-.94-.26-.43-.09-.34-.34-.43-.26-.17-.43-.26-.26-.68-.51-.85-.34-.51-.17-.43-.09-.6-.26-.34-.26-.43-.26-.51-.34-.43v-.43l-.34-.26-.09-.26-.26-.43-.26-.51.09-.34-.34-.51-.17-.6-.34-.47-.26-.56-.17-.43-.17-.68-.26-.26-.26-.77-.17-.77-.17-.51-.17-.51-.17-.34v-.6l-.17-.34-.26-.85v-.51l-.26-.77-.17-.94v-1.28l-.17-.17v-.34l-.26-.77v-1.28l-.17-.34v-.34l-.09-.94-.09-1.28v-2.56l.09-2.14.17-.43-.09-.43.17-.26v-.77l.17-.77.17-.6.09-.26.09-.6.09-.6.26-.43.09-.43.09-.26.17-.43.34-.68.43-.6.17-.34v-.51l.26-.26.26-.26.17-.34.43-.6.34-.34.09-.6.26-1.02.34-.85.34-.68.43-.77.26-.26.26-.6.43-.51.26-.51.43-.68.51-.34.17-.34.26-.51.68-.51.09-.43.26-.26.43-.6.6-.6.26-.34.51-.43.51-.51.6-.26.26-.34.26.09.17-.43.17-.09.51-.43.43-.34.51-.09.09-.26.6-.26.34-.34.17-.26.26-.09.26-.26ZM22.64,3.33l-.34.17h-.26l-.34.26-.34.26-.34.34-.94.17-.43.43-.68.34-.51.34-.77.51-1.2.6-.26.26-.43.17-.51.51-.51.51-.26.34-.6.17h-.26l-.51.6-.68.43-.51.26-.09.26-.17.51-.43.09-.6.43-1.03,1.02-.26.43-.43.17-.17.26-.34.68-.17.34-.17.51-.34.26-.26.43-.26.17-.17.34-.26.34-.26.26.09.34-.34.51-.26.43-.85,1.2-.17.68-.34.68-.09.6-.26.6-.6.43-.26.43-.09.26-.09.43-.26.43-.26.34v.43l-.43.51-.09.68-.26.34-.17.51-.26.51-.09.26-.17.43v.77l-.26.34-.09.94.09.6-.09.6-.17.26v.68l-.09.34-.17.51-.09,1.71v1.28l.17,2.39.17.34.17.26-.09.6.17.51.17,1.2.09.26v.34l.09.51.09.68-.09.77v.6l.26.34.17.68.09.51.17.26.09.6.17.85.26.43.17.26.09.51.26.6.26.6v.26l.26.6.26.68.17.43.26.6.34.17-.09.51.09.34.34.34.26.51.17.34.09.6.26.26.17.43.6.68.17.6.26.26.17.51.26.17.34.51.17.85.94,1.37,1.37,1.54,1.03.77.85.68.94.68v.51l.51.17.6.43.34.34.34.09.09.26.43.26.6.34.43.6.94.77.6.43.77.6,1.79.77.51.17,1.03.34.68.09.6.34,1.62.17.51.09.68.17,1.03.26.6.17.6.17,1.62.09.43.17,1.88.17,2.05.09,1.79.09,3.93-.26,1.62-.43.51-.09,1.45-.34h.77l.6-.09.6-.26.77-.09.6-.34,1.02-.26.34-.34h.68l.17-.09.43-.21.85-.3.6-.43.68-.34.6-.17.68-.26.34-.34.26-.26.43-.09.26-.17.6-.26.43-.51h.43l1.11-.68.17-.17.6-.43.6-.26.26-.26.34-.17.26-.34,1.03-.94.17-.26.43-.34.43-.34.26-.43.26-.17.17-.26.26-.43h.26l.17-.17.26-.51.68-.85.85-.68.51-.68.6-.85.26-.43.26-.6.43-.43.34-.26.17-.6.51-.77.26-.34.09-.6.34-.43.34-.43.26-.43.26-.43.6-.68-.17-.26.34-.34.09-.43.34-.43.17-.51.09-.43.26-.51.09-1.45.26-.26.26-.17-.09-.43.09-.51.17-.17v-.94l.26-.6.09-.34.09-.09.09-.68v-.68l-.09-.68.17-.68.09-.51.09-.77v-1.28l-.17-.85v-1.79l-.09-1.03v-.94l.09-.43.09-.43v-.51l-.34-.34-.09-.43.09-1.2v-.68l-.17-.43-.26-.43-.09-.51-.26-.85-.26-.43-.17-.43v-.68l-.51-.43-.43-.51-.09-.43-.09-.94-.34-.43v-.43l-.34-.6-.26-.26v-.51l-.34-.17-.17-.43-.43-.6-.26-.34v-.43l-.43-.77-.85-.68-.6-1.03-.34-.68-.17-.34-.94-1.37-.43-.26-.26-.6-.34-.43-.26-.34-.09-.34-.17-.26-.17-.26-.17-.26h-.43l-.6-.6-.85-.68-.51-.43-.43-.43-.77-.94-.51-.17-.34-.34-.43-.17-.26-.43h-.68l-.34-.43h-.6l-.34-.26-.26-.34h-.43l-.26-.17-.26-.34-.17-.17-.26-.09-.26-.26-.34-.26-.51-.17-.77-.43-1.03-.26-1.11-.34-.85-.43-.68-.17-.34-.34-.85-.09-.68-.34-1.03-.09-.77-.17-.68-.17-.94-.09-.17-.26-1.02-.17h-.17l-.6-.17-.6-.17-.94-.09-.85-.17-.34-.09h-.77l-.85.09-.43.09h-2.65l-.68.09-1.54.09-1.2.09-.34.26-.6.09h-1.02l-.6.26-.17.26-.34.26h-.94l-.43.26-.43.09-.43.17-.43.09h-.43l-.09.09-.51.26-.34.26Z"/><path class="cls-1" d="M35.79,32.29l.51-.09.6.09.26.17.17.09.43.17.17.09.26.26.26.17.17.09.17.34.17.26.17.26.17.26.09.26.09.6-.09.43-.17.34-.09.17-.17.17-.09.51-.09.09-.17.26-.09.17-.17.43-.17.09-.09.17-.17.26-.26.17-.34.17-.6.34-.77-.09-.26-.09-.34-.09-.51-.09-.26-.26-.34-.17-.26-.26-.09-.26-.34-.17-.26-.17-.09-.26-.09-.34-.17-.34-.17-.85v-.34l.17-.6.17-.43.09-.26.09-.26.17-.34.26-.26.09-.17.43-.34.34-.09.43-.17.43-.09h.34ZM35.79,34.77h-.17l-.17.09-.26.43-.09.43v.17l.09.26.34.09.26.26.09.09.26.09.34-.09h.09l.17-.17.17-.17.26-.17v-.51l-.09-.26-.09-.09-.09-.17-.17-.09-.17-.17-.34-.09h-.17l-.26.09Z"/><path class="cls-1" d="M34.25,3.5l.85-.17,1.11-.17h.94l.85.17.94.09h.51l.68.17.68.09h.17l1.54.51.77-.09.77.34h1.71l.68.26.43.26.68.34.94.26.51.43.6.09.43.09.26.43h.51l.34.43.17.09.77.34.34.26.6.09.34.26.34.26.6.34.43.17.34.34h.43l.34.34.34.26.34.17.26.17,1.11,1.11.17.26.51.09.34.34.6.26.6.77.77.51.43.43.17.6.51.26.51.68.43.17.26.26.09.26.34.34.43.6.17.34.51.6.34.43v.43l.09.34.26.17.26.51.6.51.09.43.26.34.26.34v.6l.26.51.26.51.17.43.17.43.26.43.17.17v.85l.26.43.34.34v.94l.17.43.09.17v1.11l.09.34.09.94.17.26.17.68-.09.77.26.51.17.34v3.93l-.26.17-.09.34.09.34.17.26.17.77v1.45l-.09.85v.43l-.26.34v1.11l.09.43-.26.43-.17.6-.09.6-.17.51-.26.26v.77l-.17.6-.26.34-.26.43-.26.43-.09.34.09.43-.26.26-.43.51-.09.68-.85,1.45-.17.51-.17.43-.34.43-.43.68-.51.6v.43l-.26.17-.17.51-.77.51-.77,1.28-.17.43-.26.26-.26.43-.26.43-2.39,2.22-.51.6-.34.17-.51.34-1.03.94-.34.34-.43.09-.34.34-.34.34-.51.34-.26-.17-.17.34-.17.26-.68.17-.77.51-.09.17-.26.17-.26-.09-.26.43h-.85v.51l-.34-.09h-.34l-.34.26-.43.17h-.34l-.26.34-.17.17-.43-.09-.34.26-.34.09-.6.26-.6.26-.43.26-.6.26-.34.09-.68.26h-1.02l-.43.17-.26.26-.51.09-.43.17-.34.09-.34.17-.68-.09-1.28.26h-1.79l-.34-.09-.34-.09h-1.71l-2.22.09-.68-.09h-2.56l-.51-.17-.34-.26-.68-.17-.51-.26h-.34l-.34-.17-.43-.17-.17-.09-.6-.09-.34.09-.68-.34-.94-.43-.51-.26-.6-.26-.43-.26-.94-.43-.51-.17-.43-.17-.51-.26-.43-.43-.51-.43-.68-.09v-.51h-.6l-.26-.34-.77-.26-.43-.43-.26-.34-.26-.6-1.37-1.11-1.54-1.62-1.11-1.2-.6-.85-.51-.77-.51-.51-.26-.51-.6-.6-.43-.68-.43-.85-.26-.34-.51-.68-.26-.68-.17-.43-.34-1.03-1.28-2.48-.51-.68-.17-.6-.09-.34-.17-.34v-.68l-.26-.6v-.85l-.26-1.45-.17-.51-.26-.94-.09-1.03-.26-4.53-.09-1.96.26-1.54.17-.68.09-.43v-.68l-.26-.68.26-1.71.34-.6v-.68l.17-.51.43-.85.17-.6.17-.43.6-.68.34-.77v-.34l.17-.43.17-.77.34-.26.17-.6,1.28-1.88.17-.6.26-.51.51-.6.68-.85.51-.43.6-.6,1.02-1.37.26-.43.09-.26,2.39-2.22.85-.77,1.62-1.2.43-.17.34-.26,1.28-.68.43-.17.43-.43.77-.34.51-.51.85-.17.77-.51.43-.17.6-.26.51-.34.6-.26h.68l1.02-.34.68-.26.94-.17.34-.17,1.2-.09h1.11l.77-.17.17-.17.85.09h1.02l.51-.09ZM26.57,5.81l-.68.26-.43.17-1.03.26-.85.34-.68.43-.85.34-.68.43-.85.17-.94.77-.94.68-1.11.77-.68.51-.51.51-1.11.68-1.02,1.11-.94.85-1.54,1.62-.17.34-.34.85-.68,1.03-.68,1.03-.43.6-.26.51-.6,1.03-.77.85-.43.94-.26.6-.51.94-.94,2.22-.09.43-.17.34-.09.6-.17.51-.43.68.09,1.11-.09,2.73-.17.26.09.26.09.34-.34.6.09,1.71v1.03l.17.34.09,4.01.09.43.09.68.34.51v1.45l.26.51.26.94.26.51.43.85.34.51.17.68.26.43.51.94.17.68.26.51.43.51.43.77.34.77.34.68.09.51.34.51,1.11,1.11-.09.26.34.43.51.6v.43l.6.51.26.26.17.6.94.94.6.68.43.34.51.34.51.6.68.68.6.26.6.6.51.26.43.26.77.68.51.43.43.51.68.09.34.26.77.26,1.2.43.68.34.51.17.6.34.68.09.51.34h.34l.51.17.77.26.85.09.34.26.6.17.26.17h.77l1.96.09,1.11.26,1.02-.34h2.9l.94.09.77-.09.51-.26.68.09h.94l.6-.43.85-.09.43-.26h.34l.77-.26.26-.26.34.09.68-.26.6-.09.43-.6.6-.09.68-.43h.34l.26-.09.34-.09.34.09.68-.51.34-.34.34.09.26-.17h.34l.6-.34.34-.34h.17l.77-.68.26-.09.43-.17.34-.26h.43l.6-.51.43-.43.77-.77.6-.43.34-.26.85-.51.43-.43,1.71-1.96.17-.26.26-.51.51-.68.77-.6.26-.34.17-.51.26-.26.34-.68.34-.34.17-.34.43-.77.43-.43.09-.51.17-.17.43-.68.34-.94.51-.68.6-1.45.09-.51.09-.51.34-.17.34-.94.17-.43.17-.43.17-.51.17-.51v-1.79l.09-.68-.09-.94.09-1.11.17-1.11-.09-.77-.09-.51.09-.85-.26-.6-.17-.68.17-1.45-.17-.34-.26-.43v-.85l-.09-.6-.09-.85v-.68l-.26-.26.09-.77-.26-.77-.17-.43-.43-.77v-.85l.09-.43-.51-.51v-.43l-.09-.43-.09-.85-.6-.94-.09-.26-.26-.26.17-.34-.51-.34v-.6l-.43-.34-.26-.34-.09-.51-.26-.26-.43-.34-.17-.43-.26-.51-.68-.26-.09-.68-.43-.26-.34-.34-.26-.51-.26-.68-1.11-1.11-.51-.51-.85-.6-.51-.26-.68-.6-1.11-.85-1.11-.51-.77-.51-1.11-.77-.51-.43-.17-.34-.26-.09-.6-.17-1.03-.43-.85-.6-.6-.09-.34-.26-.6-.09-.34-.26.09-.09-.85-.17-.6-.51-.77.34-.68-.51-.94-.17-.34-.17-.77-.26-.51-.09-.51-.26h-2.05l-.17-.26-3.08-.09-3.25.09-.85.09-.51.26-1.11.17h-1.37l-.77.34-.26.17-1.03.17-.94.17Z"/><path class="cls-1" d="M26.65,7.94l.68-.43h.68l.6-.34.26-.17h1.03l.77-.43h.94l.85.17.94-.09.68-.26,1.11-.09h6.32l.43.17.51.26.68.09.26.34h.94l.43.09.09.34.77.09.77.34.51.17.26.34.6.09.43.43h.43l.6.43.17.26h.34l.34.34.6.17.17.26h.17l.34.43.6.09.34.17.09.26,1.2.85.34.09.26.26.51.43.43.26.26.26.51.17.34.43.51.43.26.17.34.43.43.34.34.51,1.02.85.6.77.51.51.34.51.34.68.26.43.26.26.34.51.26.6.51.34.34.94.85,1.71.34.51.17.43.51.77.26.77v.77l.34.6.17.77.17.51.09,1.03-.09.68.17.43.34.43-.09.51.09,1.03.17.68.09.34.09.51.09.94v4.53l-.17.43-.09.34.09,1.37-.34.34.09.51-.17.68-.34.34.09.34-.26.43-.09.77-.34.51-.43.51-.26.85-.26.43-.34.43-.34.51-.51.77-.34.77-.43.34-.09.43-.34.34-.51.51-.17.34-.09.51-.6.43-.34.34-.09.34-.77,1.2-.34.43-.26.26-.34.68-1.28,1.03-.09.34-.09.26-.26.17-.34.34h-.51l-.68.77-.26.17-.51.6-.51.17-.51.17-.34.17-1.28,1.37-.6.51-.68.26-.6.26-1.03.09-.26.51-.51-.09-.43.09-.43.34-.6.09-.26.34-.77-.17-.68.68h-.51l-.68.17-.77.26-.34.26h-.51l-.77.43-2.22.09-.85.34-1.28-.17-.43.26-2.05-.09-1.28-.09-1.03-.26-.26-.09-.94-.17-.51-.17-1.02.09-.51-.26-.94-.09-.26-.34-1.37-.26-.77-.26-1.2-.51-1.88-1.11-1.28-.94-.94-.68-.51-.51-1.2-.77-.34-.43-.51-.43-.43-.34-.26-.34-.17-.34-.43-.26-.6-.17-.68-.77-.34-.34-.26-.17-.17-.34-.34-.34-.34-.17-.17-.43-.26-.34-.09-.43-.34-.34-.51-.34-.26-.43v-.34l-.51-.26-.26-.51v-.34l-.17-.43-.34-.17-.09-.43-.17-.26-.09-.34-.09-.17-.26-.26-1.11-1.79-.17-.26-.26-.51v-.34l-.09-.43-.17-.51-.09-.43v-.34l-.34-.34-.09-.43v-.51l-.34-.6-.09-.51.09-.43-.17-.6-.26-.26-.09-.34v-1.71l-.09-.34-.17-.26-.09-4.19.26-.17.09-.68v-1.45l.34-.6.17-.77.17-.68.17-.85.26-.51.09-.34.17-.26-.17-.77.17-.68.34-.51.26-.34.17-.51v-.6l.09-.43.34-.43.09-.26.09-.43.26-.34.51-.26.26-.43.09-.51.17-.68.51-.77.26-.26.26-.09.09-.43v-.26l.43-.34.17-.34.26-.6.43-.43.26-.43.26-.26.34-.43.6-.34.51-.6.43-.68.26-.34,2.22-1.79.85-.6.6-.77.6-.43.77-.43,1.2-.6.77-.51.26-.51h.43l.68-.09.17-.51.51-.09.26-.34.17-.09h.51l.17-.34h.6ZM33.06,8.11l-.85.26h-.77l-.77.09-.68.51-.94.17-.26.17-.51.09-.34.34-1.11.09-.6.26-.6.17-.68.43-.68.34-.17.26-.6.17-.34.17-.6.68-1.28.94-.6.51-.77.51-.51.26-.94.68-.94.77-.85,1.03-.94.94-.51.85-.43.77-.6.85-.51.77-.34.43-.94,1.03-.77,1.62v.51l-.26.77-.26.43-.09.51-.77.68-.34.6-.09.85-.17.43-.26,1.71-.26.43-.09,1.2v4.36l-.17.43-.09.34v.77l.17.6-.17.51-.17.17.26.85.17.34v2.05l.17.51.26,1.2v.68l.26.43.34.68.26.68.34.51.17.6.26.68.26.34.43.6.26.77.26.34.51.51.6.85.51.94.43.6,1.2,1.79.6.51.6.43.94.51.51.77.34.6,1.2,1.2.51.43.77.34.94.77.85.6,1.2.43.85.34,1.03.26,1.71.6.77.17,1.11.09.34.26.6.17.6.17.85.26.43.26.94.17,1.37.09,1.37.26,1.88-.09.68-.09,1.54-.34.43-.26.6.09,1.45-.6.43-.51,1.37.09.17-.34.51-.09h.6l.51-.34.68-.26.17-.26.26-.09h1.11l.6-.34.85-.43.26-.26h.34l.43-.17.09-.51.34-.17.26-.26.43-.51.34-.09.77-.43.68-.77.6-.26.34-.43.34-.43.6-.6.09-.17.51-.6.43-.34,1.03-1.03.34-.34.34-.43.34-.34.43-.6.26-.26.34-.34.26-.51.6-1.03.26-.17.34-.43.09-.34.51-.68.09-.51.26-.6.26-.34.26-.26.09-.43.09-.34.43-.94.34-.26-.09-.51.17-.77.34-.51.09-1.11v-1.2l.09-.77.17-1.71.09-.51-.09-1.11v-2.05l-.26-1.03v-2.05l-.09-.26-.26-.77v-1.71l-.17-.6-.09-.68-.51-.77-.26-.6-.17-.51-.26-.43-.51-.85-.43-.94-.51-1.02-.51-.77-.68-1.03-.43-.68-.77-.85-.51-.6-1.03-1.02-.68-.51-.6-.94-.51-.77-.51-.43-.43-.26-.51-.34-.94-.68-.77-.34-.43-.34-.34-.34-.51-.17-.68-.51-.51-.43-.68-.26-.94-.43-.6-.68-.43-.09-.51-.17-.26-.17-.68-.17-.26-.34h-.85l-.43-.26-.43-.17-.77-.09-.51-.17-.43-.26h-3.08l-.43-.34h-3.33l-.43.17h-.51l-.85-.17Z"/><path class="cls-1" d="M36.47,9.4l.51.43.68-.17.85-.09.85.09,1.54.17.85.26,1.2.17,1.11.34.26.17,1.28.43.6.34,1.11.85,1.11.43,1.11.6.77.51.77.6,1.37.77.6.68,1.88,1.45.94.43.51.68.26.51.34.85.68.34.68.6.94,1.28v.68l.6.94.51.51.43.77.17.34-.17.51.43,1.37.6,1.2.43,1.28.26.77.17,2.82v1.96l-.26,1.88v2.56l-.34,1.2-.09,1.79-.34,1.37-.34,1.54-1.03,2.65-.51,1.45-.77,1.2-.68,1.11-.51.94-.94.85-.43.43-1.2.85-1.45,1.11-.34.26-1.28,1.37-1.2.77-1.11.77-.85.6-2.99,1.28-.94.43-1.2.68-.94.26h-1.11l-.94.17-.43.51h-1.11l-3.76.09-1.88-.09-1.96-.17-1.2-.26-1.11-.43-1.96-.68-1.45-.68-1.88-.77-1.11-.43-.51-.17-.34-.43-.34-.17-.51-.26-.34-.34-.77-.34-.6-.68-1.03-.77-.94-.85-1.11-.77-.68-.94-.68-1.11-.77-.77-.43-.68-.51-.77-.43-.6-.43-.51-.34-.85-.43-.94-.6-1.2-.26-.6-.51-.85-.09-.68-.09-1.11-.17-.51-.17-.68-.09-1.28-.17-.34-.17-2.48.26-1.11v-1.02l.17-.77v-2.9l.26-.68.26-.6.09-.77.43-.51v-.94l.34-.68.17-.34.85-1.79.34-.68.43-1.03.6-.68.51-.77.17-.6,1.11-1.79.94-1.03,1.11-1.2.68-.68.34-.6.77-.68.94-.68.94-.85.85-.68.68-.51.51-.34h.09l.85-.43.94-.6,1.11-.51.85-.51.85-.26.94-.43.6-.43h3.08l.85-.26.6-.26.34.09.26.17h.6l.34-.09.34-.17.51-.17ZM27.33,13.67l-.43.09-.26.26-.43.26-.68.43-.6.26-.51.34-.51.09-.85.6-.43.43-.94.85-.68.6-1.02.85-.43.51-.43.77-.77.85-1.45,1.71-.34.34-.17.43-.51.68-.51,1.03-.34.77-.34.94-.94,1.62-.6.94-.17.6-.26.77-.17.51-.51,1.62v1.54l.09.94-.34,1.37-.17.77v2.31l.17.6.26.43v.51l.34,1.37.09,1.71.17.51.34,1.03.6,1.28.85,1.54,1.79,2.9.68.43,1.37,1.54,1.88,1.71,1.28.51.6.51.94.43,1.96,1.2.85.26.68.17.85.51,1.03.26,1.54.68.85.26.68.26.94.34.51.09.51.09,1.2.09,1.2-.17h1.02l1.54.09.6-.09h1.54l1.71-.34.6-.17.94-.68,1.11-.34.94-.26.6-.34,1.2-.51.94-.68,1.02-.6.85-.68.77-.6.85-.51.77-.77.51-.6.85-.51.51-.34,1.54-1.54.43-.6.26-.77.68-.85.34-.6.17-.51.51-1.71.26-.34.17-.6.17-.68.26-.85.85-2.48.09-.94.34-5.21-.09-3.33-.43-.94-.26-.6-.26-1.02-.34-1.28-.51-1.88-.51-.43-.43-.68-.51-.77-.6-1.45-.43-.51-.6-.6-1.37-1.79-.6-.34-.6-.51-1.2-1.11-.77-.68-1.45-.85-1.54-.85-1.54-1.11-.51-.17-.68-.34-.51-.51-1.54-.34-.85-.26-.85-.43-1.28-.26-.6-.17h-1.02l-1.03-.26-.6-.17h-1.37l-.68.09-1.03.26-.68.34-.94.17-1.2.09-1.11-.09-.6.43-2.31.94Z"/><path class="cls-1" d="M30.84,13.24l.77-.09h.85l1.03-.26h.68l.94-.17.51-.26,1.37-.17.51.09.94.26.51.17.77.26h1.11l.43.17.17.17.68.17.26.17.68.17.6.09.17.26.85.17.09.09.09.26.34.09h.43l.17.09.77.34.6.26.26.26.34.09.6.51.68.34.17.09.51.26.26.26.34.26.51.09.43.51.6.43.26.43.34.17.34.26.43.43.34.26.34.17.34.43.6.77.17.34.34.34.26.43.85.68.09.6v.34l.51.6.09.43.17.43.26.77.34.77.17.34.34,1.45.51.68-.09.34.26.94v.43l.43.51v.94l.17.77.09.94.09.77-.09.77.09.77v.51l-.09.26-.34.85v.34l-.09.77v.6l-.17.68-.17.26-.17.94-.26.51-.09.68-.34,1.03v1.02l-.77,1.03-.26.51-.34.51-.34.43-.51.77-.51.51-.34.6-.43.17-.51.68-.43.34-.34.43-.77.85-.34.43-.94.94-.94.6-.34.34-.34.43-.51.51-.43.17-.94.51-.43.26-.68.51-.68.26-.6.17-.77.26-.51.17-.94.43-.94.51-.68.26-1.54.26-.51.09-.77.26-1.03.26-.6-.09-.43-.17h-.43l-.6.09-.34.17h-.94l-.68-.09-.68-.17-.34-.26-.68-.09-.43-.26-.51-.09h-.77l-.68-.17-.6-.17-.68-.26-.43-.26-.51-.34-1.37-.68-.43-.34-.09-.17-.34-.43-.51-.17-.43-.17-.51-.34-.43-.26-.77-.09-.17-.26-.85-.43h-.43l-.43-.26-.85-1.02-.6-.17-.09-.34-.34-.51-.77-.6-.34-.43-.09-.26-.6-1.11-.34-.17-.26-.26-.34-.43-.17-.26-.09-.51-.17-.34-.34-.34-.34-.6-.17-.26-.17-.6h-.34l-.17-.34-.26-.34v-.6l-.09-.26-.09-.68.09-.26-.09-.34-.09-.34-.34-1.11-.17-.43v-.68l.34-.34-.17-.34-.17-.43v-2.14l-.09-.26-.09-.26.09-.51.09-.43v-.34l.09-1.54-.09-.26.09-.34.26-.68.09-.51-.09-.43.26-.17.17-.43.09-.34v-.34l.17-.09.43-1.03-.09-.17.17-.51.34-.51.17-.43v-.26l.51-.6.43-.77.77-1.28.26-.09.34-.51.17-.43.26-.43.34-.34.26-.26.09-.43.26-.6.34-.34.26.09.26-.51.09-.26.26-.51h.26l.17-.26.85-.77.17-.26.34-.26.43-.43.43-.34h.43l.26-.34v-.09l.43-.43.51-.34.09-.17h.43l.34-.26.17-.26.09-.09.17-.17.26-.09.34-.17.17-.17.26-.26h.43l.43-.34.26-.17.17-.17.43-.17h.26l.17-.34.6-.09.34-.09.17-.17.26-.17.43.09.34-.17ZM39.04,16.91l-.26-.09-.17-.09h-.34l-.26-.09-.26-.26h-.68l-.17-.09-.51-.17h-.34l-.43.17h-1.79l-.43.26-.26.26-.68-.09-.34.09-.68.09h-.26l-.43.26-.43.09-.17.09-.09.17h-.77l-.34.09-.34.34h-.43l-.34.34-.94.43-.51.26-.43.34-.26.26-.17.17-.85.51-.51.17-.26.17-.34.51h-.17l-.26.34-.09.17-.43.51-.34.43-.17-.09-.17.26-.09.34-.09.17-.51.34-.17.43-.17.51-.51.43-.34.17-.34.6-.26.43-.17.26-.17.51-.09.26-.34.34-.26.43-.17.34-.17.68-.43.51v.26l-.09.51-.43.43-.09.34-.17.43-.17.26-.09.34-.17.51v.68l-.09.17-.34.6v.6l-.09.6-.09.51v1.11l-.09.85v2.05l.51.6-.09.17.09.26.17.26v.26l.09.34.09.26v.43l.09.34.17.34v.94l.26.34.26.17.17.26.17.51.34.34.26.34.09.6.6.34.26.85.43.43.43.43.17.34.09.34.34.26.17.17.26.17.51.34v.17l-.17.51.09.34.09.43.34-.09.43-.17.26-.17.34.09.43.34.43.26.6.34.6.34.34.17.43.26.77.43.26.17.26.09.26.34.68.09.26.26.34.26,1.11.51.6.17h1.03l.51.09.85.09h.26l.6.34.51.09h.6l.6-.09.34-.09h1.11l.34-.09h.6l.68.09h.6l1.96-.26.17-.09.51-.17.43-.09h.34l.51-.34.34-.09.17-.26.26-.09.51-.26.94-.34.43-.26.34-.17.77-.17,1.28-1.11.34-.17.26-.26.26-.34,1.03-.77.26-.43.85-.94.09-.43.43-.43.51-.51.43-.51.51-.43.26-.34.34-.43.77-.94.17-.26.26-.6.17-.34.26-.43.09-.43.26-1.2.09-.26.34-.09.26-.17v-1.11l.09-.34.17-.43.09-.51v-2.31l.17-1.45-.09-.26-.34-.43.17-.6-.17-.34-.17-.17v-1.28l-.09-.09-.26-.77-.26-.43.17-.17-.09-.09-.26-.17-.26-.6-.09-.51v-.26l-.26-.09-.26-.6v-.6l-.17-.34-.17-.17-.17-.68-.26-.68-.17-.34-.43-.26-.26-.43-.17-.34-.09-.09-.17-.34-.34-.34-.17-.17-.09-.17-.26-.34-.09-.17-.34-.09-.43-.85-.34-.26-.26-.26.26-.77.09-.51h-.26l-.34.09-.43.26-.26-.09-.68-.26-.26-.26-.17-.17h-.34l-.26-.17-.09-.17-.17-.09h-.17l-.34-.17-.09-.17h-.17l-.43-.09-.17-.26-.09-.09-.51-.17-.34-.09-.26-.34h-.51l-.34-.09h-.34l-.26-.09-.17-.26h-.26l-.34-.09-.26-.17-.34-.09-.34.09-.43-.09h-.09l-.51-.09-.26-.26-.6.09h-.6Z"/><polygon class="cls-1" points="49.37 22.64 49.8 23.06 50.14 23.32 50.74 23.58 50.74 23.92 50.91 24.34 51.17 24.52 51.42 24.86 51.94 25.37 52.19 25.54 52.45 26.31 52.79 26.74 53.13 26.91 53.05 27.25 53.22 27.76 53.47 28.27 53.47 28.53 53.64 28.87 53.81 29.21 53.9 29.56 53.99 29.9 54.07 30.24 54.33 30.32 54.24 30.84 54.41 31.01 54.5 31.26 54.5 31.61 54.58 31.78 54.75 32.12 54.84 32.2 54.92 32.89 54.84 33.23 55.01 33.48 55.1 33.74 55.01 34.25 55.18 34.51 55.27 34.59 55.35 36.3 55.35 36.65 55.27 36.9 55.27 37.58 55.44 38.1 55.27 38.52 55.35 38.78 55.27 39.04 55.18 39.29 55.01 39.55 55.18 39.72 55.27 40.23 55.1 40.83 54.84 41.09 54.67 41.68 54.5 42.03 54.41 42.2 54.41 42.54 54.24 42.71 54.07 42.8 53.47 43.31 53.47 43.73 53.47 43.91 53.3 44.16 53.05 44.42 53.05 44.59 52.96 44.76 52.87 44.85 52.62 45.02 52.53 45.27 52.28 45.61 52.28 46.04 52.11 46.3 51.94 46.64 51.51 47.07 51.34 47.32 51 47.92 50.91 48.01 50.65 48.26 50.23 48.43 49.8 48.86 49.37 49.2 49.03 49.46 48.69 49.89 48.09 50.14 47.75 50.4 47.49 51 47.24 51.17 46.98 51.42 45.36 52.36 45.02 52.53 44.85 52.87 44.5 53.05 44.25 53.13 43.82 53.47 43.39 53.47 43.14 53.73 42.8 53.9 42.45 53.9 42.11 54.41 41.26 54.41 40.75 54.5 40.23 54.5 39.89 54.58 39.72 54.75 39.21 54.84 37.24 54.92 35.36 54.67 34.34 54.84 34.17 54.67 33.91 54.5 32.63 54.41 32.37 54.33 32.03 54.24 31.78 54.16 31.43 54.07 31.01 53.9 30.75 53.64 30.49 53.64 30.24 53.64 29.64 53.39 29.21 53.22 28.96 53.22 28.62 53.05 28.44 52.87 28.19 52.79 27.68 52.7 27.51 52.53 27.08 52.53 26.91 52.45 26.91 52.36 26.57 52.02 26.31 52.02 25.8 51.94 25.28 51.59 24.77 51.34 24.34 51.08 24.26 50.91 24.09 50.74 23.75 50.65 23.58 50.48 23.92 50.14 26.99 47.49 27.59 47.58 28.02 47.83 28.27 48.01 28.62 47.92 28.87 48.09 28.96 48.26 29.38 48.35 29.56 48.43 29.81 48.6 30.07 48.69 30.58 48.69 30.75 48.77 31.18 49.03 31.43 49.12 32.2 49.2 33.14 49.2 33.66 49.29 34.42 49.29 34.51 49.46 34.77 49.63 36.13 49.71 36.82 49.63 37.5 49.71 39.12 49.71 39.81 49.54 40.4 49.54 40.75 49.29 41.17 49.12 41.6 49.03 41.77 48.77 42.11 48.69 42.45 48.52 42.54 48.43 42.71 48.35 42.88 48.35 43.14 48.18 43.31 48.01 43.48 47.83 43.65 47.75 43.82 47.49 43.91 47.49 45.02 46.55 45.36 46.21 45.78 45.78 45.96 45.61 46.47 45.02 46.9 44.5 47.07 44.42 47.24 43.99 47.41 43.82 47.58 43.31 47.75 43.14 48.09 43.14 48.09 42.8 48.09 42.62 48.52 42.28 48.6 41.86 48.86 41.94 48.86 41.51 48.86 41.17 49.2 40.66 49.37 40.32 49.46 39.98 49.54 39.72 49.71 39.55 49.71 39.21 49.8 38.7 50.06 38.35 50.14 38.1 50.06 37.76 50.14 36.47 50.4 35.79 50.23 35.53 50.14 35.28 50.06 34.85 49.89 34.51 49.8 33.83 49.89 33.14 49.89 32.89 49.71 32.63 49.54 32.46 49.46 32.03 49.37 31.78 49.46 31.52 49.12 30.15 49.03 29.81 48.77 29.3 48.01 28.19 47.84 27.68 47.75 27.51 47.49 27.42 47.41 27.25 47.24 27.16 46.98 26.91 46.72 26.65 49.37 22.64"/><polygon class="cls-1" points="46.04 27.59 46.3 27.76 46.47 27.85 46.55 28.19 46.98 28.36 46.98 28.53 47.07 28.79 47.32 29.04 47.58 29.38 47.49 29.64 47.92 29.98 47.92 30.07 47.84 30.32 48.09 30.67 48.26 30.75 48.26 31.26 48.26 31.69 48.52 31.86 48.69 32.2 48.6 32.46 48.77 32.72 48.69 32.97 48.69 33.14 48.86 33.31 49.03 33.57 49.03 34 49.03 34.85 48.77 35.36 49.03 35.53 49.2 35.71 49.37 36.39 49.29 37.07 49.12 37.16 49.12 37.33 48.95 37.76 49.03 38.35 48.95 38.78 48.86 39.12 48.69 39.21 48.69 39.46 48.52 39.89 48.35 40.15 48.18 40.4 48.18 40.66 48.35 41 48.09 41.43 47.84 41.43 47.58 41.6 47.58 41.94 47.41 42.37 47.24 42.45 47.07 42.97 46.72 43.31 46.38 43.73 46.3 43.99 46.21 44.16 46.04 44.25 45.96 44.25 45.7 44.42 45.61 44.85 45.36 45.02 45.27 45.02 45.1 45.19 44.85 45.36 44.76 45.7 44.67 45.7 44.5 45.78 44.16 46.21 43.82 46.47 43.56 46.64 43.39 46.64 43.31 46.81 43.22 46.98 42.97 47.07 42.88 47.07 42.71 47.15 42.62 47.24 42.37 47.24 42.2 47.32 42.03 47.58 41.77 47.83 41.6 48.01 41.51 48.09 41.34 48.09 41.17 48.09 41 48.18 40.83 48.43 40.75 48.52 40.57 48.6 40.4 48.52 40.15 48.6 40.06 48.6 39.81 48.95 39.72 48.95 39.55 48.95 38.52 48.95 37.93 48.86 37.41 48.95 36.65 48.86 36.39 48.95 35.79 48.95 35.45 48.86 35.28 48.77 35.11 48.6 34.94 48.52 34.85 48.52 34.34 48.6 33.91 48.52 33.66 48.52 33.06 48.52 32.54 48.52 32.29 48.43 32.2 48.35 32.03 48.26 31.52 48.26 31.35 48.18 31.09 48.09 30.84 48.09 30.67 48.01 30.49 47.83 30.07 47.75 29.73 47.66 29.56 47.58 29.3 47.49 29.13 47.32 28.96 47.15 28.7 47.07 28.44 46.98 27.93 46.81 33.91 42.97 34.25 43.14 34.6 43.31 34.85 43.31 34.94 43.39 35.11 43.56 35.45 43.56 36.05 43.56 36.73 43.48 36.99 43.39 37.24 43.22 37.5 43.14 37.58 43.14 37.93 43.31 38.27 43.22 38.35 43.22 38.7 43.14 38.95 42.8 39.12 42.71 39.38 42.62 39.63 42.45 39.72 42.37 39.89 42.28 40.15 42.28 40.32 42.11 40.4 41.86 40.66 41.68 40.75 41.6 40.75 41.51 40.92 41.34 41.34 41.09 41.6 40.83 41.77 40.66 41.86 40.4 41.94 40.32 42.11 40.15 42.37 40.06 42.45 39.98 42.45 39.72 42.45 39.55 42.88 38.95 42.97 38.61 42.97 38.44 42.97 38.27 43.14 38.1 43.22 37.93 43.22 37.76 43.31 37.24 43.39 36.99 43.31 36.82 43.31 36.65 43.22 36.39 43.22 36.05 43.22 35.96 43.31 35.62 43.31 35.28 43.31 35.02 43.31 34.85 43.22 34.42 43.22 34.17 43.22 34 43.05 33.74 42.97 33.66 42.71 33.4 42.71 33.31 46.04 27.59"/><polygon class="cls-1" points="42.28 33.91 42.28 34.17 42.37 34.51 42.45 34.68 42.54 34.77 42.62 35.11 42.62 35.28 42.71 35.45 42.71 35.71 42.62 36.13 42.62 36.73 42.54 37.16 42.37 37.41 42.37 37.76 42.2 38.27 42.03 38.61 41.86 38.78 41.68 38.95 41.77 39.12 41.77 39.21 41.6 39.38 41.51 39.46 41.34 39.63 41.17 39.98 41.09 40.23 41.09 40.4 40.92 40.57 40.75 40.57 40.4 40.83 40.23 41.09 40.15 41.26 40.06 41.26 39.81 41.26 39.72 41.43 39.63 41.51 39.46 41.68 39.21 41.68 39.04 41.86 38.95 42.03 38.7 42.11 38.35 42.2 37.93 42.37 37.76 42.62 37.58 42.62 37.07 42.88 36.82 42.8 36.56 42.8 36.39 42.8 36.13 42.8 36.05 42.71 35.88 42.62 35.62 42.54 35.45 42.54 35.36 42.54 35.02 42.37 34.85 42.28 39.46 38.87 39.72 38.61 39.89 38.35 40.06 38.01 42.28 33.91"/></g></svg>