<?xml version="1.0" encoding="UTF-8"?><svg id="Layer_2" xmlns="http://www.w3.org/2000/svg" viewBox="0 0 16.64 19.49"><defs><style>.cls-1{fill:#333;}</style></defs><g id="_アイコン"><path class="cls-1" d="M15.04,10.98l-4.74-1.56c0-.35.1-.72.12-1.06.11-2.3-.8-4.31.36-6.57,1.13-2.21,3.63-2.41,5.02-.33,1.78,2.67.33,6.82-.76,9.52Z"/><path class="cls-1" d="M5.1,5.13c1.24,1.21,1.44,3.23,1.32,4.86-.04.55-.19,1.09-.23,1.63-.04.73.04,1.46.15,2.18l-4.73,1.52c-.18-.36-.33-.74-.47-1.12-.97-2.51-1.99-6.62.04-8.84,1.06-1.16,2.76-1.38,3.93-.23Z"/><path class="cls-1" d="M14.43,12.27c-.41,1.21-1.12,2.68-2.57,2.82-2.31.22-2.49-2.65-1.88-4.23l4.45,1.41Z"/><path class="cls-1" d="M3.24,18.61c-.51-.57-.77-1.24-1.05-1.94l4.45-1.47c.37,1.22.59,3-.53,3.89-.94.75-2.14.33-2.87-.49Z"/></g></svg>