<?xml version="1.0" encoding="UTF-8"?><svg id="Layer_2" xmlns="http://www.w3.org/2000/svg" viewBox="0 0 13.24 15.42"><defs><style>.cls-1{fill:none;stroke:#333;stroke-miterlimit:10;stroke-width:.5px;}</style></defs><g id="_アイコン"><path class="cls-1" d="M11.76,8.65l-3.62-1.19c0-.27.08-.55.09-.81.08-1.76-.61-3.3.28-5.03.87-1.7,2.78-1.85,3.84-.25,1.36,2.04.25,5.22-.58,7.29Z"/><path class="cls-1" d="M4.15,4.18c.95.93,1.11,2.47,1.01,3.72-.03.42-.15.83-.17,1.25-.03.56.03,1.12.11,1.67l-3.62,1.17c-.14-.28-.25-.57-.36-.86-.74-1.92-1.52-5.07.03-6.77.81-.89,2.11-1.06,3.01-.18Z"/><path class="cls-1" d="M11.29,9.64c-.32.92-.86,2.05-1.96,2.16-1.77.17-1.9-2.03-1.44-3.23l3.41,1.08Z"/><path class="cls-1" d="M2.73,14.5c-.39-.43-.59-.95-.8-1.48l3.41-1.12c.28.94.45,2.3-.41,2.98-.72.58-1.64.25-2.2-.37Z"/></g></svg>