<?xml version="1.0" encoding="UTF-8"?><svg id="Layer_2" xmlns="http://www.w3.org/2000/svg" viewBox="0 0 8.61 8.61"><defs><style>.cls-1{fill:#fff;stroke:#1d1d1b;stroke-miterlimit:10;stroke-width:2px;}</style></defs><g id="_地図"><path class="cls-1" d="M4.99,1.07c-.41-.09-.83-.1-1.24-.03-.45.08-.87.24-1.25.49-.38.25-.7.57-.95.94-.23.35-.39.73-.48,1.14-.09.41-.1.83-.03,1.24.08.45.24.87.49,1.25s.57.7.94.95c.35.23.73.39,1.14.48.41.09.83.1,1.24.03.44-.08.87-.24,1.25-.49.38-.25.7-.57.95-.94.23-.35.39-.73.48-1.14.09-.41.1-.83.03-1.24-.08-.45-.24-.87-.49-1.25-.25-.38-.57-.7-.94-.95-.35-.23-.73-.39-1.14-.48Z"/></g></svg>