<?xml version="1.0" encoding="UTF-8"?><svg id="Layer_2" xmlns="http://www.w3.org/2000/svg" viewBox="0 0 8.32 7.97"><defs><style>.cls-1{fill:#cfcece;}</style></defs><g id="_アイコン"><path class="cls-1" d="M1.92,7.97c-.11,0-.21-.03-.31-.1-.19-.14-.26-.37-.19-.59l.74-2.28L.22,3.59c-.19-.14-.26-.37-.19-.59.07-.22.27-.36.5-.36h2.4L3.66.36c.07-.22.27-.36.5-.36s.43.14.5.36h0s.74,2.28.74,2.28h2.4c.23,0,.43.14.5.36.07.22,0,.45-.19.59l-1.94,1.41.74,2.28c.07.22,0,.45-.19.59-.19.13-.43.13-.62,0l-1.94-1.41-1.94,1.41c-.09.07-.2.1-.31.1ZM4.16,5.84l2.23,1.62-.81-2.65,2.23-1.62-2.77-.05-.85-2.62s0-.02-.03-.02l-.88,2.64H.53l2.22,1.67-.85,2.62,2.27-1.59Z"/></g></svg>