<?xml version="1.0" encoding="UTF-8"?><svg id="Layer_2" xmlns="http://www.w3.org/2000/svg" viewBox="0 0 88.76 15.62"><defs><style>.cls-1{fill:#010101;}</style></defs><g id="Layer_03"><polygon class="cls-1" points="52.96 0 53.23 .17 53.4 .17 53.73 .17 53.95 0 54.17 0 54.29 .11 54.44 .26 54.61 .27 54.66 .27 54.77 .22 54.99 .17 55.38 .06 55.43 .06 55.6 .14 55.6 .17 55.76 .1 55.93 0 56.04 .06 56.26 .17 56.2 .22 56.15 .27 55.98 .55 56.24 .78 56.35 .88 56.35 1.1 56.35 1.15 56.37 1.32 56.31 1.26 56.42 1.65 56.54 1.65 56.7 1.76 56.75 1.81 56.81 2.03 56.76 2.15 56.83 2.3 56.81 2.42 56.81 2.47 56.81 2.58 57 2.71 57.05 2.75 57.14 2.86 57.19 3.02 57.19 3.08 57.18 3.14 57.23 3.27 57.19 3.41 57.25 3.41 57.36 3.74 57.47 3.96 57.63 4.07 57.69 4.12 57.74 4.23 57.77 4.53 57.77 4.62 57.86 4.76 58.02 5 58.07 5.24 58.11 5.5 58.13 5.61 58.18 5.66 58.24 5.77 58.24 5.83 58.4 5.83 58.4 5.88 58.42 6.07 58.43 6.27 58.46 6.27 58.57 6.43 58.61 6.49 58.84 6.71 58.84 6.87 58.84 7.08 58.84 7.09 58.9 7.31 58.9 7.37 58.95 7.53 59.06 7.59 59.12 7.64 59.17 7.75 59.17 7.86 59.17 7.97 59.23 8.08 59.39 8.19 59.45 8.3 59.42 8.43 59.4 8.52 59.45 8.63 59.53 8.7 59.56 8.72 59.59 8.85 59.56 8.91 59.56 8.96 59.61 9.02 59.68 9.05 59.73 9.1 59.78 9.12 59.83 8.96 59.89 8.85 59.93 8.63 59.89 8.52 60 8.41 60.11 8.36 60.22 8.19 60.27 8.08 60.27 7.97 60.26 7.86 60.25 7.75 60.38 7.59 60.44 7.47 60.47 7.4 60.49 7.37 60.5 7.34 60.49 7.2 60.57 7.18 60.6 7.11 60.6 6.98 60.66 6.95 60.77 6.82 60.82 6.71 60.88 6.65 60.88 6.54 60.86 6.49 60.88 6.32 60.99 6.17 61.04 5.99 61.07 5.97 61.15 5.83 61.21 5.77 61.21 5.72 61.26 5.55 61.28 5.46 61.26 5.39 61.35 5.29 61.39 5.21 61.47 5 61.48 4.89 61.54 4.78 61.54 4.67 61.74 4.36 61.76 4.18 61.81 4.18 61.87 4.12 61.98 4.07 61.98 3.96 62.09 3.74 62.04 3.63 62.06 3.58 62.09 3.52 62.13 3.43 62.14 3.35 62.2 3.19 62.31 3.08 62.36 2.97 62.36 2.86 62.42 2.8 62.42 2.73 62.44 2.68 62.47 2.58 62.47 2.53 62.47 2.47 62.53 2.46 62.64 2.31 62.75 2.14 62.8 2.03 62.8 1.98 62.78 1.86 62.8 1.7 62.86 1.66 62.91 1.53 62.91 1.43 63.02 1.15 63.13 1.15 63.19 .93 63.23 .71 63.19 .6 63.19 .55 63.24 .49 63.3 .43 63.33 .32 63.36 .33 63.41 .22 63.38 .17 63.41 .09 63.46 .06 63.52 .06 63.68 .17 63.79 .17 63.9 .06 63.96 .06 64.07 .06 64.4 .06 64.45 .17 64.51 .17 64.62 .17 64.67 .17 64.73 .11 64.8 .11 64.89 .06 64.99 .11 65.11 .17 65.22 .17 65.33 .17 65.44 .11 65.55 .06 65.77 .06 65.9 .08 66.04 .08 66.16 .11 66.21 .11 66.31 .06 66.38 .03 66.54 0 66.61 .06 66.65 .17 66.78 .15 66.82 .17 66.86 .27 66.87 .28 66.76 .39 66.82 .44 66.84 .5 66.93 .55 66.83 .66 66.76 .71 66.71 .77 66.65 .71 66.6 .71 66.5 .8 66.48 .82 66.38 .82 66.31 .82 66.27 .81 66.27 .82 66.16 .84 66.16 .88 65.99 .86 65.94 .86 65.83 .88 65.71 .93 65.61 .96 65.53 1.02 65.44 1.04 65.44 1.08 65.39 1.12 65.39 1.21 65.4 1.43 65.33 1.54 65.3 1.58 65.26 1.65 65.28 1.76 65.22 1.92 65.24 2.03 65.26 2.07 65.26 2.2 65.33 2.25 65.28 2.42 65.26 2.47 65.23 2.58 65.22 2.64 65.22 2.75 65.22 3.08 65.27 3.33 65.3 3.46 65.33 3.57 65.33 3.74 65.39 4.51 65.39 4.84 65.29 5.02 65.28 5.11 65.3 5.52 65.33 5.61 65.3 6 65.3 6.11 65.28 6.16 65.3 6.38 65.31 6.47 65.44 6.71 65.31 6.79 65.22 6.93 65.22 7.04 65.28 7.09 65.31 7.35 65.55 7.59 65.5 7.64 65.32 8.02 65.32 8.14 65.22 8.25 65.22 8.3 65.39 8.58 65.39 8.69 65.33 8.96 65.28 9.18 65.34 9.35 65.44 9.57 65.36 9.87 65.36 9.98 65.37 10.09 65.39 10.39 65.4 10.45 65.41 10.67 65.51 10.69 65.55 10.7 65.61 10.72 65.67 10.86 65.68 10.89 65.83 10.97 65.97 10.97 66.2 11.01 66.36 11.03 66.38 11 66.6 11.05 66.76 11.07 66.87 11.08 66.87 11.11 66.86 11.12 66.87 11.27 67.04 11.33 66.99 11.47 66.93 11.49 66.98 11.5 66.94 11.64 66.87 11.77 66.82 11.75 66.76 11.74 66.67 11.78 66.54 11.84 66.49 11.78 66.32 11.71 66.16 11.71 66.1 11.76 65.88 11.75 65.88 11.75 65.72 11.82 65.63 11.74 65.61 11.77 65.5 11.77 65.42 11.73 65.31 11.73 65.21 11.73 65 11.72 65 11.72 64.87 11.72 64.78 11.66 64.56 11.66 64.51 11.72 64.45 11.77 64.4 11.77 64.29 11.77 64.12 11.77 64.02 11.72 63.88 11.73 63.88 11.73 63.82 11.73 63.75 11.73 63.68 11.77 63.57 11.77 63.46 11.77 63.41 11.77 63.21 11.75 63.13 11.71 63.02 11.71 63 11.76 62.91 11.77 62.8 11.77 62.75 11.77 62.69 11.82 62.64 11.82 62.58 11.82 62.51 11.78 62.51 11.77 62.42 11.71 62.31 11.77 62.25 11.71 62.25 11.52 62.23 11.44 62.23 11.38 62.24 11.33 62.31 11.27 62.31 11.22 62.36 11.16 62.42 11.11 62.47 11.05 62.53 11 62.58 11 62.71 11.04 62.75 11.04 62.8 11.05 62.91 11.05 63.02 11.01 63.08 10.94 63.17 10.97 63.24 10.96 63.3 11 63.41 10.94 63.41 10.92 63.41 10.83 63.46 10.78 63.52 10.78 63.63 10.66 63.74 10.61 63.71 10.45 63.74 10.39 63.71 10.28 63.69 10.17 63.72 10.18 63.79 10.01 63.75 9.9 63.75 9.78 63.74 9.68 63.74 9.68 63.85 9.51 63.79 9.46 63.75 9.27 63.74 9.2 63.74 9.18 63.79 8.74 63.79 8.69 63.79 8.58 63.75 8.4 63.73 8.36 63.68 8.19 63.68 8.14 63.74 8.14 63.79 7.97 63.79 7.86 63.79 7.7 63.79 7.59 63.74 7.59 63.74 7.44 63.68 7.31 63.68 7.26 63.74 7.04 63.79 6.83 63.79 6.71 63.73 6.6 63.73 6.56 63.73 6.49 63.73 6.36 63.74 6.32 63.68 6.27 63.73 6.17 63.63 6.05 63.68 5.94 63.68 5.83 63.73 5.74 63.76 5.66 63.79 5.55 63.73 5.29 63.7 5.17 63.68 5.06 63.68 4.89 63.72 4.76 63.63 4.56 63.72 4.48 63.79 4.41 63.79 4.34 63.72 4.2 63.79 4.12 63.79 3.68 63.71 3.61 63.71 3.48 63.68 3.41 63.71 3.23 63.72 3.19 63.71 3.07 63.7 2.97 63.71 2.92 63.71 2.86 63.79 2.69 63.74 2.64 63.74 2.58 63.71 2.57 63.71 2.53 63.68 2.47 63.68 2.36 63.66 2.33 63.62 2.31 63.57 2.42 63.52 2.53 63.46 2.64 63.5 2.69 63.46 2.8 63.46 2.91 63.46 2.97 63.37 3 63.33 3.07 63.24 3.19 63.23 3.31 63.19 3.63 63.08 3.79 63.02 3.85 62.96 3.92 62.91 3.98 62.9 4.06 62.79 4.32 62.69 4.73 62.58 4.84 62.58 4.89 62.54 4.88 62.52 4.94 62.42 5 62.42 5.11 62.36 5.17 62.31 5.28 62.36 5.39 62.36 5.44 62.31 5.44 62.26 5.53 62.31 5.66 62.25 5.72 62.2 5.72 62.09 5.77 62.08 5.93 62.08 6.05 62.09 6.1 61.96 6.21 61.9 6.35 61.89 6.37 61.92 6.43 61.81 6.49 61.76 6.54 61.7 6.65 61.73 6.73 61.76 6.71 61.72 6.75 61.7 6.98 61.59 7.04 61.62 7.09 61.56 7.13 61.52 7.15 61.48 7.2 61.47 7.32 61.44 7.4 61.43 7.53 61.37 7.7 61.26 7.81 61.24 7.85 61.15 7.92 61.14 8.08 61.12 8.13 61.15 8.19 61.1 8.25 61.1 8.3 61.02 8.36 60.97 8.48 60.88 8.63 60.82 8.63 60.77 8.85 60.71 8.91 60.71 9.18 60.66 9.29 60.6 9.4 60.6 9.57 60.55 9.57 60.47 9.62 60.38 9.73 60.33 9.84 60.27 9.95 60.26 10.12 60.21 10.23 60.16 10.5 60.16 10.56 60.11 10.67 60 10.72 59.89 10.83 59.88 11 59.88 11.1 59.81 11.25 59.83 11.33 59.73 11.45 59.7 11.54 59.61 11.55 59.56 11.6 59.56 11.71 59.53 11.75 59.46 11.82 59.37 11.82 59.28 11.82 59.28 11.71 59.28 11.66 59.12 11.66 59.01 11.71 58.95 11.6 58.9 11.55 58.91 11.33 58.73 11.11 58.68 10.89 58.7 10.79 58.72 10.67 58.68 10.56 58.51 10.12 58.4 9.9 58.29 9.51 58.18 9.24 57.8 8.8 57.69 8.63 57.58 8.36 57.52 8.19 57.36 7.97 57.25 7.59 57.23 7.3 57.25 7.09 57.14 6.82 57.03 6.6 56.84 6.42 56.81 6.1 56.81 5.99 56.64 5.94 56.57 5.79 56.5 5.64 56.37 5.61 56.2 5.17 56.15 5 55.98 4.73 56.07 4.64 55.98 4.18 55.93 4.01 55.76 3.93 55.76 3.74 55.71 3.63 55.57 3.48 55.6 3.3 55.45 3.21 55.27 3.02 55.27 2.97 55.29 2.83 55.3 2.69 55.27 2.58 55.16 2.36 55.09 2.34 55.02 2.22 54.99 2.53 55.02 3 55.02 3.23 55.1 3.63 55.01 3.78 54.94 4.07 54.94 4.18 55.01 4.36 55.05 4.67 55.05 4.89 55.05 5.77 55 5.95 55 6.03 54.99 6.26 54.99 6.47 54.88 6.65 54.99 6.84 54.99 6.93 55.1 7.37 54.98 7.52 54.89 7.64 54.88 7.75 54.94 7.81 55.05 8.03 55.05 8.41 55.05 8.69 54.98 8.8 54.97 8.9 54.97 9.07 55.1 9.18 55.1 9.24 55.05 9.57 54.99 9.57 54.93 9.63 54.94 9.79 55.01 10.06 54.99 10.12 55.1 10.17 55.16 10.23 55.16 10.45 55.11 10.59 55.09 10.67 55.1 10.78 55.17 10.78 55.35 10.89 55.47 10.84 55.6 10.89 55.65 11.04 55.87 11.05 55.98 11.11 56.16 11.05 56.31 11 56.37 11.05 56.49 11.15 56.53 11.2 56.66 11.44 56.59 11.66 56.53 11.71 56.37 11.66 56.26 11.78 56.15 11.78 55.98 11.88 55.82 11.82 55.6 11.78 55.43 11.78 55.32 11.71 55.27 11.71 54.99 11.71 54.74 11.72 54.66 11.72 54.44 11.72 54.33 11.77 53.95 11.77 53.81 11.73 53.74 11.71 53.56 11.66 53.29 11.75 53.17 11.76 52.96 11.82 52.79 11.82 52.52 11.79 52.41 11.8 52.41 11.71 52.35 11.49 52.4 11.39 52.41 11.3 52.44 11.21 52.49 11.05 52.53 11.11 52.56 11.09 52.68 11.11 52.74 11.11 52.79 11.05 52.96 11 53.1 11 53.17 10.99 53.29 10.97 53.56 10.91 53.62 10.77 53.56 10.73 53.7 10.63 53.73 10.61 53.82 10.39 53.81 10.34 53.78 10.17 53.87 9.98 53.89 9.94 53.9 9.79 53.95 9.73 53.95 9.57 53.92 9.49 53.93 9.3 53.89 9.24 53.89 9.13 53.94 9.07 53.94 8.94 54 8.8 54 8.63 54 8.47 53.96 8.41 53.95 8.36 53.95 8.25 53.95 8.19 53.95 8.08 53.95 7.7 53.89 7.64 53.95 7.53 53.95 7.48 53.98 7.37 54.06 7.26 54.06 6.98 54.06 6.87 54.11 6.65 54.06 6.38 54 6.23 53.96 6.1 54.01 5.94 53.89 5.55 53.95 5.55 54.02 5.3 54.06 4.89 54.11 4.78 54.04 4.62 54.04 4.44 54 4.34 54 4.29 54.11 4.12 54.11 3.9 54.11 3.85 54.06 3.63 54.04 3.52 54 3.46 54 2.91 54.08 2.66 54.09 2.55 54.09 2.5 54.11 2.36 54.17 2.36 54.09 2.25 54.09 2.18 54.06 2.09 54 2.03 54.09 1.92 54.17 1.81 54.11 1.7 54.11 1.48 54.11 1.37 54.07 1.37 54.02 1.35 53.89 1.29 53.93 1.12 53.83 .99 53.78 .92 53.78 .93 53.67 .95 53.62 .99 53.45 .93 53.3 .87 53.23 .84 53.12 .84 53.08 .83 53.07 .88 53.01 .88 52.9 .88 52.78 .8 52.78 .77 52.68 .71 52.63 .71 52.57 .7 52.53 .66 52.52 .65 52.46 .49 52.5 .41 52.52 .39 52.52 .24 52.52 .17 52.57 .11 52.63 .11 52.74 .17 52.79 0 52.85 0 52.96 0"/><path class="cls-1" d="M71.44,5.22v-.08s0-.08,0-.08l.16-.16.11-.05.06-.03.11-.15.16-.06.18-.02.06-.03.09-.08.16-.14h.32s.06-.02.06-.02l.11-.11.11-.03.06.03h.22s.27-.09.27-.09l.13.07.2.1.18-.1h.13s.06.01.06.01h.05s.24-.08.24-.08l.16.11h.16s.11.05.11.05l.06.07.22.15.12-.06.05.05.11.11.05.06.07.07v.09s.16.12.16.12h0l.05.08.07.03.04.17v.05s.05.16.05.16l.02.07h.05s.03.04.03.04l-.04.15h0l-.04.18h-.06l.14.61v.09s0,.07,0,.07l.08.11v.11l-.08.49v.17l-.02.33-.07.55v.11l.06.27v.33s0,.16,0,.16l.03.11v1.04s.02.12.02.12l.06.37.12.05.15.06.06.08.09-.04.02.02.16-.06h.06l.06-.1h0s.06-.05.06-.05h.13s.09-.02.09-.02l.04.05.12.06-.05.04.06.1.09.08v.2l-.06.13h-.16s-.1.07-.1.07l-.11.07-.18.2-.11.06-.11-.06h-.27l-.24.06-.12.03-.13.02h-.16s-.1-.08-.1-.08l-.12-.08-.28-.06-.1-.05-.12-.2v-.13s-.16-.13-.16-.13l.05-.04h-.11l-.05.11-.06.11-.15.04-.15.1-.24.03-.06.11-.16.15-.36.13-.15-.02-.21-.03-.22.04-.11.06-.11.07h-.33l-.15.11-.21-.11-.14-.07-.33-.15-.06-.06-.06-.03-.21-.18-.23-.15-.05-.06-.07-.09-.09-.05-.04-.1-.07-.16-.03-.07.02-.2-.1-.04-.09-.18v-.11s.02-.06.02-.06l.02-.16.02-.2.08-.13-.04-.12.03-.13v-.25s.07-.07.07-.07l.06-.07.11.03.11-.11.05-.12-.07-.06.05-.06.06-.07.1-.18.13-.07.33-.17h0s.27-.12.27-.12l.06.03.03-.06.12-.07.12-.07.11-.09h.16s0,0,0,0l.21-.11.16-.04h.11s.11,0,.11,0l.11-.04.11-.04.42-.17.13-.09.11-.11h.21s.1-.07.1-.07l.04-.03.03-.02.15-.04.08-.06.02-.24.07-.2-.05-.21-.04-.17.03-.14-.02-.08v-.05s.04-.12.04-.12l-.07-.28-.09-.06.06-.06-.02-.07-.06-.17-.02-.08-.02-.1-.09-.03-.13-.04-.11-.17-.06-.05-.11-.02-.09.05-.13.08-.06-.11v.02l-.22.04-.11.06-.11.05h-.06v.06l-.15-.02-.07-.03-.21.22-.09.13-.09.09-.03.24.03.14v.17s-.08.11-.08.11l-.04.11-.05.14v.09l-.16.07-.22.03-.06.08-.05.06-.06.02-.22.06-.1-.04-.18-.07h-.06s-.1.07-.1.07l-.06.04h-.16l-.17-.07v-.15s.06-.2.06-.2l-.04-.06-.06-.05-.07-.05.02-.08.09-.16.03-.06-.03-.07-.04-.1.15-.19.06-.09v-.06s.11-.07.11-.07l.22-.15ZM74.77,8.04l-.1.06-.14.07-.06-.04-.06.05-.06.06-.09.06-.14.06-.05.02-.22.09-.02-.05-.08.09-.05.02-.13.11v.06l-.16-.06-.08.03-.15.03-.11.06h-.06l-.05.07-.09.04-.13.05-.06.02.02.08-.03.02-.05.04-.03.03.03.14h-.05l-.11.11-.08.04-.03.06v.02s-.06.09-.06.09l-.04.08.04.16-.05.16-.02.06-.04.05v.06l.05.06h.01s.1.11.1.11v.06l-.06.05v.11s0,.11,0,.11l.06-.04.16.09v.12s.03.03.03.03l.08.12v.06l.06-.04.12.05.05.02.11.02h.05l.21.07h.1s.02,0,.02,0h.06s.05.04.05.04h.17l.07-.08.07-.08h.19s.14-.07.14-.07l.07-.04.03-.02.15-.09h.1l.02-.14.03-.03v-.16s.13-.03.13-.03l.04-.08v-.16s.11-.11.11-.11h.06v-.05l-.06-.06-.03-.13v-.04s0-.08,0-.08l.09-.2-.08-.18v-.04s-.03-.11-.03-.11v-.06l.03-.05.08-.33-.08-.06-.09-.11.05-.11-.05-.16.11-.11h.06l-.07-.15Z"/><path class="cls-1" d="M80.84,4.95l.11-.11.11-.05.13.02.14-.02h.16l.11-.09.11-.08.16-.05v.04s.17.01.17.01h.22l.22-.19.06.03.11-.06.11-.16h.11l.09.05h.13s.05,0,.05,0l.07.14.04.21v.07s-.06,0-.06,0l.04.1.03.08-.04.05-.09.11h0s.08.01.08.01l.03.03.07.07.08-.16.02-.08.09-.08.06-.05.11-.1v-.08l.11-.02.1-.02h.07s.17-.02.17-.02l.05-.06.06-.06h.06l.21-.15.12-.04.16-.05.11-.04.08.03.09.09.11-.06h.11l.33.06.19-.06.19.03.16.02.22.03h.06s.17.13.17.13l.07.03.52.21.17.19.29.22.06.04.02.07.03.08.06.16.14.04.1.14.1.15.16.06-.06.11.11.29.06.15.11.11.04.27.07.17-.04.18-.05.26.11.17-.02.32v.11l.04.07.07.11-.06.15v.11s-.03.12-.03.12v.05s-.08.05-.08.05l.05.15-.02.11-.03.24-.02.05-.04.09-.17.41.02.11v.06s-.02.05-.02.05l-.09.15-.02.03-.04.08-.03.07v.11s-.06,0-.06,0l-.03.06-.03.04-.06.07-.05.1-.08.12-.06.06-.04.06-.07.08-.07.08v.06s-.05,0-.05,0l-.1.11-.05.03h0s-.06.03-.06.03l-.11.06-.06.05-.12.13-.1.04-.11.05-.05.06-.06.04-.56.29h-.1l-.16.05-.16.06h-.44l-.16.06h-.06l-.17-.06h-.38s-.16.06-.16.06l.02-.11-.15-.03-.15-.07-.3-.08-.14-.03-.06-.05-.06-.03v-.08s-.19-.04-.19-.04l-.08-.05-.05-.04v-.04h-.07l-.04.11.07.22v.82s0,.25,0,.25l.04.08v.16l-.04.49-.07.16v.06l.07.27.09.06v.06l-.05.21v.07s.01.05.01.05v.06s.02.11.02.11v.06s.13.03.13.03h.05s.16.03.16.03l.16.11.11.06h.38l.08.02.08.02.11.08v.05s-.09.13-.09.13l-.02.03h-.06v.11l.07.16-.26.02-.08-.02-.05.02h-.17s-.08,0-.08,0l-.09.05h-.05l-.27-.06-.06.06h-.38l-.22-.07h-.11s-.06-.04-.06-.04l-.33.03h-.11s-.07.02-.07.02h-.43s-.11.06-.11.06h-.6l-.02-.04v-.02h-.24s-.07-.05-.07-.05l-.05-.03.02-.05-.03-.13v-.06s0-.06,0-.06l.05-.06.06-.05-.03-.08.03-.03.1-.1v.04l.11-.05.13.04h.14s.05.01.05.01l.19-.08.03-.09h.06l.06.02.05-.06.05-.08.06-.09v-.06l-.02-.13-.03-.09.11-.39v-.33s.06-.06.06-.06l-.05-.06-.05-.07v-.08s-.01-.07-.01-.07v-.06l.02-.29-.07-.04.06-.11.02-.08.02-.09h.02v-.17l-.04-.03.04-.3-.04-.14-.04-.14.04-.15.02-.07-.02-.21.09-.67-.09-.1v-.17l-.07-.12v-.49l.07-.28v-.05s0-.19,0-.19l.04-.14-.04-.06v-.26l-.07-.11.07-.09.04-.57.06-.06-.06-.11-.04-.11v-.12l-.02-.05-.06-.11.06-.06v-.06l-.06-.22.06-.16v-.11l-.06-.11.06-.06v-.06s.06-.05.06-.05l-.05-.11v-.11s-.01-.08-.01-.08l-.05-.08v-.11l-.05-.16.05-.05v-.17s-.04,0-.04,0l-.12-.11-.06-.06h-.05l-.05.06-.06.05h-.11l-.1-.03-.08-.02-.15.04-.11.03-.11-.03-.11-.04-.06-.11v-.06l.11-.11-.06-.06-.03-.02-.03-.14.08-.07.03-.04v-.06h.11s.05-.01.05-.01l.06-.04.05.06ZM83.24,6.49l-.04.16.02.07.04.15-.1.22.05.16.1.28-.11.11-.06.06.06.11v.05s.01.24.01.24l.04.09-.04.07v.13l-.07.18v.05l.06.11v.11s.01.13.01.13l.04.2-.05.38v.06s0,.08,0,.08l.02.04.09.15v.11l.06.05-.04.06.04.1.05.13.06.07v.08l.11.09.04.02.12.06.05.11.04.05.08.11.23.11h.1s.11.05.11.05l.05.05v.06h.16s.06.05.06.05l.11-.03h.12s.06,0,.06,0l.03-.03h.29s.08.06.08.06l.07-.03.11-.06.06.09.11-.11.03-.08.15-.03.06-.06.03-.03.08-.08h.09l.05-.13h0s.11-.13.11-.13l.03-.04.02-.09v-.05l.11-.11.17-.21.02-.07.04-.04.06-.07.02-.06.02-.05v-.04s.03-.07.03-.07h.04v-.16s.03-.07.03-.07l-.03-.15.14-.27v-.06s.03-.05.03-.05l.02-.06v-.1s-.02-.07-.02-.07l.03-.09v-.08s.01-.16.01-.16v-.04s.02-.07.02-.07l.05-.22v-.06l-.06-.06-.05-.22v-.3s0-.19,0-.19l-.03-.11.04-.05-.06-.15-.05-.04-.12-.09v-.06l-.11-.44-.03-.06-.02-.1h-.11v-.11h-.05l-.11-.11v-.06l-.06-.16-.05-.06-.06-.05-.15-.05h-.02s-.06,0-.06,0l-.11-.06-.11-.06h-.06l-.07-.11-.1-.06h0s-.11-.02-.11-.02l-.17-.03h0s-.08.01-.08.01l-.14.04h-.22l-.11.11-.16-.06h0s-.06-.03-.06-.03l-.05-.03-.11.06-.05.05-.12.06-.16.23h-.18l-.04.04-.1.11-.04.04-.03.09-.06.06-.07.03-.06.02-.05.13-.12.31Z"/><path class="cls-1" d="M44.02,4.68l.28-.17.09-.06h.07s.14,0,.14,0h.22s.16-.11.16-.11h.11l.21-.12.18-.03h.05s.33-.13.33-.13l.16.05.16.17.09-.07.18.07.19.02.14.04.06.02.16.05.07.06.32.05.05.06.12.19.04.19.27.22.17-.06.08.06.08.06.11.16v.05l-.03.08.03.04.02.02-.02.12.27.16.11.06-.08.23-.04.1.15.25.02.08.06.06v.2s0,.04,0,.04h-.05v.19l.08.08.08.08v.06s-.07.05-.07.05l-.09.17v.05l-.08-.07-.03-.02-.17.03-.14.08-.06.03-.15-.04-.2-.07h-.11l-.18.06h-.15s-.15,0-.15,0h-.14s-.09.06-.09.06l-.09-.06h-.09s-.15,0-.15,0h-.12s-.32-.1-.32-.1h-.06l-.38.06-.11-.06-.22.08v-.03l-.16.11h-.22l-.11-.06-.12-.02-.05-.03h-.16l-.07.03-.54.02-.09-.02v-.04h-.13l-.16.04v.18l.05.14v.07s0,.11,0,.11l-.04.11.03.11.13.22-.14.22v.11s.03.06.03.06l.05.11v.06l.07.05.04.03v.14s.04.11.04.11l.03.05h.03s.02.13.02.13l.05.1.06.12.2.16-.02.12.07.1v.11s.12.06.12.06l.04.06.04.06.08.02.12.11.06.05.16.11.11.06h.15s.06.1.06.1l.2.07.13.03.16.13.24-.1.09-.04.11-.03v.06s.11,0,.11,0l.27.06.05-.09h.11s.22-.08.22-.08l.05-.09.04-.07h.1s.25-.14.25-.14l.06-.03.04-.07.04-.03.15-.06.06-.11.11-.05-.02-.1.1-.13.03-.04.06-.08.06-.08.16-.08.06.06.11.06v.03s.03.08.03.08l.11.02.08.02v.11s-.04.02-.04.02l.04.06v.11s0,.11,0,.11l-.11.09v.02s-.05.04-.05.04h-.06s-.06.07-.06.07l-.11.21-.06.07-.06.07-.06.09v.11s-.1.06-.1.06l-.16.12-.11.07-.11-.02-.06.06-.11.11-.06.11-.06.05-.11.05-.11.06-.08-.02h-.03s-.06.02-.06.02l-.16.06-.27.06-.11.13-.22.03v-.06h-.39s-.33.06-.33.06h-.11l-.06-.05-.11-.06h-.2s-.24-.03-.24-.03l-.22-.02-.07-.06-.02-.05-.02-.04-.06-.02-.05-.11-.15.06-.11-.05-.13-.06-.06.05-.06-.06-.06-.06-.11-.05-.11-.08-.05-.08-.04-.05h0s-.28-.25-.28-.25l-.07-.14v-.06h-.05l-.09-.04-.07-.03-.06-.04-.16-.22-.04-.11v-.07s0-.04,0-.04l-.02-.05v-.17l-.06-.11-.15-.1-.23-.15.06-.14.04-.06-.03-.19-.02-.09v-.05s-.09-.17-.09-.17l.02-.05.09-.11-.06-.11-.06-.16-.02-.1v-.06h-.04l.03-.11v-.16s-.02-.17-.02-.17v-.05s.05-.06.05-.06l.06-.11v-.47s-.06-.19-.06-.19l.06-.06.06-.11.04-.16.04-.22.13-.05.05-.11.06-.16.04-.14-.04-.08.06-.06.11-.16.11-.14v-.03h.07s.15-.04.15-.04l.05-.07.11-.11-.05-.12.05-.02.06-.09.05-.05v-.06s.12-.07.12-.07l.06-.02.06-.02.1-.11v-.05s.12-.04.12-.04l.14-.07ZM44.32,6.05l-.06.02-.05.04-.06.06.02.06-.02.11v.11l-.08.05-.02.06-.06.06.02.08.03-.03.05.07.06.04.06-.03h.06s.11-.02.11-.02h.06l.05.06h.22l.13-.04.09-.02h.27l.11-.05v.08l.22.03h.06s.19-.04.19-.04h.09s.06-.01.06-.01h.18s.09,0,.09,0l.11-.05.13.05h.09s.06.06.06.06h.05v-.06s.05-.02.05-.02l.11-.04h.11l.14.02h.04s.12.03.12.03l.04-.05v-.06h-.05s-.06,0-.06,0l.05-.16h.06v-.06l-.08-.02-.02-.1-.02-.04v-.05s0-.06,0-.06l-.02-.05-.02-.06-.06-.11h0s-.11-.11-.11-.11l.02-.1-.02-.06v-.06l-.06-.11h-.06l-.11-.05-.11-.11-.06-.05-.06-.07-.05-.04v-.06l-.16-.05h-.11l-.06-.06-.11.06h-.22l-.05-.02-.03-.02h-.02s-.06-.01-.06-.01h-.06l-.11.06-.06.05-.05.06-.11.06-.08-.04h-.03s-.06.04-.06.04h0s-.14.12-.14.12l-.03.02-.04.03-.12.11v.12s-.13.02-.13.02l-.14.02-.03.11-.04.16-.04.17Z"/><polygon class="cls-1" points="35.68 2.92 35.71 2.88 35.8 2.91 35.8 2.86 35.8 2.78 35.94 2.76 36.02 2.7 36.13 2.74 36.19 2.77 36.23 2.78 36.35 2.8 36.35 2.91 36.4 2.91 36.4 2.97 36.4 3.02 36.39 3.12 36.39 3.19 36.41 3.24 36.38 3.39 36.3 3.46 36.3 3.57 36.37 3.7 36.46 4.01 36.41 4.07 36.3 4.18 36.3 4.29 36.3 4.4 36.3 4.45 36.35 4.45 36.35 4.46 36.46 4.4 36.5 4.46 36.56 4.46 36.68 4.45 36.79 4.4 36.9 4.4 37.01 4.51 37.29 4.48 37.36 4.45 37.45 4.4 37.56 4.43 37.63 4.44 37.72 4.45 37.81 4.44 38 4.41 38.17 4.42 38.22 4.45 38.39 4.45 38.4 4.43 38.5 4.4 38.55 4.4 38.63 4.45 38.67 4.56 38.72 4.62 38.63 4.68 38.66 4.78 38.57 4.88 38.54 4.98 38.44 5 38.49 5.14 38.44 5.33 38.44 5.39 38.28 5.39 38.11 5.37 37.89 5.33 37.78 5.28 37.67 5.39 37.4 5.44 37.34 5.41 37.24 5.35 37.12 5.28 37.01 5.28 36.96 5.33 36.74 5.39 36.68 5.39 36.51 5.34 36.41 5.28 36.3 5.33 36.31 5.45 36.35 5.5 36.35 5.55 36.41 5.88 36.31 5.94 36.31 6.04 36.27 6.16 36.31 6.33 36.35 6.54 36.35 6.6 36.3 6.68 36.3 6.91 36.25 6.98 36.3 7.14 36.35 7.31 36.41 7.59 36.24 7.75 36.24 7.97 36.35 8.03 36.41 8.27 36.29 8.35 36.19 8.41 36.29 8.46 36.29 8.63 36.27 8.74 36.35 8.91 36.19 9.07 36.17 9.13 36.28 9.34 36.35 9.46 36.3 9.57 36.3 9.71 36.3 9.84 36.31 9.9 36.32 9.95 36.36 10.12 36.38 10.22 36.52 10.45 36.46 10.78 36.61 10.78 36.9 10.72 36.89 10.92 37.18 11.02 37.21 11.01 37.4 10.94 37.62 10.83 37.73 10.89 37.89 10.89 37.95 10.83 38.06 10.81 38.11 10.61 38.22 10.5 38.33 10.39 38.52 10.39 38.61 10.45 38.66 10.5 38.88 10.67 39.05 10.83 39.05 10.89 38.88 11.01 38.79 11.05 38.61 11.11 38.58 11.28 38.54 11.32 38.46 11.4 38.28 11.56 38.19 11.61 37.87 11.8 37.84 11.93 37.4 11.93 37.3 12 37.12 12.03 36.96 12.15 36.68 12.1 36.57 12.04 36.3 11.88 36.24 11.88 36.02 11.99 35.76 11.93 35.42 11.66 35.36 11.66 35.31 11.66 35.31 11.44 35.25 11.27 35.24 11.22 35.1 11.14 34.92 11.05 34.86 11.05 34.84 10.67 34.83 10.56 34.83 10.5 34.8 9.99 34.92 9.79 34.87 9.68 34.78 9.51 34.79 9.35 34.65 9.29 34.7 9.18 34.79 9 34.87 8.69 34.92 8.58 34.76 8.36 34.76 8.19 34.76 7.97 34.82 7.86 34.82 7.69 34.87 7.59 34.87 7.53 34.76 7.37 34.79 6.98 34.83 6.91 34.87 6.82 34.87 6.76 34.86 6.54 34.83 6.44 34.81 6.32 34.76 6.38 34.76 5.72 34.84 5.66 34.85 5.57 34.87 5.38 34.87 5.3 34.81 5.33 34.76 5.38 34.48 5.44 34.37 5.5 34.34 5.39 34.21 5.33 34.1 5.44 33.99 5.44 33.77 5.39 33.71 5.36 33.77 5.31 33.77 5.13 33.7 5.14 33.63 5.06 33.6 4.95 33.66 4.85 33.72 4.82 33.82 4.78 33.93 4.78 33.99 4.74 33.96 4.64 34.15 4.51 34.32 4.45 34.37 4.4 34.48 4.46 34.59 4.45 34.67 4.34 34.67 4.34 34.75 4.29 34.77 4.27 34.81 4.25 34.87 4.07 34.98 3.96 35.11 3.95 35.2 4.01 35.24 3.9 35.26 3.75 35.31 3.46 35.36 3.35 35.53 3.2 35.53 3.13 35.53 2.97 35.68 2.92"/><path class="cls-1" d="M15.4,5.22v-.08s0-.08,0-.08l.16-.16.11-.05.05-.03.11-.15.16-.06.18-.02.06-.03.09-.08.16-.14h.32s.06-.02.06-.02l.11-.11.11-.03.06.03h.22s.27-.09.27-.09l.13.07.2.1.18-.1h.13s.06.01.06.01h.05s.24-.08.24-.08l.16.11h.16s.11.05.11.05l.06.07.22.15.12-.06.05.05.11.11.05.06.07.07v.09s.16.12.16.12h0l.05.08.07.03.04.17v.05s.05.16.05.16l.02.07h.05s.03.04.03.04l-.04.15h0l-.04.18h-.06l.14.61v.09s0,.07,0,.07l.08.11v.11l-.08.49v.17l-.02.33-.07.55v.11l.06.27v.33s0,.16,0,.16l.03.11v1.04s.02.12.02.12l.06.37.12.05.15.06.06.08.09-.04.02.02.16-.06h.06l.06-.1h0s.06-.05.06-.05h.13s.09-.02.09-.02l.04.05.12.06-.05.04.06.1.09.08v.2l-.06.13h-.16s-.1.07-.1.07l-.11.07-.18.2-.11.06-.11-.06h-.27l-.24.06-.12.03-.13.02h-.16s-.1-.08-.1-.08l-.12-.08-.28-.06-.1-.05-.12-.2v-.13s-.16-.13-.16-.13l.05-.04h-.11l-.05.11-.06.11-.15.04-.15.1-.24.03-.06.11-.16.15-.36.13-.15-.02-.21-.03-.22.04-.11.06-.11.07h-.33l-.15.11-.21-.11-.14-.07-.33-.15-.06-.06-.06-.03-.21-.18-.23-.15-.05-.06-.07-.09-.09-.05-.04-.1-.07-.16-.03-.07.02-.2-.1-.04-.09-.18v-.11s.02-.06.02-.06l.02-.16.02-.2.08-.13-.04-.12.03-.13v-.25s.07-.07.07-.07l.06-.07.11.03.11-.11.05-.12-.07-.06.05-.06.06-.07.1-.18.13-.07.33-.17h0s.27-.12.27-.12l.06.03.03-.06.12-.07.12-.07.11-.09h.16s0,0,0,0l.21-.11.16-.04h.11s.11,0,.11,0l.11-.04.11-.04.42-.17.13-.09.11-.11h.21s.1-.07.1-.07l.04-.03.03-.02.15-.04.08-.06.02-.24.07-.2-.05-.21-.04-.17.03-.14-.02-.08v-.05s.04-.12.04-.12l-.07-.28-.09-.06.06-.06-.02-.07-.06-.17-.02-.08-.02-.1-.09-.03-.13-.04-.11-.17-.06-.05-.11-.02-.09.05-.13.08-.06-.11v.02l-.22.04-.11.06-.11.05h-.06v.06l-.15-.02-.07-.03-.21.22-.09.13-.09.09-.03.24.03.14v.17s-.08.11-.08.11l-.04.11-.05.14v.09l-.16.07-.22.03-.06.08-.05.06-.06.02-.22.06-.1-.04-.18-.07h-.06s-.1.07-.1.07l-.06.04h-.16l-.17-.07v-.15s.06-.2.06-.2l-.04-.06-.06-.05-.07-.05.02-.08.09-.16.03-.06-.03-.07-.04-.1.15-.19.06-.09v-.06s.11-.07.11-.07l.22-.15ZM18.73,8.04l-.1.06-.14.07-.06-.04-.06.05-.06.06-.09.06-.14.06-.05.02-.22.09-.02-.05-.08.09-.05.02-.13.11v.06l-.16-.06-.08.03-.15.03-.11.06h-.06l-.05.07-.09.04-.13.05-.06.02.02.08-.03.02-.05.04-.03.03.03.14h-.05l-.11.11-.08.04-.03.06v.02s-.06.09-.06.09l-.04.08.04.16-.05.16-.02.06-.04.05v.06l.05.06h.01s.1.11.1.11v.06l-.06.05v.11s0,.11,0,.11l.06-.04.16.09v.12s.03.03.03.03l.08.12v.06l.06-.04.12.05.05.02.11.02h.05l.21.07h.1s.02,0,.02,0h.06s.05.04.05.04h.17l.07-.08.07-.08h.19s.14-.07.14-.07l.07-.04.03-.02.15-.09h.1l.02-.14.03-.03v-.16s.13-.03.13-.03l.04-.08v-.16s.11-.11.11-.11h.06v-.05l-.06-.06-.03-.13v-.04s0-.08,0-.08l.09-.2-.08-.18v-.04s-.03-.11-.03-.11v-.06l.03-.05.08-.33-.08-.06-.09-.11.05-.11-.05-.16.11-.11h.06l-.07-.15Z"/><polygon class="cls-1" points=".44 0 .6 0 .82 .17 .99 .17 1.32 .11 1.48 .11 1.65 .06 1.81 .06 1.86 .09 1.97 .17 2.14 .17 2.25 .17 2.47 .17 2.6 .11 2.71 .06 3.08 .06 3.24 .12 3.24 .11 3.35 .17 3.41 .17 3.68 .17 3.98 .12 4.18 .1 4.4 .13 4.62 .13 4.95 .13 5.21 .13 5.22 .06 5.37 .13 5.7 .13 5.77 .17 5.88 .13 5.88 .13 6.21 .11 6.27 .13 6.32 .22 6.43 .17 6.54 .17 6.76 .12 6.93 .06 7.04 .12 7.07 .12 7.26 .17 7.42 .17 7.48 .17 7.59 .17 7.68 .12 7.7 .1 7.89 .11 8.14 .06 8.18 .11 8.3 .17 8.58 .1 8.69 .1 8.85 0 8.96 .06 9.13 .06 9.35 .11 9.46 .11 9.62 .11 9.68 .06 9.81 .07 9.95 .09 10.12 0 10.17 0 10.34 .06 10.39 .05 10.5 .11 10.56 .05 10.67 0 10.64 .08 10.72 .22 10.72 .33 10.61 .44 10.61 .6 10.7 .75 10.72 .79 10.78 .88 10.72 1 10.67 1.15 10.72 1.26 10.89 1.43 10.83 1.54 10.83 1.65 10.79 1.7 10.8 1.76 10.81 1.83 10.82 1.87 10.89 1.98 10.84 2.09 10.82 2.14 10.86 2.28 10.94 2.27 10.94 2.36 10.83 2.47 10.9 2.58 10.94 2.64 10.92 2.76 10.93 2.8 10.92 2.84 10.83 2.91 10.84 3.02 10.78 3.13 10.72 3.13 10.71 3.1 10.56 3.16 10.4 3.12 10.41 3.08 10.3 3.06 10.21 2.97 10.2 2.85 10.18 2.75 10.17 2.58 10.05 2.49 9.97 2.42 9.84 2.14 9.83 2.03 9.67 1.8 9.57 1.59 9.46 1.5 9.35 1.44 9.24 1.43 9.24 1.37 9.09 1.21 9.02 1.14 8.8 1.04 8.74 .99 8.53 1.02 8.4 1.04 8.3 1.04 8.08 .99 7.97 .9 7.81 .86 7.62 .93 7.51 .93 7.51 .93 7.37 .88 7.23 .93 7.2 .94 7.15 .99 6.93 .99 6.7 .99 6.6 1 6.54 1.04 6.38 1.1 6.38 1.21 6.4 1.28 6.41 1.32 6.35 1.42 6.32 1.53 6.28 1.7 6.27 1.76 6.32 1.87 6.32 2.14 6.27 2.14 6.21 2.2 6.21 2.36 6.25 2.47 6.26 2.52 6.26 2.58 6.26 2.7 6.27 2.75 6.27 2.8 6.25 2.94 6.21 2.97 6.21 3.19 6.25 3.19 6.27 3.24 6.27 3.3 6.32 3.46 6.25 3.66 6.27 3.74 6.25 3.88 6.21 3.9 6.21 4.12 6.25 4.28 6.28 4.4 6.27 4.45 6.27 4.56 6.25 4.71 6.21 4.78 6.21 4.89 6.21 4.95 6.25 5.27 6.27 5.33 6.32 5.44 6.32 5.77 6.25 6 6.25 6.07 6.25 6.14 6.25 6.27 6.16 6.49 6.16 6.65 6.16 6.87 6.25 7.15 6.27 7.2 6.25 7.4 6.32 7.59 6.25 7.69 6.25 7.83 6.25 8.04 6.32 8.25 6.21 8.41 6.21 8.47 6.25 8.8 6.32 9.07 6.32 9.13 6.32 9.4 6.26 9.45 6.26 9.55 6.21 9.73 6.21 10.01 6.27 10.12 6.27 10.23 6.32 10.39 6.34 10.54 6.35 10.67 6.4 10.72 6.47 10.77 6.62 10.87 6.71 10.83 6.71 10.91 6.82 10.94 6.87 11 7.04 11.01 7.1 10.99 7.2 10.94 7.37 11.02 7.49 11.03 7.64 11 7.73 11.06 7.81 11.11 7.89 11.17 7.93 11.22 7.97 11.33 7.95 11.4 7.92 11.44 7.95 11.55 7.95 11.66 7.92 11.66 7.89 11.67 7.85 11.72 7.81 11.77 7.78 11.76 7.73 11.78 7.64 11.8 7.59 11.8 7.43 11.77 7.26 11.74 7.12 11.76 6.76 11.71 6.6 11.77 6.49 11.77 6.38 11.77 5.88 11.77 5.81 11.72 5.77 11.7 5.66 11.66 5.61 11.72 5.55 11.72 5.44 11.77 5.33 11.77 5.23 11.72 5.17 11.69 5.06 11.71 4.95 11.72 4.78 11.72 4.67 11.73 4.56 11.82 4.45 11.77 4.4 11.77 4.4 11.74 4.34 11.71 4.29 11.71 4.01 11.75 3.74 11.76 3.61 11.77 3.52 11.82 3.46 11.82 3.3 11.82 3.22 11.75 3.08 11.71 3.08 11.67 3.11 11.62 3.08 11.43 3.08 11.39 3.08 11.33 3.09 11.22 3.13 11.05 3.2 11.1 3.25 11.08 3.35 11.11 3.44 11.04 3.68 11 3.68 10.94 3.85 11 3.96 10.99 4.12 10.94 4.23 10.94 4.36 10.83 4.4 10.72 4.46 10.73 4.5 10.65 4.55 10.48 4.56 10.43 4.62 10.28 4.61 10.23 4.56 10.12 4.62 9.98 4.63 9.79 4.67 9.62 4.64 9.57 4.64 9.51 4.62 9.29 4.62 9.13 4.65 9.01 4.67 8.96 4.67 8.85 4.67 8.58 4.65 8.41 4.65 8.32 4.65 8.22 4.62 7.81 4.62 7.59 4.65 7.53 4.65 7.5 4.65 7.36 4.67 7.37 4.67 7.15 4.62 6.82 4.62 6.54 4.62 6.38 4.62 6.27 4.65 5.99 4.65 5.94 4.67 5.77 4.65 5.62 4.56 5.55 4.62 5.28 4.65 5.08 4.73 4.89 4.67 4.78 4.67 4.62 4.65 4.38 4.51 4.18 4.65 4 4.65 3.79 4.65 3.59 4.73 3.41 4.67 3.13 4.65 3.02 4.56 2.8 4.65 2.66 4.65 2.51 4.67 2.36 4.67 2.14 4.67 2.09 4.73 1.76 4.62 1.72 4.56 1.65 4.51 1.43 4.4 1.15 4.4 .99 4.34 .93 4.18 .93 4.12 .93 4.03 .95 3.96 .97 3.74 .92 3.68 .91 3.44 .93 3.3 .99 3.24 .99 3.02 .93 2.89 .96 2.74 .98 2.47 .99 2.36 1.03 2.25 1.15 2.14 1.15 2.04 1.17 1.96 1.21 1.76 1.26 1.73 1.32 1.69 1.4 1.54 1.53 1.43 1.63 1.34 1.7 1.32 1.8 1.27 1.87 1.26 1.92 1.26 2.03 1.11 2.13 1.07 2.2 1 2.31 .97 2.36 .93 2.58 .85 2.66 .82 2.72 .79 2.8 .71 2.8 .74 2.91 .71 2.98 .7 3.02 .67 3.08 .6 3.02 .52 3.14 .49 3.14 .39 3.15 .27 3.17 .24 3.09 .22 3.05 .12 3.01 .07 2.92 .06 2.84 0 2.75 .06 2.64 .11 2.43 .15 2.25 .22 2.09 .17 1.87 .17 1.65 .28 1.04 .3 .82 .32 .71 .27 .6 .27 .49 .34 .33 .38 .22 .33 .17 .33 .11 .36 0 .44 0"/><polygon class="cls-1" points="28.83 4.37 28.54 4.23 28.32 4.23 28.05 4.18 27.88 4.07 27.66 4.01 27.5 4.12 27.39 4.23 27.28 4.3 26.95 4.34 26.84 4.18 26.56 4.18 26.51 4.23 26.12 4.34 25.96 4.45 25.96 4.51 25.9 4.67 25.85 4.73 25.68 4.84 25.46 4.89 25.35 4.95 25.18 5.39 25.02 5.44 25.05 5.74 24.91 5.88 25.02 5.88 25.01 6.01 25.08 6.21 25.08 6.27 25.01 6.48 25.06 6.78 24.91 6.98 24.91 7.04 25.08 7.2 25.21 7.48 25.29 7.86 25.52 7.81 25.63 7.92 25.74 7.97 25.85 8.08 26.13 8.1 26.18 8.1 26.23 8.08 26.34 8.21 26.51 8.19 26.56 8.25 26.78 8.44 26.89 8.48 26.95 8.52 27 8.58 27.22 8.8 27.44 8.85 27.77 8.96 27.94 8.95 28.04 9 28.32 9.07 28.43 9.13 28.6 9.34 28.51 9.41 28.49 9.68 28.63 9.62 28.7 9.79 28.74 9.9 28.76 10.12 28.7 10.18 28.68 10.39 28.6 10.39 28.54 10.5 28.51 10.73 28.45 10.83 28.38 10.94 28.38 11 28.27 11.11 27.99 11.27 27.87 11.2 27.87 11.2 27.72 11.16 27.59 11.26 27.33 11.16 27.28 11.16 27.22 11.22 27.22 11.26 26.84 11.16 26.71 11.11 26.67 11 26.67 10.94 26.56 10.94 26.45 10.96 26.29 10.85 26.09 10.72 25.93 10.61 25.85 10.56 25.78 10.3 25.74 10.31 25.74 10.17 25.66 10.12 25.61 10.03 25.57 9.79 25.52 9.79 25.45 9.71 25.39 9.73 25.31 9.57 25.13 9.47 24.97 9.46 24.75 9.62 24.83 9.68 24.81 9.97 24.86 10.01 24.82 10.02 24.69 10.34 24.8 10.45 24.89 10.43 24.91 10.52 25.02 10.67 24.96 10.76 24.98 10.84 25.01 11 24.97 11.05 24.97 11.27 25.02 11.27 25.09 11.33 25.24 11.38 25.24 11.49 25.17 11.6 25.2 11.71 25.3 11.77 25.57 11.88 25.63 11.88 25.74 11.82 25.96 11.91 26.01 11.93 26.12 11.82 26.22 11.93 26.36 11.96 26.62 11.93 26.7 12.01 27.11 12.05 27.17 12.1 27.44 12.15 27.55 12.21 27.66 12.11 27.94 12.15 28.01 12.15 28.05 12.1 28.21 11.99 28.38 11.99 28.46 11.87 28.54 11.77 28.54 11.71 28.98 11.65 29.15 11.55 29.25 11.49 29.35 11.44 29.42 11.4 29.47 11.28 29.5 11.22 29.59 11.05 29.85 10.76 29.89 10.69 29.81 10.56 30 10.41 29.97 10.38 30.05 10.23 30.09 10.04 30.12 9.84 30.14 9.68 30.16 9.57 30.11 9.48 30.03 9.48 29.97 9.24 30.19 9.24 30.19 8.91 30.08 8.74 30.08 8.69 30.07 8.63 29.97 8.41 29.7 8.58 29.7 8.52 29.76 8.39 29.7 8.3 29.53 8.06 29.37 7.83 29.42 7.64 29.23 7.64 29.04 7.64 28.87 7.48 28.72 7.55 28.63 7.51 28.43 7.53 28.21 7.42 28.19 7.3 28.03 7.24 27.99 7.09 27.94 7.09 27.88 7.09 27.5 6.93 27.33 6.87 27.22 6.9 27.11 6.86 27.06 6.83 27.07 6.82 27 6.71 26.95 6.65 26.78 6.67 26.67 6.71 26.64 6.6 26.51 6.53 26.56 6.38 26.51 6.38 26.38 6.27 26.33 6.12 26.32 6.06 26.4 5.99 26.32 5.89 26.27 5.83 26.32 5.66 26.45 5.5 26.45 5.4 26.44 5.28 26.52 5.28 26.57 5.24 26.67 5.22 26.78 5.22 26.87 5.04 26.98 5 27.06 4.97 27.14 4.95 27.2 4.95 27.2 5 27.39 4.89 27.44 4.89 27.5 4.94 27.58 4.95 27.68 4.97 27.77 4.95 27.83 4.95 27.94 5.01 27.93 5.03 27.98 5.05 28.05 5.11 28.24 5.19 28.28 5.21 28.32 5.24 28.49 5.28 28.49 5.35 28.53 5.42 28.61 5.55 28.77 5.66 28.87 5.72 28.87 5.77 28.88 5.91 28.89 6.1 29.01 6.17 29.09 6.27 29.04 6.38 29.12 6.43 29.21 6.5 29.26 6.6 29.37 6.6 29.48 6.63 29.59 6.54 29.6 6.49 29.69 6.4 29.7 6.36 29.73 6.25 29.7 6.21 29.7 6.16 29.74 5.99 29.7 5.89 29.69 5.77 29.64 5.66 29.67 5.58 29.72 5.44 29.7 5.28 29.7 5.17 29.59 5 29.59 4.89 29.53 4.78 29.64 4.62 29.7 4.56 29.7 4.45 29.64 4.4 29.57 4.4 29.53 4.29 29.48 4.29 29.42 4.34 29.2 4.29 29.15 4.29 29.02 4.38 28.93 4.44 28.83 4.37"/></g></svg>