<?xml version="1.0" encoding="UTF-8"?><svg id="Layer_2" xmlns="http://www.w3.org/2000/svg" xmlns:xlink="http://www.w3.org/1999/xlink" viewBox="0 0 14.21 14.37"><defs><style>.cls-1,.cls-2{fill:none;}.cls-3{fill:#1e1f1d;}.cls-4{fill:#bdaa96;}.cls-2{stroke:#777;stroke-miterlimit:10;stroke-width:.2px;}.cls-5{fill:#333;}.cls-6{fill:url(#_10_dpi_40_3);opacity:.2;}</style><pattern id="_10_dpi_40_3" x="0" y="0" width="28.8" height="28.8" patternTransform="translate(-4904.11 -1651.76) scale(.16)" patternUnits="userSpaceOnUse" viewBox="0 0 28.8 28.8"><rect class="cls-1" x="0" y="0" width="28.8" height="28.8"/><path class="cls-3" d="M28.8,31.68c1.59,0,2.88-1.29,2.88-2.88s-1.29-2.88-2.88-2.88-2.88,1.29-2.88,2.88,1.29,2.88,2.88,2.88Z"/><path class="cls-3" d="M14.4,31.68c1.59,0,2.88-1.29,2.88-2.88s-1.29-2.88-2.88-2.88-2.88,1.29-2.88,2.88,1.29,2.88,2.88,2.88Z"/><path class="cls-3" d="M28.8,17.28c1.59,0,2.88-1.29,2.88-2.88s-1.29-2.88-2.88-2.88-2.88,1.29-2.88,2.88,1.29,2.88,2.88,2.88Z"/><path class="cls-3" d="M14.4,17.28c1.59,0,2.88-1.29,2.88-2.88s-1.29-2.88-2.88-2.88-2.88,1.29-2.88,2.88,1.29,2.88,2.88,2.88Z"/><path class="cls-3" d="M7.2,24.48c1.59,0,2.88-1.29,2.88-2.88s-1.29-2.88-2.88-2.88-2.88,1.29-2.88,2.88,1.29,2.88,2.88,2.88Z"/><path class="cls-3" d="M21.6,24.48c1.59,0,2.88-1.29,2.88-2.88s-1.29-2.88-2.88-2.88-2.88,1.29-2.88,2.88,1.29,2.88,2.88,2.88Z"/><path class="cls-3" d="M7.2,10.08c1.59,0,2.88-1.29,2.88-2.88s-1.29-2.88-2.88-2.88-2.88,1.29-2.88,2.88,1.29,2.88,2.88,2.88Z"/><path class="cls-3" d="M21.6,10.08c1.59,0,2.88-1.29,2.88-2.88s-1.29-2.88-2.88-2.88-2.88,1.29-2.88,2.88,1.29,2.88,2.88,2.88Z"/><path class="cls-3" d="M0,31.68c1.59,0,2.88-1.29,2.88-2.88S1.59,25.92,0,25.92s-2.88,1.29-2.88,2.88S-1.59,31.68,0,31.68Z"/><path class="cls-3" d="M0,17.28c1.59,0,2.88-1.29,2.88-2.88S1.59,11.52,0,11.52s-2.88,1.29-2.88,2.88S-1.59,17.28,0,17.28Z"/><path class="cls-3" d="M28.8,2.88c1.59,0,2.88-1.29,2.88-2.88s-1.29-2.88-2.88-2.88-2.88,1.29-2.88,2.88,1.29,2.88,2.88,2.88Z"/><path class="cls-3" d="M14.4,2.88c1.59,0,2.88-1.29,2.88-2.88s-1.29-2.88-2.88-2.88-2.88,1.29-2.88,2.88,1.29,2.88,2.88,2.88Z"/><path class="cls-3" d="M0,2.88c1.59,0,2.88-1.29,2.88-2.88S1.59-2.88,0-2.88-2.88-1.59-2.88,0-1.59,2.88,0,2.88Z"/></pattern></defs><g id="_地図"><g id="_点"><rect class="cls-4" x="6.39" y="6.58" width="7.82" height="7.79"/><rect class="cls-6" x="6.41" y="6.6" width="7.79" height="7.75"/><circle class="cls-2" cx="5.5" cy="5.5" r="5.4"/><circle class="cls-2" cx="5.5" cy="5.52" r="4.27"/><circle class="cls-2" cx="5.5" cy="5.54" r="3.17"/><circle class="cls-2" cx="5.5" cy="5.47" r="2.13"/><circle class="cls-2" cx="5.5" cy="5.51" r="1.06"/><path class="cls-5" d="M5.65,4.77c-.09-.02-.18-.02-.27,0-.1.02-.19.05-.27.11-.08.05-.15.12-.21.2-.05.08-.09.16-.1.25-.02.09-.02.18,0,.27.02.1.05.19.11.27s.12.15.2.21c.08.05.16.09.25.1s.18.02.27,0c.1-.02.19-.05.27-.11s.15-.12.21-.2c.05-.08.09-.16.1-.25s.02-.18,0-.27c-.02-.1-.05-.19-.11-.27-.05-.08-.12-.15-.2-.21-.08-.05-.16-.09-.25-.1Z"/></g></g></svg>