<?xml version="1.0" encoding="UTF-8"?><svg id="Layer_2" xmlns="http://www.w3.org/2000/svg" xmlns:xlink="http://www.w3.org/1999/xlink" viewBox="0 0 17.08 14.44"><defs><style>.cls-1,.cls-2{fill:none;}.cls-3{fill:#bdaa96;}.cls-2{stroke:#777;stroke-miterlimit:10;stroke-width:.2px;}.cls-4{clip-path:url(#clippath-1);}.cls-5{clip-path:url(#clippath-3);}.cls-6{clip-path:url(#clippath-4);}.cls-7{clip-path:url(#clippath-2);}.cls-8{clip-path:url(#clippath-6);}.cls-9{clip-path:url(#clippath-5);}.cls-10{fill:#958679;}.cls-11{fill:#333;}.cls-12{clip-path:url(#clippath);}</style><clipPath id="clippath"><rect class="cls-1" x="5.27" y="5.56" width="7.79" height="7.75"/></clipPath><clipPath id="clippath-1"><rect class="cls-1" x="12.15" y="5.08" width="4.48" height="4.46"/></clipPath><clipPath id="clippath-2"><rect class="cls-1" x="12.15" y="9.53" width="4.48" height="4.46"/></clipPath><clipPath id="clippath-3"><rect class="cls-1" x="7.67" y="5.08" width="4.48" height="4.46"/></clipPath><clipPath id="clippath-4"><rect class="cls-1" x="7.67" y="9.53" width="4.48" height="4.46"/></clipPath><clipPath id="clippath-5"><rect class="cls-1" x="3.2" y="5.08" width="4.48" height="4.46"/></clipPath><clipPath id="clippath-6"><rect class="cls-1" x="3.2" y="9.53" width="4.48" height="4.46"/></clipPath></defs><g id="_アイコン"><rect class="cls-3" x="5.26" y="5.54" width="7.82" height="7.79"/><g class="cls-12"><g class="cls-4"><path class="cls-10" d="M16.63,9.98c.25,0,.45-.2.45-.45s-.2-.45-.45-.45-.45.2-.45.45.2.45.45.45Z"/><path class="cls-10" d="M14.39,9.98c.25,0,.45-.2.45-.45s-.2-.45-.45-.45-.45.2-.45.45.2.45.45.45Z"/><path class="cls-10" d="M16.63,7.75c.25,0,.45-.2.45-.45s-.2-.45-.45-.45-.45.2-.45.45.2.45.45.45Z"/><path class="cls-10" d="M14.39,7.75c.25,0,.45-.2.45-.45s-.2-.45-.45-.45-.45.2-.45.45.2.45.45.45Z"/><path class="cls-10" d="M13.27,8.87c.25,0,.45-.2.45-.45s-.2-.45-.45-.45-.45.2-.45.45.2.45.45.45Z"/><path class="cls-10" d="M15.51,8.87c.25,0,.45-.2.45-.45s-.2-.45-.45-.45-.45.2-.45.45.2.45.45.45Z"/><path class="cls-10" d="M13.27,6.64c.25,0,.45-.2.45-.45s-.2-.45-.45-.45-.45.2-.45.45.2.45.45.45Z"/><path class="cls-10" d="M15.51,6.64c.25,0,.45-.2.45-.45s-.2-.45-.45-.45-.45.2-.45.45.2.45.45.45Z"/><path class="cls-10" d="M12.15,9.98c.25,0,.45-.2.45-.45s-.2-.45-.45-.45-.45.2-.45.45.2.45.45.45Z"/><path class="cls-10" d="M12.15,7.75c.25,0,.45-.2.45-.45s-.2-.45-.45-.45-.45.2-.45.45.2.45.45.45Z"/><path class="cls-10" d="M16.63,5.52c.25,0,.45-.2.45-.45s-.2-.45-.45-.45-.45.2-.45.45.2.45.45.45Z"/><path class="cls-10" d="M14.39,5.52c.25,0,.45-.2.45-.45s-.2-.45-.45-.45-.45.2-.45.45.2.45.45.45Z"/><path class="cls-10" d="M12.15,5.52c.25,0,.45-.2.45-.45s-.2-.45-.45-.45-.45.2-.45.45.2.45.45.45Z"/></g><g class="cls-7"><path class="cls-10" d="M16.63,14.44c.25,0,.45-.2.45-.45s-.2-.45-.45-.45-.45.2-.45.45.2.45.45.45Z"/><path class="cls-10" d="M14.39,14.44c.25,0,.45-.2.45-.45s-.2-.45-.45-.45-.45.2-.45.45.2.45.45.45Z"/><path class="cls-10" d="M16.63,12.21c.25,0,.45-.2.45-.45s-.2-.45-.45-.45-.45.2-.45.45.2.45.45.45Z"/><path class="cls-10" d="M14.39,12.21c.25,0,.45-.2.45-.45s-.2-.45-.45-.45-.45.2-.45.45.2.45.45.45Z"/><path class="cls-10" d="M13.27,13.32c.25,0,.45-.2.45-.45s-.2-.45-.45-.45-.45.2-.45.45.2.45.45.45Z"/><path class="cls-10" d="M15.51,13.32c.25,0,.45-.2.45-.45s-.2-.45-.45-.45-.45.2-.45.45.2.45.45.45Z"/><path class="cls-10" d="M13.27,11.09c.25,0,.45-.2.45-.45s-.2-.45-.45-.45-.45.2-.45.45.2.45.45.45Z"/><path class="cls-10" d="M15.51,11.09c.25,0,.45-.2.45-.45s-.2-.45-.45-.45-.45.2-.45.45.2.45.45.45Z"/><path class="cls-10" d="M12.15,14.44c.25,0,.45-.2.45-.45s-.2-.45-.45-.45-.45.2-.45.45.2.45.45.45Z"/><path class="cls-10" d="M12.15,12.21c.25,0,.45-.2.45-.45s-.2-.45-.45-.45-.45.2-.45.45.2.45.45.45Z"/><path class="cls-10" d="M16.63,9.98c.25,0,.45-.2.45-.45s-.2-.45-.45-.45-.45.2-.45.45.2.45.45.45Z"/><path class="cls-10" d="M14.39,9.98c.25,0,.45-.2.45-.45s-.2-.45-.45-.45-.45.2-.45.45.2.45.45.45Z"/><path class="cls-10" d="M12.15,9.98c.25,0,.45-.2.45-.45s-.2-.45-.45-.45-.45.2-.45.45.2.45.45.45Z"/></g><g class="cls-5"><path class="cls-10" d="M12.15,9.98c.25,0,.45-.2.45-.45s-.2-.45-.45-.45-.45.2-.45.45.2.45.45.45Z"/><path class="cls-10" d="M9.91,9.98c.25,0,.45-.2.45-.45s-.2-.45-.45-.45-.45.2-.45.45.2.45.45.45Z"/><path class="cls-10" d="M12.15,7.75c.25,0,.45-.2.45-.45s-.2-.45-.45-.45-.45.2-.45.45.2.45.45.45Z"/><path class="cls-10" d="M9.91,7.75c.25,0,.45-.2.45-.45s-.2-.45-.45-.45-.45.2-.45.45.2.45.45.45Z"/><path class="cls-10" d="M8.79,8.87c.25,0,.45-.2.45-.45s-.2-.45-.45-.45-.45.2-.45.45.2.45.45.45Z"/><path class="cls-10" d="M11.03,8.87c.25,0,.45-.2.45-.45s-.2-.45-.45-.45-.45.2-.45.45.2.45.45.45Z"/><path class="cls-10" d="M8.79,6.64c.25,0,.45-.2.45-.45s-.2-.45-.45-.45-.45.2-.45.45.2.45.45.45Z"/><path class="cls-10" d="M11.03,6.64c.25,0,.45-.2.45-.45s-.2-.45-.45-.45-.45.2-.45.45.2.45.45.45Z"/><path class="cls-10" d="M7.67,9.98c.25,0,.45-.2.45-.45s-.2-.45-.45-.45-.45.2-.45.45.2.45.45.45Z"/><path class="cls-10" d="M7.67,7.75c.25,0,.45-.2.45-.45s-.2-.45-.45-.45-.45.2-.45.45.2.45.45.45Z"/><path class="cls-10" d="M12.15,5.52c.25,0,.45-.2.45-.45s-.2-.45-.45-.45-.45.2-.45.45.2.45.45.45Z"/><path class="cls-10" d="M9.91,5.52c.25,0,.45-.2.45-.45s-.2-.45-.45-.45-.45.2-.45.45.2.45.45.45Z"/><path class="cls-10" d="M7.67,5.52c.25,0,.45-.2.45-.45s-.2-.45-.45-.45-.45.2-.45.45.2.45.45.45Z"/></g><g class="cls-6"><path class="cls-10" d="M12.15,14.44c.25,0,.45-.2.45-.45s-.2-.45-.45-.45-.45.2-.45.45.2.45.45.45Z"/><path class="cls-10" d="M9.91,14.44c.25,0,.45-.2.45-.45s-.2-.45-.45-.45-.45.2-.45.45.2.45.45.45Z"/><path class="cls-10" d="M12.15,12.21c.25,0,.45-.2.45-.45s-.2-.45-.45-.45-.45.2-.45.45.2.45.45.45Z"/><path class="cls-10" d="M9.91,12.21c.25,0,.45-.2.45-.45s-.2-.45-.45-.45-.45.2-.45.45.2.45.45.45Z"/><path class="cls-10" d="M8.79,13.32c.25,0,.45-.2.45-.45s-.2-.45-.45-.45-.45.2-.45.45.2.45.45.45Z"/><path class="cls-10" d="M11.03,13.32c.25,0,.45-.2.45-.45s-.2-.45-.45-.45-.45.2-.45.45.2.45.45.45Z"/><path class="cls-10" d="M8.79,11.09c.25,0,.45-.2.45-.45s-.2-.45-.45-.45-.45.2-.45.45.2.45.45.45Z"/><path class="cls-10" d="M11.03,11.09c.25,0,.45-.2.45-.45s-.2-.45-.45-.45-.45.2-.45.45.2.45.45.45Z"/><path class="cls-10" d="M7.67,14.44c.25,0,.45-.2.45-.45s-.2-.45-.45-.45-.45.2-.45.45.2.45.45.45Z"/><path class="cls-10" d="M7.67,12.21c.25,0,.45-.2.45-.45s-.2-.45-.45-.45-.45.2-.45.45.2.45.45.45Z"/><path class="cls-10" d="M12.15,9.98c.25,0,.45-.2.45-.45s-.2-.45-.45-.45-.45.2-.45.45.2.45.45.45Z"/><path class="cls-10" d="M9.91,9.98c.25,0,.45-.2.45-.45s-.2-.45-.45-.45-.45.2-.45.45.2.45.45.45Z"/><path class="cls-10" d="M7.67,9.98c.25,0,.45-.2.45-.45s-.2-.45-.45-.45-.45.2-.45.45.2.45.45.45Z"/></g><g class="cls-9"><path class="cls-10" d="M7.67,9.98c.25,0,.45-.2.45-.45s-.2-.45-.45-.45-.45.2-.45.45.2.45.45.45Z"/><path class="cls-10" d="M5.43,9.98c.25,0,.45-.2.45-.45s-.2-.45-.45-.45-.45.2-.45.45.2.45.45.45Z"/><path class="cls-10" d="M7.67,7.75c.25,0,.45-.2.45-.45s-.2-.45-.45-.45-.45.2-.45.45.2.45.45.45Z"/><path class="cls-10" d="M5.43,7.75c.25,0,.45-.2.45-.45s-.2-.45-.45-.45-.45.2-.45.45.2.45.45.45Z"/><path class="cls-10" d="M4.31,8.87c.25,0,.45-.2.45-.45s-.2-.45-.45-.45-.45.2-.45.45.2.45.45.45Z"/><path class="cls-10" d="M6.55,8.87c.25,0,.45-.2.45-.45s-.2-.45-.45-.45-.45.2-.45.45.2.45.45.45Z"/><path class="cls-10" d="M4.31,6.64c.25,0,.45-.2.45-.45s-.2-.45-.45-.45-.45.2-.45.45.2.45.45.45Z"/><path class="cls-10" d="M6.55,6.64c.25,0,.45-.2.45-.45s-.2-.45-.45-.45-.45.2-.45.45.2.45.45.45Z"/><path class="cls-10" d="M3.19,9.98c.25,0,.45-.2.45-.45s-.2-.45-.45-.45-.45.2-.45.45.2.45.45.45Z"/><path class="cls-10" d="M3.19,7.75c.25,0,.45-.2.45-.45s-.2-.45-.45-.45-.45.2-.45.45.2.45.45.45Z"/><path class="cls-10" d="M7.67,5.52c.25,0,.45-.2.45-.45s-.2-.45-.45-.45-.45.2-.45.45.2.45.45.45Z"/><path class="cls-10" d="M5.43,5.52c.25,0,.45-.2.45-.45s-.2-.45-.45-.45-.45.2-.45.45.2.45.45.45Z"/><path class="cls-10" d="M3.19,5.52c.25,0,.45-.2.45-.45s-.2-.45-.45-.45-.45.2-.45.45.2.45.45.45Z"/></g><g class="cls-8"><path class="cls-10" d="M7.67,14.44c.25,0,.45-.2.45-.45s-.2-.45-.45-.45-.45.2-.45.45.2.45.45.45Z"/><path class="cls-10" d="M5.43,14.44c.25,0,.45-.2.45-.45s-.2-.45-.45-.45-.45.2-.45.45.2.45.45.45Z"/><path class="cls-10" d="M7.67,12.21c.25,0,.45-.2.45-.45s-.2-.45-.45-.45-.45.2-.45.45.2.45.45.45Z"/><path class="cls-10" d="M5.43,12.21c.25,0,.45-.2.45-.45s-.2-.45-.45-.45-.45.2-.45.45.2.45.45.45Z"/><path class="cls-10" d="M4.31,13.32c.25,0,.45-.2.45-.45s-.2-.45-.45-.45-.45.2-.45.45.2.45.45.45Z"/><path class="cls-10" d="M6.55,13.32c.25,0,.45-.2.45-.45s-.2-.45-.45-.45-.45.2-.45.45.2.45.45.45Z"/><path class="cls-10" d="M4.31,11.09c.25,0,.45-.2.45-.45s-.2-.45-.45-.45-.45.2-.45.45.2.45.45.45Z"/><path class="cls-10" d="M6.55,11.09c.25,0,.45-.2.45-.45s-.2-.45-.45-.45-.45.2-.45.45.2.45.45.45Z"/><path class="cls-10" d="M3.19,14.44c.25,0,.45-.2.45-.45s-.2-.45-.45-.45-.45.2-.45.45.2.45.45.45Z"/><path class="cls-10" d="M3.19,12.21c.25,0,.45-.2.45-.45s-.2-.45-.45-.45-.45.2-.45.45.2.45.45.45Z"/><path class="cls-10" d="M7.67,9.98c.25,0,.45-.2.45-.45s-.2-.45-.45-.45-.45.2-.45.45.2.45.45.45Z"/><path class="cls-10" d="M5.43,9.98c.25,0,.45-.2.45-.45s-.2-.45-.45-.45-.45.2-.45.45.2.45.45.45Z"/><path class="cls-10" d="M3.19,9.98c.25,0,.45-.2.45-.45s-.2-.45-.45-.45-.45.2-.45.45.2.45.45.45Z"/></g></g><circle class="cls-2" cx="4.92" cy="4.92" r="4.82"/><circle class="cls-2" cx="4.92" cy="4.94" r="3.81"/><circle class="cls-2" cx="4.92" cy="4.96" r="2.83"/><circle class="cls-2" cx="4.92" cy="4.9" r="1.9"/><circle class="cls-2" cx="4.92" cy="4.93" r=".95"/><path class="cls-11" d="M5.06,4.3c-.08-.02-.16-.02-.24,0-.09.01-.17.05-.24.09-.07.05-.14.11-.18.18-.04.07-.08.14-.09.22-.02.08-.02.16,0,.24.01.09.05.17.09.24s.11.14.18.18c.07.04.14.08.22.09s.16.02.24,0c.09-.01.17-.05.24-.09s.14-.11.18-.18c.04-.07.08-.14.09-.22s.02-.16,0-.24c-.01-.09-.05-.17-.09-.24-.05-.07-.11-.14-.18-.18-.07-.04-.14-.08-.22-.09Z"/></g></svg>