<?xml version="1.0" encoding="UTF-8"?><svg id="Layer_2" xmlns="http://www.w3.org/2000/svg" viewBox="0 0 74.17 74.17"><defs><style>.cls-1{fill:#010101;}</style></defs><g id="hatch"><rect class="cls-1" x="13.48" y="58.85" width="1.63" height="1.63"/><rect class="cls-1" x="20.01" y="62.11" width="1.63" height="1.63"/><rect class="cls-1" x="10.22" y="53.95" width="1.63" height="1.63"/><rect class="cls-1" x="11.85" y="58.85" width="1.63" height="1.63"/><rect class="cls-1" x="11.85" y="53.95" width="1.63" height="1.63"/><rect class="cls-1" x="8.58" y="53.95" width="1.63" height="1.63"/><rect class="cls-1" x="11.85" y="60.48" width="1.63" height="1.63"/><rect class="cls-1" x="8.58" y="52.32" width="1.63" height="1.63"/><rect class="cls-1" x="20.01" y="60.48" width="1.63" height="1.63"/><rect class="cls-1" x="15.11" y="49.05" width="1.63" height="1.63"/><rect class="cls-1" x="11.85" y="63.73" width="1.63" height="1.63"/><rect class="cls-1" x="15.11" y="47.42" width="1.63" height="1.63"/><rect class="cls-1" x="21.64" y="47.42" width="1.63" height="1.63"/><rect class="cls-1" x="13.48" y="65.36" width="1.63" height="1.63"/><rect class="cls-1" x="21.64" y="45.79" width="1.63" height="1.63"/><rect class="cls-1" x="18.38" y="62.11" width="1.63" height="1.63"/><rect class="cls-1" x="20.01" y="45.79" width="1.63" height="1.63"/><rect class="cls-1" x="10.22" y="63.73" width="1.63" height="1.63"/><rect class="cls-1" x="18.38" y="45.79" width="1.63" height="1.63"/><rect class="cls-1" x="21.64" y="58.85" width="1.63" height="1.63"/><rect class="cls-1" x="16.75" y="44.16" width="1.63" height="1.63"/><rect class="cls-1" x="8.58" y="65.36" width="1.63" height="1.63"/><rect class="cls-1" x="15.11" y="45.79" width="1.63" height="1.63"/><rect class="cls-1" x="15.11" y="44.16" width="1.63" height="1.63"/><rect class="cls-1" x="10.22" y="62.11" width="1.63" height="1.63"/><rect class="cls-1" x="13.48" y="45.79" width="1.63" height="1.63"/><rect class="cls-1" x="21.64" y="18.04" width="1.63" height="1.63"/><rect class="cls-1" x="11.85" y="45.79" width="1.63" height="1.63"/><rect class="cls-1" x="8.58" y="62.11" width="1.63" height="1.63"/><rect class="cls-1" x="10.22" y="45.79" width="1.63" height="1.63"/><rect class="cls-1" x="23.27" y="19.67" width="1.63" height="1.63"/><rect class="cls-1" x="8.58" y="45.79" width="1.63" height="1.63"/><rect class="cls-1" x="15.11" y="57.22" width="1.63" height="1.63"/><rect class="cls-1" x="8.58" y="44.16" width="1.63" height="1.63"/><rect class="cls-1" x="21.64" y="22.93" width="1.63" height="1.63"/><rect class="cls-1" x="10.22" y="42.52" width="1.63" height="1.63"/><rect class="cls-1" x="6.95" y="63.73" width="1.63" height="1.63"/><rect class="cls-1" x="13.48" y="42.52" width="1.63" height="1.63"/><rect class="cls-1" x="21.64" y="39.26" width="1.63" height="1.63"/><rect class="cls-1" x="15.11" y="42.52" width="1.63" height="1.63"/><rect class="cls-1" x="5.32" y="63.73" width="1.63" height="1.63"/><rect class="cls-1" x="15.11" y="40.89" width="1.63" height="1.63"/><rect class="cls-1" x="28.17" y="42.52" width="1.63" height="1.63"/><rect class="cls-1" x="5.32" y="62.1" width="1.63" height="1.63"/><rect class="cls-1" x="24.91" y="40.89" width="1.63" height="1.63"/><rect class="cls-1" x="26.54" y="42.52" width="1.63" height="1.63"/><rect class="cls-1" x="3.69" y="62.1" width="1.63" height="1.63"/><rect class="cls-1" x="26.54" y="37.63" width="1.63" height="1.63"/><rect class="cls-1" x="28.17" y="39.26" width="1.63" height="1.63"/><rect class="cls-1" x="26.54" y="39.26" width="1.63" height="1.63"/><rect class="cls-1" x="26.54" y="21.3" width="1.63" height="1.63"/><rect class="cls-1" x="26.54" y="35.99" width="1.63" height="1.63"/><rect class="cls-1" x="23.28" y="37.63" width="1.63" height="1.63"/><rect class="cls-1" x="26.54" y="34.36" width="1.63" height="1.63"/><rect class="cls-1" x="26.54" y="19.67" width="1.63" height="1.63"/><rect class="cls-1" x="26.54" y="32.73" width="1.63" height="1.63"/><rect class="cls-1" x="28.17" y="18.04" width="1.63" height="1.63"/><rect class="cls-1" x="21.64" y="34.36" width="1.63" height="1.63"/><rect class="cls-1" x="23.28" y="32.73" width="1.63" height="1.63"/><rect class="cls-1" x="21.64" y="32.73" width="1.63" height="1.63"/><rect class="cls-1" x="21.64" y="29.46" width="1.63" height="1.63"/><rect class="cls-1" x="44.5" y="29.46" width="1.63" height="1.63"/><rect class="cls-1" x="60.82" y="29.46" width="1.63" height="1.63"/><rect class="cls-1" x="20.01" y="53.95" width="1.63" height="1.63"/><rect class="cls-1" x="21.64" y="31.1" width="1.63" height="1.63"/><rect class="cls-1" x="57.56" y="19.67" width="1.63" height="1.63"/><rect class="cls-1" x="57.56" y="21.3" width="1.63" height="1.63"/><rect class="cls-1" x="21.64" y="44.16" width="1.63" height="1.63"/><rect class="cls-1" x="59.19" y="24.57" width="1.63" height="1.63"/><rect class="cls-1" x="60.82" y="24.57" width="1.63" height="1.63"/><rect class="cls-1" x="62.45" y="24.57" width="1.63" height="1.63"/><rect class="cls-1" x="62.45" y="22.93" width="1.63" height="1.63"/><rect class="cls-1" x="60.82" y="21.3" width="1.63" height="1.63"/><rect class="cls-1" x="64.09" y="24.57" width="1.63" height="1.63"/><rect class="cls-1" x="65.72" y="26.2" width="1.63" height="1.63"/><rect class="cls-1" x="59.19" y="27.83" width="1.63" height="1.63"/><rect class="cls-1" x="57.56" y="27.83" width="1.63" height="1.63"/><rect class="cls-1" x="57.56" y="26.2" width="1.63" height="1.63"/><rect class="cls-1" x="55.92" y="27.83" width="1.63" height="1.63"/><rect class="cls-1" x="54.29" y="26.2" width="1.63" height="1.63"/><rect class="cls-1" x="52.66" y="27.83" width="1.63" height="1.63"/><rect class="cls-1" x="49.39" y="27.83" width="1.63" height="1.63"/><rect class="cls-1" x="51.03" y="26.2" width="1.63" height="1.63"/><rect class="cls-1" x="51.03" y="24.57" width="1.63" height="1.63"/><rect class="cls-1" x="51.03" y="13.14" width="1.63" height="1.63"/><rect class="cls-1" x="47.76" y="11.51" width="1.63" height="1.63"/><rect class="cls-1" x="46.13" y="13.14" width="1.63" height="1.63"/><rect class="cls-1" x="46.13" y="14.77" width="1.63" height="1.63"/><rect class="cls-1" x="47.76" y="13.14" width="1.63" height="1.63"/><rect class="cls-1" x="49.39" y="14.77" width="1.63" height="1.63"/><rect class="cls-1" x="46.13" y="16.4" width="1.63" height="1.63"/><rect class="cls-1" x="46.13" y="18.04" width="1.63" height="1.63"/><rect class="cls-1" x="46.13" y="19.67" width="1.63" height="1.63"/><rect class="cls-1" x="47.76" y="18.04" width="1.63" height="1.63"/><rect class="cls-1" x="49.39" y="22.93" width="1.63" height="1.63"/><rect class="cls-1" x="47.76" y="21.3" width="1.63" height="1.63"/><rect class="cls-1" x="47.76" y="22.93" width="1.63" height="1.63"/><rect class="cls-1" x="44.5" y="22.93" width="1.63" height="1.63"/><rect class="cls-1" x="42.86" y="22.93" width="1.63" height="1.63"/><rect class="cls-1" x="39.6" y="16.4" width="1.63" height="1.63"/><rect class="cls-1" x="37.97" y="16.4" width="1.63" height="1.63"/><rect class="cls-1" x="36.33" y="18.04" width="1.63" height="1.63"/><rect class="cls-1" x="61.12" y="34.48" width="4.49" height="4.49"/><path class="cls-1" d="M68.6,31.48v10.47h-10.47v-10.47h10.47ZM67.1,32.98h-7.48v7.48h7.48v-7.48Z"/><path class="cls-1" d="M44.66,35.97c.5,0,1,0,1.5,0,0,1,0,2,0,2.99-.5,0-1,0-1.5,0v4.49c-.5,0-1,0-1.5,0-.02-1.99.01-3.99,0-5.98h1.5c0-.5,0-1,0-1.5Z"/><path class="cls-1" d="M44.66,32.98c0,1,0,2,0,2.99-.5,0-1,0-1.5,0v-2.99c.5,0,1,0,1.5,0Z"/><path class="cls-1" d="M44.66,32.98c0-.5,0-1,0-1.5h5.98v2.99h-1.5v1.5h-1.5v-2.99c-1,0-2,0-2.99,0Z"/><rect class="cls-1" x="34.19" y="34.48" width="4.49" height="4.49"/><path class="cls-1" d="M41.67,31.48v10.47h-10.47v-10.47h10.47ZM40.18,32.98h-7.48v7.48h7.48v-7.48Z"/><path class="cls-1" d="M47.66,38.96c0-.5,0-1,0-1.5h1.5v1.5c-.5,0-1,0-1.5,0Z"/><path class="cls-1" d="M47.66,38.96c0,1,0,2,0,2.99h1.5v-1.5h1.5c0,1,0,2,0,2.99-.5,0-1,0-1.5,0v1.5c-.5,0-1,0-1.5,0v-1.5h-1.5c0-1.49,0-2.99,0-4.49.5,0,1,0,1.5,0Z"/><path class="cls-1" d="M35.69,50.93c0,1,0,2,0,2.99,1.49,0,2.99,0,4.49,0,0,.5,0,1,0,1.5-1,0-2,0-2.99,0v1.5h-5.98v-1.5h1.5v-1.5h1.5v-2.99c.5,0,1,0,1.5,0Z"/><path class="cls-1" d="M37.18,49.43c0,.5,0,1,0,1.5-.5,0-1,0-1.5,0,0-.5,0-1,0-1.5.5,0,1,0,1.5,0Z"/><path class="cls-1" d="M35.69,47.94c0-1.49,0-2.99,0-4.49h1.5v2.99c.5,0,1,0,1.5,0,0,1,0,2,0,2.99-.5,0-1,0-1.5,0,0-.5,0-1,0-1.5-.5,0-1,0-1.5,0Z"/><path class="cls-1" d="M32.7,47.94c1,0,2,0,2.99,0,0,.5,0,1,0,1.5-1,0-2,0-2.99,0,0-.5,0-1,0-1.5Z"/><path class="cls-1" d="M32.7,47.94c-.5,0-1,0-1.5,0v-4.49h2.99v1.5h-1.5c0,1,0,2,0,2.99Z"/><path class="cls-1" d="M32.7,53.92h-1.5v-1.5h1.5c.07,0,0,1.34,0,1.5Z"/><path class="cls-1" d="M43.17,53.92v1.5h4.49v-1.5h-1.5v-1.5h2.99v1.5h1.5v-2.99h-4.49v-1.5h-1.5v1.5h-1.5v-1.5c-.5,0-1,0-1.5,0,0-.5,0-1,0-1.5h-1.5c0-.5,0-1,0-1.5.5,0,1,0,1.5,0v-1.5c-.5,0-1,0-1.5,0,0-.5,0-1,0-1.5,1,0,2,0,2.99,0,0,.5,0,1,0,1.5h2.99v1.5h-1.5v1.5h5.98v-1.5h-1.5c0-.5,0-1,0-1.5h1.5c0-.5,0-1,0-1.5.99,0,2,0,2.99,0,0,.5,0,1,0,1.5h-1.5v1.5h1.5c0,.5,0,1,0,1.5-.5,0-1,0-1.5,0v4.49h1.5c0,.5,0,1,0,1.5-.5,0-1,0-1.5,0v1.5h-1.5c0,1,0,2,0,2.99-1,0-2,0-2.99,0v4.49h-1.5v-2.99h-2.99v-2.99h-2.99c0-.5,0-1,0-1.5.5,0,1,0,1.5,0,0-.5,0-1,0-1.5.5,0,1,0,1.5,0ZM46.16,56.91h-1.5v1.5h1.5v-1.5Z"/><path class="cls-1" d="M40.18,44.95c0,.5,0,1,0,1.5-.5,0-1,0-1.5,0,0-.5,0-1,0-1.5h1.5Z"/><path class="cls-1" d="M43.17,53.92v-1.5h1.5v1.5c-.5,0-1,0-1.5,0Z"/><path class="cls-1" d="M40.18,52.43c.5,0,1,0,1.5,0,0,.5,0,1,0,1.5-.5,0-1,0-1.5,0,0-.5,0-1,0-1.5Z"/><path class="cls-1" d="M40.18,50.93c0,.5,0,1,0,1.5-1,0-2,0-2.99,0,0-.5,0-1,0-1.5,1,0,2,0,2.99,0Z"/><path class="cls-1" d="M41.67,49.43v1.5c-.5,0-1,0-1.5,0,0-.5,0-1,0-1.5h1.5Z"/><rect class="cls-1" x="34.19" y="61.4" width="4.49" height="4.49"/><path class="cls-1" d="M41.67,58.41v10.47h-10.47v-10.47h10.47ZM40.18,59.91h-7.48v7.48h7.48v-7.48Z"/><path class="cls-1" d="M65.61,50.93c0-.5,0-1,0-1.5h2.99v4.49c-.5,0-1,0-1.5,0,0-1,0-2,0-2.99-.5,0-1,0-1.5,0Z"/><path class="cls-1" d="M67.1,44.95c.5,0,1,0,1.5,0v2.99h-2.99v-1.5h1.5v-1.5Z"/><path class="cls-1" d="M67.1,44.95c-1,0-2,0-2.99,0v-1.5h2.99v1.5Z"/><path class="cls-1" d="M62.61,49.43c.5,0,1,0,1.5,0v1.5c.5,0,1,0,1.5,0,0,1,0,2,0,2.99-.5,0-1,0-1.5,0v-1.5c-.5,0-1,0-1.5,0,0-1,0-2,0-2.99Z"/><rect class="cls-1" x="57.56" y="24.57" width="1.63" height="1.63"/><rect class="cls-1" x="58.13" y="58.41" width="1.5" height="1.5"/><rect class="cls-1" x="55.92" y="22.93" width="1.63" height="1.63"/><path class="cls-1" d="M67.1,53.92c0,.5,0,1,0,1.5-.5,0-1,0-1.5,0,0-.5,0-1,0-1.5.5,0,1,0,1.5,0Z"/><rect class="cls-1" x="55.92" y="21.3" width="1.63" height="1.63"/><rect class="cls-1" x="67.1" y="64.39" width="1.5" height="1.5"/><rect class="cls-1" x="55.92" y="19.67" width="1.63" height="1.63"/><path class="cls-1" d="M49.15,67.38h1.5v-1.5h2.99v-1.5h1.5v1.5h1.5v-1.5h1.5c0,1,0,2,0,2.99-.5,0-1,0-1.5,0v1.5h-2.99v-1.5h-1.5v1.5h-2.99c0-.5,0-1,0-1.5Z"/><rect class="cls-1" x="54.29" y="21.3" width="1.63" height="1.63"/><path class="cls-1" d="M49.15,67.38h-1.5v-1.5h1.5c0,.5,0,1,0,1.5Z"/><rect class="cls-1" x="55.92" y="18.04" width="1.63" height="1.63"/><path class="cls-1" d="M44.66,65.89c0,1,0,2,0,2.99h-1.5v-2.99c.5,0,1,0,1.5,0Z"/><rect class="cls-1" x="59.19" y="18.04" width="1.63" height="1.63"/><path class="cls-1" d="M44.66,64.39c.5,0,1,0,1.5,0v1.5c-.5,0-1,0-1.5,0,0-.5,0-1,0-1.5Z"/><rect class="cls-1" x="59.19" y="16.4" width="1.63" height="1.63"/><path class="cls-1" d="M44.66,64.39c-.5,0-1,0-1.5,0v-1.5h1.5c0,.5,0,1,0,1.5Z"/><rect class="cls-1" x="59.19" y="14.77" width="1.63" height="1.63"/><rect class="cls-1" x="65.61" y="67.38" width="2.99" height="1.5"/><rect class="cls-1" x="62.45" y="18.04" width="1.63" height="1.63"/><path class="cls-1" d="M58.13,67.38c1,0,2,0,2.99,0v1.5h-2.99c0-.5,0-1,0-1.5Z"/><rect class="cls-1" x="62.45" y="16.4" width="1.63" height="1.63"/><path class="cls-1" d="M50.65,59.91c0,.5,0,1,0,1.5.5,0,1,0,1.5,0,0,.5,0,1,0,1.5h-1.5v1.5h-1.5v-4.49c.5,0,1,0,1.5,0Z"/><rect class="cls-1" x="57.56" y="16.4" width="1.63" height="1.63"/><rect class="cls-1" x="57.56" y="18.04" width="1.63" height="1.63"/><path class="cls-1" d="M64.11,65.89c0,.16.07,1.5,0,1.5h-1.5v-1.5c.5,0,1,0,1.5,0Z"/><rect class="cls-1" x="60.82" y="16.4" width="1.63" height="1.63"/><rect class="cls-1" x="37.97" y="21.3" width="1.63" height="1.63"/><rect class="cls-1" x="62.45" y="19.67" width="1.63" height="1.63"/><path class="cls-1" d="M68.6,61.4h-4.49v1.5h1.5v2.98l-1.5.03v-1.51h-1.5v1.5h-2.99v-3h-4.49v-1.5h-2.99v-1.5s-1.5,0-1.5,0v-1.5h1.5v-1.5h1.5v-2.99h2.99v-1.5h1.5v-1.5h-2.99v-1.5h-1.5v-1.5h4.49v1.5h2.99s0,2.99,0,2.99h1.5s0,2.99,0,2.99h2.99s0,1.5,0,1.5h-1.5v2.99h1.5v-1.5h1.5v-1.5h1.5v4.49ZM61.12,56.91h-4.49v4.49h4.49v-4.49ZM61.12,53.92h-1.5v1.5h1.5v-1.5Z"/><rect class="cls-1" x="62.45" y="21.3" width="1.63" height="1.63"/><polygon class="cls-1" points="56.63 34.48 53.64 34.49 53.64 32.98 52.14 32.98 52.14 31.48 55.13 31.48 55.13 32.98 56.62 32.98 56.63 34.48"/><rect class="cls-1" x="64.09" y="21.3" width="1.63" height="1.63"/><rect class="cls-1" x="39.6" y="19.67" width="1.63" height="1.63"/><rect class="cls-1" x="65.72" y="21.3" width="1.63" height="1.63"/><polygon class="cls-1" points="53.64 34.49 53.64 35.97 56.63 35.97 56.63 44.95 58.13 44.95 58.13 43.45 62.61 43.45 62.61 44.95 59.62 44.95 59.62 46.44 62.61 46.44 62.61 49.43 61.12 49.43 61.12 47.94 58.13 47.94 58.13 46.44 55.13 46.44 55.13 43.45 53.64 43.45 53.64 41.96 55.13 41.95 55.13 40.46 53.64 40.46 53.64 41.95 52.14 41.95 52.14 38.96 50.65 38.96 50.65 37.47 52.14 37.47 52.14 34.5 53.64 34.49"/><rect class="cls-1" x="67.35" y="19.67" width="1.63" height="1.63"/><rect class="cls-1" x="39.6" y="21.3" width="1.63" height="1.63"/><rect class="cls-1" x="67.35" y="21.3" width="1.63" height="1.63"/><rect class="cls-1" x="39.6" y="22.93" width="1.63" height="1.63"/><rect class="cls-1" x="67.35" y="16.4" width="1.63" height="1.63"/><rect class="cls-1" x="39.6" y="24.57" width="1.63" height="1.63"/><rect class="cls-1" x="67.35" y="14.77" width="1.63" height="1.63"/><rect class="cls-1" x="39.6" y="26.2" width="1.63" height="1.63"/><rect class="cls-1" x="67.35" y="13.14" width="1.63" height="1.63"/><rect class="cls-1" x="41.23" y="26.2" width="1.63" height="1.63"/><rect class="cls-1" x="65.72" y="13.14" width="1.63" height="1.63"/><rect class="cls-1" x="41.23" y="27.83" width="1.63" height="1.63"/><rect class="cls-1" x="64.09" y="14.77" width="1.63" height="1.63"/><rect class="cls-1" x="42.86" y="27.83" width="1.63" height="1.63"/><rect class="cls-1" x="64.09" y="18.04" width="1.63" height="1.63"/><rect class="cls-1" x="44.5" y="27.83" width="1.63" height="1.63"/><rect class="cls-1" x="60.82" y="14.77" width="1.63" height="1.63"/><rect class="cls-1" x="6.95" y="67" width="1.63" height="1.63"/><rect class="cls-1" x="60.82" y="13.14" width="1.63" height="1.63"/><rect class="cls-1" x="8.58" y="67" width="1.63" height="1.63"/><rect class="cls-1" x="62.45" y="13.14" width="1.63" height="1.63"/><rect class="cls-1" x="23.27" y="29.46" width="1.63" height="1.63"/><rect class="cls-1" x="59.19" y="9.87" width="1.63" height="1.63"/><rect class="cls-1" x="24.91" y="21.3" width="1.63" height="1.63"/><rect class="cls-1" x="62.45" y="9.87" width="1.63" height="1.63"/><rect class="cls-1" x="33.07" y="26.2" width="1.63" height="1.63"/><rect class="cls-1" x="62.45" y="11.51" width="1.63" height="1.63"/><rect class="cls-1" x="31.44" y="22.93" width="1.63" height="1.63"/><rect class="cls-1" x="57.56" y="8.24" width="1.63" height="1.63"/><rect class="cls-1" x="41.23" y="24.6" width="1.63" height="1.63"/><rect class="cls-1" x="59.19" y="8.24" width="1.63" height="1.63"/><rect class="cls-1" x="21.64" y="19.67" width="1.63" height="1.63"/><rect class="cls-1" x="59.19" y="4.98" width="1.63" height="1.63"/><polygon class="cls-1" points=".28 65.69 .28 65.55 .35 65.48 .56 65.41 .9 65.41 1.67 65.41 1.95 65.48 2.22 65.48 2.92 65.48 3.27 65.41 3.82 65.41 5.98 65.41 6.19 65.48 6.39 65.48 6.67 65.48 6.95 65.48 7.78 65.55 8.69 65.41 9.03 65.41 9.24 65.41 9.52 65.48 9.73 65.48 10.7 65.41 11.4 65.41 12.09 65.34 12.51 65.41 13.14 65.48 13.55 65.41 13.76 65.48 14.25 65.48 15.5 65.41 15.85 65.41 16.33 65.41 16.54 65.41 16.96 65.41 17.65 65.41 18.21 65.34 19.11 65.41 19.53 65.41 19.88 65.41 20.29 65.41 20.78 65.41 21.2 65.41 23.7 65.34 24.12 65.41 24.53 65.41 24.88 65.41 25.44 65.48 28.36 65.48 28.98 65.41 29.47 65.41 30.02 65.41 30.86 65.41 32.25 65.34 33.15 65.41 33.71 65.41 33.99 65.41 34.47 65.41 35.38 65.34 36.07 65.34 36.35 65.34 36.56 65.41 36.7 65.41 38.36 65.41 38.85 65.41 39.2 65.41 39.89 65.48 40.66 65.41 41.56 65.34 41.98 65.34 42.81 65.34 43.58 65.34 44.06 65.34 44.55 65.34 45.04 65.41 46.08 65.41 46.7 65.41 47.05 65.41 48.86 65.41 49.69 65.41 50.6 65.41 51.36 65.41 52.75 65.34 53.44 65.34 54.35 65.34 55.46 65.34 57.34 65.41 58.24 65.41 59 65.41 59.28 65.41 60.46 65.34 61.65 65.41 61.99 65.34 62.48 65.34 63.24 65.34 64.91 65.34 65.68 65.27 66.51 65.34 67.48 65.34 68.25 65.34 69.22 65.34 69.85 65.34 70.4 65.34 70.82 65.41 71.45 65.41 72.14 65.41 72.63 65.34 73.04 65.34 73.46 65.41 73.88 65.41 73.95 65.48 73.81 65.48 73.39 65.55 73.18 65.48 72.9 65.48 72.49 65.48 72.21 65.48 72.07 65.55 71.65 65.55 71.58 65.55 71.17 65.55 70.33 65.48 70.06 65.48 69.57 65.48 69.22 65.48 68.73 65.48 68.11 65.48 67.69 65.41 67.48 65.41 66.86 65.48 66.58 65.48 66.3 65.48 65.75 65.41 65.26 65.41 64.98 65.41 64.77 65.41 64.43 65.41 62.9 65.41 62.48 65.41 62.06 65.48 61.78 65.48 61.44 65.48 60.12 65.41 59.7 65.48 59.28 65.48 59 65.48 58.59 65.48 58.38 65.48 56.78 65.48 56.57 65.48 56.16 65.48 56.02 65.48 55.67 65.48 54.28 65.48 53.79 65.55 53.31 65.48 52.4 65.55 51.92 65.55 51.71 65.48 50.66 65.48 50.32 65.55 49.97 65.55 49.55 65.55 48.79 65.55 48.23 65.55 47.68 65.55 47.19 65.55 46.22 65.48 45.24 65.55 44.62 65.55 44.27 65.48 44.06 65.48 43.92 65.48 42.95 65.55 42.6 65.48 41.84 65.48 41.21 65.55 40.8 65.55 40.45 65.55 39.96 65.55 38.78 65.55 37.74 65.55 37.46 65.55 36.21 65.48 35.65 65.55 35.24 65.55 34.82 65.55 33.99 65.55 33.29 65.48 31.97 65.48 31.55 65.55 31.14 65.55 30.3 65.55 29.82 65.55 29.47 65.55 28.84 65.55 28.29 65.62 28.08 65.62 27.94 65.62 25.65 65.62 25.16 65.62 24.95 65.62 24.81 65.62 24.32 65.55 23.7 65.55 22.45 65.55 21.96 65.55 21.41 65.62 19.67 65.55 18.83 65.55 18.21 65.62 16.4 65.55 15.57 65.62 14.66 65.62 13.97 65.62 13.41 65.62 12.79 65.62 12.3 65.62 11.95 65.55 11.75 65.55 10.56 65.55 10.08 65.55 9.59 65.55 8.34 65.55 7.99 65.62 7.58 65.62 7.23 65.62 6.53 65.62 5.42 65.62 5.14 65.62 2.71 65.62 2.29 65.62 2.09 65.62 1.67 65.69 .9 65.69 .63 65.76 .42 65.69 .28 65.69"/><rect class="cls-1" x="60.82" y="8.24" width="1.63" height="1.63"/><polygon class="cls-1" points=".21 57.42 .21 57.35 .42 57.21 .83 57.28 1.11 57.28 1.6 57.21 1.67 57.28 1.95 57.28 3.2 57.28 3.54 57.21 3.89 57.21 4.59 57.28 4.86 57.28 5.07 57.28 7.78 57.35 8.13 57.28 8.97 57.14 9.8 57.21 10.36 57.28 11.12 57.28 11.54 57.28 12.02 57.35 12.44 57.35 12.93 57.28 13.27 57.28 14.11 57.28 14.32 57.21 14.73 57.28 15.15 57.28 15.64 57.28 15.78 57.28 17.17 57.21 17.51 57.28 17.86 57.28 18.42 57.35 19.32 57.21 20.09 57.28 20.64 57.28 20.85 57.21 21.2 57.21 21.41 57.21 21.89 57.21 22.45 57.21 22.93 57.28 23.56 57.21 23.84 57.21 23.98 57.21 24.46 57.21 25.3 57.21 25.71 57.28 25.99 57.28 26.27 57.21 26.69 57.28 27.45 57.28 27.8 57.28 28.22 57.28 28.49 57.28 28.63 57.28 29.33 57.21 29.61 57.21 30.3 57.28 30.37 57.28 30.65 57.28 31.14 57.28 31.9 57.28 32.11 57.28 32.39 57.28 32.66 57.28 33.08 57.28 33.92 57.28 34.26 57.35 34.61 57.28 35.58 57.28 35.79 57.28 36 57.21 36.42 57.28 36.83 57.28 37.74 57.28 38.02 57.28 38.43 57.28 38.5 57.28 38.78 57.21 39.06 57.21 40.1 57.28 40.73 57.28 40.98 57.28 41.21 57.42 43.16 57.35 43.65 57.35 44.13 57.28 45.17 57.28 45.73 57.28 46.01 57.28 47.05 57.28 48.23 57.21 48.86 57.21 49.34 57.21 49.69 57.28 50.8 57.28 51.15 57.21 51.57 57.21 51.71 57.21 53.65 57.14 54.28 57.14 54.63 57.14 55.25 57.14 55.67 57.28 55.88 57.21 56.09 57.28 58.1 57.28 58.52 57.21 58.73 57.21 59.14 57.21 59.49 57.21 59.91 57.21 60.26 57.21 60.39 57.21 61.02 57.28 61.51 57.28 62.41 57.28 63.59 57.28 63.87 57.21 64.29 57.21 64.84 57.21 65.26 57.21 65.4 57.21 66.02 57.28 66.3 57.28 66.93 57.28 67.69 57.28 68.11 57.21 68.32 57.21 68.53 57.21 69.15 57.28 69.22 57.28 69.78 57.21 69.92 57.28 70.68 57.28 70.89 57.21 71.1 57.21 71.51 57.21 71.79 57.21 72.28 57.21 72.63 57.21 73.11 57.21 73.32 57.28 73.39 57.28 73.6 57.28 73.81 57.28 73.95 57.42 73.88 57.42 73.67 57.42 73.46 57.42 73.11 57.42 72.97 57.42 72.56 57.42 71.72 57.35 71.31 57.35 70.96 57.35 70.54 57.42 70.06 57.42 69.64 57.42 68.87 57.42 68.39 57.35 67.97 57.42 67.55 57.42 67.28 57.42 66.23 57.49 65.61 57.35 65.19 57.42 64.91 57.42 64.56 57.42 64.01 57.35 63.8 57.42 63.52 57.42 62.9 57.42 62.48 57.42 61.02 57.42 60.46 57.42 60.33 57.35 59.98 57.35 59.98 57.42 59.77 57.42 59.63 57.42 59.28 57.49 58.8 57.49 57.96 57.42 57.55 57.42 57.13 57.42 56.36 57.42 55.95 57.42 55.53 57.49 55.25 57.42 54.97 57.42 54.42 57.42 53.93 57.35 53.65 57.35 53.44 57.42 53.24 57.35 52.68 57.35 52.54 57.35 52.4 57.42 52.26 57.42 52.06 57.42 51.99 57.42 51.85 57.35 51.85 57.42 51.64 57.42 51.43 57.42 51.36 57.35 51.36 57.42 50.94 57.49 50.73 57.42 49.97 57.49 49.55 57.42 49.21 57.49 49 57.42 48.79 57.49 48.65 57.49 48.44 57.49 47.61 57.42 47.19 57.42 46.91 57.49 46.63 57.42 46.43 57.42 46.15 57.42 45.87 57.42 44.69 57.42 43.99 57.42 43.78 57.42 43.16 57.49 42.74 57.49 42.39 57.49 41.7 57.56 41.21 57.49 40.87 57.49 40.52 57.56 39.61 57.56 38.85 57.49 38.57 57.49 37.74 57.42 37.18 57.42 36.7 57.49 36 57.42 35.03 57.42 34.54 57.42 33.78 57.42 33.5 57.42 32.66 57.49 31.07 57.49 30.72 57.42 30.23 57.42 29.88 57.42 29.75 57.49 29.4 57.49 29.19 57.49 28.77 57.49 28.56 57.42 28.36 57.42 27.94 57.42 27.59 57.49 27.31 57.49 26.41 57.56 25.99 57.49 25.85 57.49 25.37 57.49 25.23 57.42 24.81 57.42 24.6 57.42 24.26 57.42 23.84 57.56 23.28 57.49 23 57.56 22.66 57.56 22.31 57.49 21.27 57.42 20.43 57.49 19.81 57.49 19.39 57.42 19.18 57.42 17.72 57.49 16.96 57.49 16.75 57.49 15.92 57.49 15.08 57.49 14.66 57.56 13.9 57.56 13.14 57.49 12.79 57.56 10.36 57.49 9.31 57.56 9.1 57.56 8.9 57.56 8.83 57.49 8.62 57.49 8.55 57.56 8.06 57.49 7.58 57.62 7.37 57.62 6.6 57.56 5.28 57.62 5 57.56 4.31 57.56 3.75 57.56 3.2 57.56 2.29 57.56 1.67 57.62 1.25 57.49 1.04 57.49 .83 57.49 .49 57.49 .28 57.49 .21 57.42"/><rect class="cls-1" x="62.45" y="8.24" width="1.63" height="1.63"/><polygon class="cls-1" points="73.95 48.94 73.95 49.08 73.88 49.15 73.67 49.22 73.32 49.22 72.56 49.22 72.28 49.15 72 49.15 71.31 49.15 70.96 49.22 70.4 49.22 68.25 49.22 68.04 49.15 67.83 49.15 67.55 49.15 67.28 49.15 66.44 49.08 65.54 49.22 65.19 49.22 64.98 49.22 64.7 49.15 64.5 49.15 63.52 49.22 62.83 49.22 62.13 49.28 61.72 49.22 61.09 49.15 60.67 49.22 60.46 49.15 59.98 49.15 58.73 49.22 58.38 49.22 57.89 49.22 57.68 49.22 57.27 49.22 56.57 49.22 56.02 49.28 55.11 49.22 54.7 49.22 54.35 49.22 53.93 49.22 53.44 49.22 53.03 49.22 50.53 49.28 50.11 49.22 49.69 49.22 49.34 49.22 48.79 49.15 45.87 49.15 45.24 49.22 44.76 49.22 44.2 49.22 43.37 49.22 41.98 49.28 41.07 49.22 40.52 49.22 40.24 49.22 39.75 49.22 38.85 49.28 38.16 49.28 37.88 49.28 37.67 49.22 37.53 49.22 35.86 49.22 35.38 49.22 35.03 49.22 34.33 49.15 33.57 49.22 32.66 49.28 32.25 49.28 31.41 49.28 30.65 49.28 30.16 49.28 29.68 49.28 29.19 49.22 28.15 49.22 27.52 49.22 27.17 49.22 25.37 49.22 24.53 49.22 23.63 49.22 22.87 49.22 21.48 49.28 20.78 49.28 19.88 49.28 18.76 49.28 16.89 49.22 15.98 49.22 15.22 49.22 14.94 49.22 13.76 49.28 12.58 49.22 12.23 49.28 11.75 49.28 10.98 49.28 9.31 49.28 8.55 49.35 7.71 49.28 6.74 49.28 5.98 49.28 5 49.28 4.38 49.28 3.82 49.28 3.41 49.22 2.78 49.22 2.09 49.22 1.6 49.28 1.18 49.28 .76 49.22 .35 49.22 .28 49.15 .42 49.15 .83 49.08 1.04 49.15 1.32 49.15 1.74 49.15 2.02 49.15 2.15 49.08 2.57 49.08 2.64 49.08 3.06 49.08 3.89 49.15 4.17 49.15 4.66 49.15 5 49.15 5.49 49.15 6.12 49.15 6.53 49.22 6.74 49.22 7.37 49.15 7.64 49.15 7.92 49.15 8.48 49.22 8.97 49.22 9.24 49.22 9.45 49.22 9.8 49.22 11.33 49.22 11.75 49.22 12.16 49.15 12.44 49.15 12.79 49.15 14.11 49.22 14.53 49.15 14.94 49.15 15.22 49.15 15.64 49.15 15.85 49.15 17.44 49.15 17.65 49.15 18.07 49.15 18.21 49.15 18.56 49.15 19.95 49.15 20.43 49.08 20.92 49.15 21.82 49.08 22.31 49.08 22.52 49.15 23.56 49.15 23.91 49.08 24.26 49.08 24.67 49.08 25.44 49.08 25.99 49.08 26.55 49.08 27.04 49.08 28.01 49.15 28.98 49.08 29.61 49.08 29.95 49.15 30.16 49.15 30.3 49.15 31.27 49.08 31.62 49.15 32.39 49.15 33.01 49.08 33.43 49.08 33.78 49.08 34.26 49.08 35.44 49.08 36.49 49.08 36.77 49.08 38.02 49.15 38.57 49.08 38.99 49.08 39.41 49.08 40.24 49.08 40.94 49.15 42.26 49.15 42.67 49.08 43.09 49.08 43.92 49.08 44.41 49.08 44.76 49.08 45.38 49.08 45.94 49.01 46.15 49.01 46.29 49.01 48.58 49.01 49.07 49.01 49.28 49.01 49.41 49.01 49.9 49.08 50.53 49.08 51.78 49.08 52.26 49.08 52.82 49.01 54.56 49.08 55.39 49.08 56.02 49.01 57.82 49.08 58.66 49.01 59.56 49.01 60.26 49.01 60.81 49.01 61.44 49.01 61.92 49.01 62.27 49.08 62.48 49.08 63.66 49.08 64.15 49.08 64.63 49.08 65.89 49.08 66.23 49.01 66.65 49.01 67 49.01 67.69 49.01 68.8 49.01 69.08 49.01 71.51 49.01 71.93 49.01 72.14 49.01 72.56 48.94 73.32 48.94 73.6 48.87 73.81 48.94 73.95 48.94"/><rect class="cls-1" x="64.09" y="8.24" width="1.63" height="1.63"/><polygon class="cls-1" points=".28 41.01 .28 40.94 .49 40.81 .9 40.88 1.18 40.88 1.67 40.81 1.74 40.88 2.02 40.88 3.27 40.88 3.61 40.81 3.96 40.81 4.66 40.88 4.93 40.88 5.14 40.88 7.85 40.94 8.2 40.88 9.03 40.74 9.87 40.81 10.42 40.88 11.19 40.88 11.61 40.88 12.09 40.94 12.51 40.94 13 40.88 13.34 40.88 14.18 40.88 14.39 40.81 14.8 40.88 15.22 40.88 15.71 40.88 15.85 40.88 17.24 40.81 17.58 40.88 17.93 40.88 18.49 40.94 19.39 40.81 20.15 40.88 20.71 40.88 20.92 40.81 21.27 40.81 21.48 40.81 21.96 40.81 22.52 40.81 23 40.88 23.63 40.81 23.91 40.81 24.05 40.81 24.53 40.81 25.37 40.81 25.78 40.88 26.06 40.88 26.34 40.81 26.76 40.88 27.52 40.88 27.87 40.88 28.29 40.88 28.56 40.88 28.7 40.88 29.4 40.81 29.68 40.81 30.37 40.88 30.44 40.88 30.72 40.88 31.21 40.88 31.97 40.88 32.18 40.88 32.46 40.88 32.73 40.88 33.15 40.88 33.99 40.88 34.33 40.94 34.68 40.88 35.65 40.88 35.86 40.88 36.07 40.81 36.49 40.88 36.9 40.88 37.81 40.88 38.09 40.88 38.5 40.88 38.57 40.88 38.85 40.81 39.13 40.81 40.17 40.88 40.8 40.88 41.05 40.88 41.28 41.01 43.23 40.94 43.72 40.94 44.2 40.88 45.24 40.88 45.8 40.88 46.08 40.88 47.12 40.88 48.3 40.81 48.93 40.81 49.41 40.81 49.76 40.88 50.87 40.88 51.22 40.81 51.64 40.81 51.78 40.81 53.72 40.74 54.35 40.74 54.7 40.74 55.32 40.74 55.74 40.88 55.95 40.81 56.16 40.88 58.17 40.88 58.59 40.81 58.8 40.81 59.21 40.81 59.56 40.81 59.98 40.81 60.33 40.81 60.46 40.81 61.09 40.88 61.58 40.88 62.48 40.88 63.66 40.88 63.94 40.81 64.36 40.81 64.91 40.81 65.33 40.81 65.47 40.81 66.09 40.88 66.37 40.88 67 40.88 67.76 40.88 68.18 40.81 68.39 40.81 68.6 40.81 69.22 40.88 69.29 40.88 69.85 40.81 69.99 40.88 70.75 40.88 70.96 40.81 71.17 40.81 71.58 40.81 71.86 40.81 72.35 40.81 72.7 40.81 73.18 40.81 73.39 40.88 73.46 40.88 73.67 40.88 73.88 40.88 74.02 41.01 73.95 41.01 73.74 41.01 73.53 41.01 73.18 41.01 73.04 41.01 72.63 41.01 71.79 40.94 71.38 40.94 71.03 40.94 70.61 41.01 70.12 41.01 69.71 41.01 68.94 41.01 68.46 40.94 68.04 41.01 67.62 41.01 67.34 41.01 66.3 41.08 65.68 40.94 65.26 41.01 64.98 41.01 64.63 41.01 64.08 40.94 63.87 41.01 63.59 41.01 62.97 41.01 62.55 41.01 61.09 41.01 60.53 41.01 60.39 40.94 60.05 40.94 60.05 41.01 59.84 41.01 59.7 41.01 59.35 41.08 58.87 41.08 58.03 41.01 57.61 41.01 57.2 41.01 56.43 41.01 56.02 41.01 55.6 41.08 55.32 41.01 55.04 41.01 54.49 41.01 54 40.94 53.72 40.94 53.51 41.01 53.31 40.94 52.75 40.94 52.61 40.94 52.47 41.01 52.33 41.01 52.12 41.01 52.06 41.01 51.92 40.94 51.92 41.01 51.71 41.01 51.5 41.01 51.43 40.94 51.43 41.01 51.01 41.08 50.8 41.01 50.04 41.08 49.62 41.01 49.28 41.08 49.07 41.01 48.86 41.08 48.72 41.08 48.51 41.08 47.68 41.01 47.26 41.01 46.98 41.08 46.7 41.01 46.5 41.01 46.22 41.01 45.94 41.01 44.76 41.01 44.06 41.01 43.85 41.01 43.23 41.08 42.81 41.08 42.46 41.08 41.77 41.15 41.28 41.08 40.94 41.08 40.59 41.15 39.68 41.15 38.92 41.08 38.64 41.08 37.81 41.01 37.25 41.01 36.77 41.08 36.07 41.01 35.1 41.01 34.61 41.01 33.85 41.01 33.57 41.01 32.73 41.08 31.14 41.08 30.79 41.01 30.3 41.01 29.95 41.01 29.82 41.08 29.47 41.08 29.26 41.08 28.84 41.08 28.63 41.01 28.43 41.01 28.01 41.01 27.66 41.08 27.38 41.08 26.48 41.15 26.06 41.08 25.92 41.08 25.44 41.08 25.3 41.01 24.88 41.01 24.67 41.01 24.32 41.01 23.91 41.15 23.35 41.08 23.07 41.15 22.73 41.15 22.38 41.08 21.34 41.01 20.5 41.08 19.88 41.08 19.46 41.01 19.25 41.01 17.79 41.08 17.03 41.08 16.82 41.08 15.98 41.08 15.15 41.08 14.73 41.15 13.97 41.15 13.2 41.08 12.86 41.15 10.42 41.08 9.38 41.15 9.17 41.15 8.97 41.15 8.9 41.08 8.69 41.08 8.62 41.15 8.13 41.08 7.64 41.22 7.44 41.22 6.67 41.15 5.35 41.22 5.07 41.15 4.38 41.15 3.82 41.15 3.27 41.15 2.36 41.15 1.74 41.22 1.32 41.08 1.11 41.08 .9 41.08 .56 41.08 .35 41.08 .28 41.01"/><rect class="cls-1" x="64.09" y="6.61" width="1.63" height="1.63"/><polygon class="cls-1" points="74.17 32.74 74.17 32.81 73.96 32.95 73.54 32.88 73.26 32.88 72.78 32.95 72.71 32.88 72.43 32.88 71.18 32.88 70.83 32.95 70.48 32.95 69.79 32.88 69.51 32.88 69.3 32.88 66.59 32.81 66.24 32.88 65.41 33.02 64.57 32.95 64.02 32.88 63.25 32.88 62.84 32.88 62.35 32.81 61.93 32.81 61.45 32.88 61.1 32.88 60.27 32.88 60.06 32.95 59.64 32.88 59.22 32.88 58.74 32.88 58.6 32.88 57.21 32.95 56.86 32.88 56.51 32.88 55.96 32.81 55.05 32.95 54.29 32.88 53.73 32.88 53.52 32.95 53.18 32.95 52.97 32.95 52.48 32.95 51.93 32.95 51.44 32.88 50.81 32.95 50.54 32.95 50.4 32.95 49.91 32.95 49.08 32.95 48.66 32.88 48.38 32.88 48.1 32.95 47.69 32.88 46.92 32.88 46.57 32.88 46.16 32.88 45.88 32.88 45.74 32.88 45.05 32.95 44.77 32.95 44.07 32.88 44 32.88 43.73 32.88 43.24 32.88 42.47 32.88 42.27 32.88 41.99 32.88 41.71 32.88 41.29 32.88 40.46 32.88 40.11 32.81 39.76 32.88 38.79 32.88 38.58 32.88 38.37 32.95 37.96 32.88 37.54 32.88 36.64 32.88 36.36 32.88 35.94 32.88 35.87 32.88 35.59 32.95 35.32 32.95 34.27 32.88 33.65 32.88 33.39 32.88 33.16 32.74 31.22 32.81 30.73 32.81 30.24 32.88 29.2 32.88 28.64 32.88 28.37 32.88 27.32 32.88 26.14 32.95 25.52 32.95 25.03 32.95 24.68 32.88 23.57 32.88 23.22 32.95 22.81 32.95 22.67 32.95 20.72 33.02 20.1 33.02 19.75 33.02 19.12 33.02 18.71 32.88 18.5 32.95 18.29 32.88 16.27 32.88 15.86 32.95 15.65 32.95 15.23 32.95 14.88 32.95 14.47 32.95 14.12 32.95 13.98 32.95 13.35 32.88 12.87 32.88 11.96 32.88 10.78 32.88 10.5 32.95 10.09 32.95 9.53 32.95 9.11 32.95 8.98 32.95 8.35 32.88 8.07 32.88 7.45 32.88 6.68 32.88 6.26 32.95 6.06 32.95 5.85 32.95 5.22 32.88 5.15 32.88 4.6 32.95 4.46 32.88 3.69 32.88 3.48 32.95 3.28 32.95 2.86 32.95 2.58 32.95 2.09 32.95 1.75 32.95 1.26 32.95 1.05 32.88 .98 32.88 .77 32.88 .57 32.88 .43 32.74 .5 32.74 .7 32.74 .91 32.74 1.26 32.74 1.4 32.74 1.82 32.74 2.65 32.81 3.07 32.81 3.42 32.81 3.83 32.74 4.32 32.74 4.74 32.74 5.5 32.74 5.99 32.81 6.4 32.74 6.82 32.74 7.1 32.74 8.14 32.67 8.77 32.81 9.18 32.74 9.46 32.74 9.81 32.74 10.37 32.81 10.57 32.74 10.85 32.74 11.48 32.74 11.89 32.74 13.35 32.74 13.91 32.74 14.05 32.81 14.4 32.81 14.4 32.74 14.6 32.74 14.74 32.74 15.09 32.67 15.58 32.67 16.41 32.74 16.83 32.74 17.25 32.74 18.01 32.74 18.43 32.74 18.84 32.67 19.12 32.74 19.4 32.74 19.96 32.74 20.44 32.81 20.72 32.81 20.93 32.74 21.14 32.81 21.69 32.81 21.83 32.81 21.97 32.74 22.11 32.74 22.32 32.74 22.39 32.74 22.53 32.81 22.53 32.74 22.74 32.74 22.94 32.74 23.01 32.81 23.01 32.74 23.43 32.67 23.64 32.74 24.4 32.67 24.82 32.74 25.17 32.67 25.38 32.74 25.59 32.67 25.72 32.67 25.93 32.67 26.77 32.74 27.18 32.74 27.46 32.67 27.74 32.74 27.95 32.74 28.23 32.74 28.5 32.74 29.69 32.74 30.38 32.74 30.59 32.74 31.22 32.67 31.63 32.67 31.98 32.67 32.67 32.61 33.16 32.67 33.51 32.67 33.86 32.61 34.76 32.61 35.52 32.67 35.8 32.67 36.64 32.74 37.19 32.74 37.68 32.67 38.37 32.74 39.35 32.74 39.83 32.74 40.6 32.74 40.88 32.74 41.71 32.67 43.31 32.67 43.66 32.74 44.14 32.74 44.49 32.74 44.63 32.67 44.98 32.67 45.18 32.67 45.6 32.67 45.81 32.74 46.02 32.74 46.44 32.74 46.78 32.67 47.06 32.67 47.96 32.61 48.38 32.67 48.52 32.67 49.01 32.67 49.15 32.74 49.56 32.74 49.77 32.74 50.12 32.74 50.54 32.61 51.09 32.67 51.37 32.61 51.72 32.61 52.06 32.67 53.11 32.74 53.94 32.67 54.57 32.67 54.98 32.74 55.19 32.74 56.65 32.67 57.42 32.67 57.62 32.67 58.46 32.67 59.29 32.67 59.71 32.61 60.47 32.61 61.24 32.67 61.59 32.61 64.02 32.67 65.06 32.61 65.27 32.61 65.48 32.61 65.55 32.67 65.76 32.67 65.83 32.61 66.31 32.67 66.8 32.54 67.01 32.54 67.77 32.61 69.09 32.54 69.37 32.61 70.07 32.61 70.62 32.61 71.18 32.61 72.08 32.61 72.71 32.54 73.12 32.67 73.33 32.67 73.54 32.67 73.89 32.67 74.1 32.67 74.17 32.74"/><rect class="cls-1" x="65.72" y="6.61" width="1.63" height="1.63"/><polygon class="cls-1" points="0 24.75 0 24.61 .07 24.54 .28 24.47 .63 24.47 1.39 24.47 1.67 24.54 1.95 24.54 2.64 24.54 2.99 24.47 3.54 24.47 5.7 24.47 5.91 24.54 6.12 24.54 6.39 24.54 6.67 24.54 7.51 24.61 8.41 24.47 8.76 24.47 8.97 24.47 9.24 24.54 9.45 24.54 10.42 24.47 11.12 24.47 11.81 24.4 12.23 24.47 12.86 24.54 13.27 24.47 13.48 24.54 13.97 24.54 15.22 24.47 15.57 24.47 16.05 24.47 16.26 24.47 16.68 24.47 17.37 24.47 17.93 24.4 18.83 24.47 19.25 24.47 19.6 24.47 20.02 24.47 20.5 24.47 20.92 24.47 23.42 24.4 23.84 24.47 24.26 24.47 24.6 24.47 25.16 24.54 28.08 24.54 28.7 24.47 29.19 24.47 29.75 24.47 30.58 24.47 31.97 24.4 32.87 24.47 33.43 24.47 33.71 24.47 34.19 24.47 35.1 24.4 35.79 24.4 36.07 24.4 36.28 24.47 36.42 24.47 38.09 24.47 38.57 24.47 38.92 24.47 39.61 24.54 40.38 24.47 41.28 24.4 41.7 24.4 42.53 24.4 43.3 24.4 43.78 24.4 44.27 24.4 44.76 24.47 45.8 24.47 46.43 24.47 46.77 24.47 48.58 24.47 49.41 24.47 50.32 24.47 51.08 24.47 52.47 24.4 53.17 24.4 54.07 24.4 55.18 24.4 57.06 24.47 57.96 24.47 58.73 24.47 59 24.47 60.19 24.4 61.37 24.47 61.72 24.4 62.2 24.4 62.97 24.4 64.63 24.4 65.4 24.33 66.23 24.4 67.21 24.4 67.97 24.4 68.94 24.4 69.57 24.4 70.12 24.4 70.54 24.47 71.17 24.47 71.86 24.47 72.35 24.4 72.77 24.4 73.18 24.47 73.6 24.47 73.67 24.54 73.53 24.54 73.11 24.61 72.9 24.54 72.63 24.54 72.21 24.54 71.93 24.54 71.79 24.61 71.38 24.61 71.31 24.61 70.89 24.61 70.06 24.54 69.78 24.54 69.29 24.54 68.94 24.54 68.46 24.54 67.83 24.54 67.41 24.47 67.21 24.47 66.58 24.54 66.3 24.54 66.02 24.54 65.47 24.47 64.98 24.47 64.7 24.47 64.5 24.47 64.15 24.47 62.62 24.47 62.2 24.47 61.78 24.54 61.51 24.54 61.16 24.54 59.84 24.47 59.42 24.54 59 24.54 58.73 24.54 58.31 24.54 58.1 24.54 56.5 24.54 56.29 24.54 55.88 24.54 55.74 24.54 55.39 24.54 54 24.54 53.51 24.61 53.03 24.54 52.12 24.61 51.64 24.61 51.43 24.54 50.39 24.54 50.04 24.61 49.69 24.61 49.28 24.61 48.51 24.61 47.95 24.61 47.4 24.61 46.91 24.61 45.94 24.54 44.97 24.61 44.34 24.61 43.99 24.54 43.78 24.54 43.65 24.54 42.67 24.61 42.33 24.54 41.56 24.54 40.94 24.61 40.52 24.61 40.17 24.61 39.68 24.61 38.5 24.61 37.46 24.61 37.18 24.61 35.93 24.54 35.38 24.61 34.96 24.61 34.54 24.61 33.71 24.61 33.01 24.54 31.69 24.54 31.27 24.61 30.86 24.61 30.02 24.61 29.54 24.61 29.19 24.61 28.56 24.61 28.01 24.68 27.8 24.68 27.66 24.68 25.37 24.68 24.88 24.68 24.67 24.68 24.53 24.68 24.05 24.61 23.42 24.61 22.17 24.61 21.68 24.61 21.13 24.68 19.39 24.61 18.56 24.61 17.93 24.68 16.12 24.61 15.29 24.68 14.39 24.68 13.69 24.68 13.14 24.68 12.51 24.68 12.02 24.68 11.68 24.61 11.47 24.61 10.29 24.61 9.8 24.61 9.31 24.61 8.06 24.61 7.71 24.68 7.3 24.68 6.95 24.68 6.25 24.68 5.14 24.68 4.86 24.68 2.43 24.68 2.02 24.68 1.81 24.68 1.39 24.75 .63 24.75 .35 24.82 .14 24.75 0 24.75"/><rect class="cls-1" x="65.72" y="4.98" width="1.63" height="1.63"/><polygon class="cls-1" points=".28 8.49 .28 8.42 .49 8.28 .9 8.35 1.18 8.35 1.67 8.28 1.74 8.35 2.02 8.35 3.27 8.35 3.61 8.28 3.96 8.28 4.66 8.35 4.93 8.35 5.14 8.35 7.85 8.42 8.2 8.35 9.03 8.21 9.87 8.28 10.42 8.35 11.19 8.35 11.61 8.35 12.09 8.42 12.51 8.42 13 8.35 13.34 8.35 14.18 8.35 14.39 8.28 14.8 8.35 15.22 8.35 15.71 8.35 15.85 8.35 17.24 8.28 17.58 8.35 17.93 8.35 18.49 8.42 19.39 8.28 20.15 8.35 20.71 8.35 20.92 8.28 21.27 8.28 21.48 8.28 21.96 8.28 22.52 8.28 23 8.35 23.63 8.28 23.91 8.28 24.05 8.28 24.53 8.28 25.37 8.28 25.78 8.35 26.06 8.35 26.34 8.28 26.76 8.35 27.52 8.35 27.87 8.35 28.29 8.35 28.56 8.35 28.7 8.35 29.4 8.28 29.68 8.28 30.37 8.35 30.44 8.35 30.72 8.35 31.21 8.35 31.97 8.35 32.18 8.35 32.46 8.35 32.73 8.35 33.15 8.35 33.99 8.35 34.33 8.42 34.68 8.35 35.65 8.35 35.86 8.35 36.07 8.28 36.49 8.35 36.9 8.35 37.81 8.35 38.09 8.35 38.5 8.35 38.57 8.35 38.85 8.28 39.13 8.28 40.17 8.35 40.8 8.35 41.05 8.35 41.28 8.49 43.23 8.42 43.72 8.42 44.2 8.35 45.24 8.35 45.8 8.35 46.08 8.35 47.12 8.35 48.3 8.28 48.93 8.28 49.41 8.28 49.76 8.35 50.87 8.35 51.22 8.28 51.64 8.28 51.78 8.28 53.72 8.21 54.35 8.21 54.7 8.21 55.32 8.21 55.74 8.35 55.95 8.28 56.16 8.35 58.17 8.35 58.59 8.28 58.8 8.28 59.21 8.28 59.56 8.28 59.98 8.28 60.33 8.28 60.46 8.28 61.09 8.35 61.58 8.35 62.48 8.35 63.66 8.35 63.94 8.28 64.36 8.28 64.91 8.28 65.33 8.28 65.47 8.28 66.09 8.35 66.37 8.35 67 8.35 67.76 8.35 68.18 8.28 68.39 8.28 68.6 8.28 69.22 8.35 69.29 8.35 69.85 8.28 69.99 8.35 70.75 8.35 70.96 8.28 71.17 8.28 71.58 8.28 71.86 8.28 72.35 8.28 72.7 8.28 73.18 8.28 73.39 8.35 73.46 8.35 73.67 8.35 73.88 8.35 74.02 8.49 73.95 8.49 73.74 8.49 73.53 8.49 73.18 8.49 73.04 8.49 72.63 8.49 71.79 8.42 71.38 8.42 71.03 8.42 70.61 8.49 70.12 8.49 69.71 8.49 68.94 8.49 68.46 8.42 68.04 8.49 67.62 8.49 67.34 8.49 66.3 8.56 65.68 8.42 65.26 8.49 64.98 8.49 64.63 8.49 64.08 8.42 63.87 8.49 63.59 8.49 62.97 8.49 62.55 8.49 61.09 8.49 60.53 8.49 60.39 8.42 60.05 8.42 60.05 8.49 59.84 8.49 59.7 8.49 59.35 8.56 58.87 8.56 58.03 8.49 57.61 8.49 57.2 8.49 56.43 8.49 56.02 8.49 55.6 8.56 55.32 8.49 55.04 8.49 54.49 8.49 54 8.42 53.72 8.42 53.51 8.49 53.31 8.42 52.75 8.42 52.61 8.42 52.47 8.49 52.33 8.49 52.12 8.49 52.06 8.49 51.92 8.42 51.92 8.49 51.71 8.49 51.5 8.49 51.43 8.42 51.43 8.49 51.01 8.56 50.8 8.49 50.04 8.56 49.62 8.49 49.28 8.56 49.07 8.49 48.86 8.56 48.72 8.56 48.51 8.56 47.68 8.49 47.26 8.49 46.98 8.56 46.7 8.49 46.5 8.49 46.22 8.49 45.94 8.49 44.76 8.49 44.06 8.49 43.85 8.49 43.23 8.56 42.81 8.56 42.46 8.56 41.77 8.63 41.28 8.56 40.94 8.56 40.59 8.63 39.68 8.63 38.92 8.56 38.64 8.56 37.81 8.49 37.25 8.49 36.77 8.56 36.07 8.49 35.1 8.49 34.61 8.49 33.85 8.49 33.57 8.49 32.73 8.56 31.14 8.56 30.79 8.49 30.3 8.49 29.95 8.49 29.82 8.56 29.47 8.56 29.26 8.56 28.84 8.56 28.63 8.49 28.43 8.49 28.01 8.49 27.66 8.56 27.38 8.56 26.48 8.63 26.06 8.56 25.92 8.56 25.44 8.56 25.3 8.49 24.88 8.49 24.67 8.49 24.32 8.49 23.91 8.63 23.35 8.56 23.07 8.63 22.73 8.63 22.38 8.56 21.34 8.49 20.5 8.56 19.88 8.56 19.46 8.49 19.25 8.49 17.79 8.56 17.03 8.56 16.82 8.56 15.98 8.56 15.15 8.56 14.73 8.63 13.97 8.63 13.2 8.56 12.86 8.63 10.42 8.56 9.38 8.63 9.17 8.63 8.97 8.63 8.9 8.56 8.69 8.56 8.62 8.63 8.13 8.56 7.64 8.7 7.44 8.7 6.67 8.63 5.35 8.7 5.07 8.63 4.38 8.63 3.82 8.63 3.27 8.63 2.36 8.63 1.74 8.7 1.32 8.56 1.11 8.56 .9 8.56 .56 8.56 .35 8.56 .28 8.49"/><rect class="cls-1" x="64.09" y="3.35" width="1.63" height="1.63"/><polygon class="cls-1" points="0 16.62 0 16.55 .21 16.41 .63 16.48 .9 16.48 1.39 16.41 1.46 16.48 1.74 16.48 2.99 16.48 3.34 16.41 3.68 16.41 4.38 16.48 4.66 16.48 4.86 16.48 7.58 16.55 7.92 16.48 8.76 16.34 9.59 16.41 10.15 16.48 10.91 16.48 11.33 16.48 11.81 16.55 12.23 16.55 12.72 16.48 13.07 16.48 13.9 16.48 14.11 16.41 14.53 16.48 14.94 16.48 15.43 16.48 15.57 16.48 16.96 16.41 17.31 16.48 17.65 16.48 18.21 16.55 19.11 16.41 19.88 16.48 20.43 16.48 20.64 16.41 20.99 16.41 21.2 16.41 21.68 16.41 22.24 16.41 22.73 16.48 23.35 16.41 23.63 16.41 23.77 16.41 24.26 16.41 25.09 16.41 25.51 16.48 25.78 16.48 26.06 16.41 26.48 16.48 27.24 16.48 27.59 16.48 28.01 16.48 28.29 16.48 28.43 16.48 29.12 16.41 29.4 16.41 30.09 16.48 30.16 16.48 30.44 16.48 30.93 16.48 31.69 16.48 31.9 16.48 32.18 16.48 32.46 16.48 32.87 16.48 33.71 16.48 34.05 16.55 34.4 16.48 35.38 16.48 35.58 16.48 35.79 16.41 36.21 16.48 36.63 16.48 37.53 16.48 37.81 16.48 38.22 16.48 38.29 16.48 38.57 16.41 38.85 16.41 39.89 16.48 40.52 16.48 40.78 16.48 41 16.62 42.95 16.55 43.44 16.55 43.92 16.48 44.97 16.48 45.52 16.48 45.8 16.48 46.84 16.48 48.02 16.41 48.65 16.41 49.14 16.41 49.48 16.48 50.6 16.48 50.94 16.41 51.36 16.41 51.5 16.41 53.44 16.34 54.07 16.34 54.42 16.34 55.04 16.34 55.46 16.48 55.67 16.41 55.88 16.48 57.89 16.48 58.31 16.41 58.52 16.41 58.94 16.41 59.28 16.41 59.7 16.41 60.05 16.41 60.19 16.41 60.81 16.48 61.3 16.48 62.2 16.48 63.38 16.48 63.66 16.41 64.08 16.41 64.63 16.41 65.05 16.41 65.19 16.41 65.82 16.48 66.09 16.48 66.72 16.48 67.48 16.48 67.9 16.41 68.11 16.41 68.32 16.41 68.94 16.48 69.01 16.48 69.57 16.41 69.71 16.48 70.47 16.48 70.68 16.41 70.89 16.41 71.31 16.41 71.58 16.41 72.07 16.41 72.42 16.41 72.9 16.41 73.11 16.48 73.18 16.48 73.39 16.48 73.6 16.48 73.74 16.62 73.67 16.62 73.46 16.62 73.25 16.62 72.9 16.62 72.77 16.62 72.35 16.62 71.51 16.55 71.1 16.55 70.75 16.55 70.33 16.62 69.85 16.62 69.43 16.62 68.67 16.62 68.18 16.55 67.76 16.62 67.34 16.62 67.07 16.62 66.02 16.69 65.4 16.55 64.98 16.62 64.7 16.62 64.36 16.62 63.8 16.55 63.59 16.62 63.31 16.62 62.69 16.62 62.27 16.62 60.81 16.62 60.26 16.62 60.12 16.55 59.77 16.55 59.77 16.62 59.56 16.62 59.42 16.62 59.07 16.69 58.59 16.69 57.75 16.62 57.34 16.62 56.92 16.62 56.16 16.62 55.74 16.62 55.32 16.69 55.04 16.62 54.77 16.62 54.21 16.62 53.72 16.55 53.44 16.55 53.24 16.62 53.03 16.55 52.47 16.55 52.33 16.55 52.19 16.62 52.06 16.62 51.85 16.62 51.78 16.62 51.64 16.55 51.64 16.62 51.43 16.62 51.22 16.62 51.15 16.55 51.15 16.62 50.73 16.69 50.53 16.62 49.76 16.69 49.34 16.62 49 16.69 48.79 16.62 48.58 16.69 48.44 16.69 48.23 16.69 47.4 16.62 46.98 16.62 46.7 16.69 46.43 16.62 46.22 16.62 45.94 16.62 45.66 16.62 44.48 16.62 43.78 16.62 43.58 16.62 42.95 16.69 42.53 16.69 42.19 16.69 41.49 16.76 41 16.69 40.66 16.69 40.31 16.76 39.41 16.76 38.64 16.69 38.36 16.69 37.53 16.62 36.97 16.62 36.49 16.69 35.79 16.62 34.82 16.62 34.33 16.62 33.57 16.62 33.29 16.62 32.46 16.69 30.86 16.69 30.51 16.62 30.02 16.62 29.68 16.62 29.54 16.69 29.19 16.69 28.98 16.69 28.56 16.69 28.36 16.62 28.15 16.62 27.73 16.62 27.38 16.69 27.1 16.69 26.2 16.76 25.78 16.69 25.65 16.69 25.16 16.69 25.02 16.62 24.6 16.62 24.39 16.62 24.05 16.62 23.63 16.76 23.07 16.69 22.8 16.76 22.45 16.76 22.1 16.69 21.06 16.62 20.22 16.69 19.6 16.69 19.18 16.62 18.97 16.62 17.51 16.69 16.75 16.69 16.54 16.69 15.71 16.69 14.87 16.69 14.46 16.76 13.69 16.76 12.93 16.69 12.58 16.76 10.15 16.69 9.1 16.76 8.9 16.76 8.69 16.76 8.62 16.69 8.41 16.69 8.34 16.76 7.85 16.69 7.37 16.83 7.16 16.83 6.39 16.76 5.07 16.83 4.8 16.76 4.1 16.76 3.54 16.76 2.99 16.76 2.09 16.76 1.46 16.83 1.04 16.69 .83 16.69 .63 16.69 .28 16.69 .07 16.69 0 16.62"/><rect class="cls-1" x="67.35" y="4.98" width="1.63" height="1.63"/><polygon class="cls-1" points="65.89 73.89 65.75 73.89 65.68 73.82 65.61 73.61 65.61 73.26 65.61 72.5 65.68 72.22 65.68 71.94 65.68 71.25 65.61 70.9 65.61 70.34 65.61 68.19 65.68 67.98 65.68 67.77 65.68 67.49 65.68 67.22 65.75 66.38 65.61 65.48 65.61 65.13 65.61 64.92 65.68 64.64 65.68 64.44 65.61 63.46 65.61 62.77 65.54 62.07 65.61 61.66 65.68 61.03 65.61 60.61 65.68 60.4 65.68 59.92 65.61 58.67 65.61 58.32 65.61 57.83 65.61 57.62 65.61 57.21 65.61 56.51 65.54 55.96 65.61 55.05 65.61 54.64 65.61 54.29 65.61 53.87 65.61 53.39 65.61 52.97 65.54 50.47 65.61 50.05 65.61 49.63 65.61 49.28 65.68 48.73 65.68 45.81 65.61 45.18 65.61 44.7 65.61 44.14 65.61 43.31 65.54 41.92 65.61 41.01 65.61 40.46 65.61 40.18 65.61 39.69 65.54 38.79 65.54 38.1 65.54 37.82 65.61 37.61 65.61 37.47 65.61 35.8 65.61 35.32 65.61 34.97 65.68 34.27 65.61 33.51 65.54 32.61 65.54 32.19 65.54 31.35 65.54 30.59 65.54 30.1 65.54 29.62 65.61 29.13 65.61 28.09 65.61 27.46 65.61 27.11 65.61 25.31 65.61 24.47 65.61 23.57 65.61 22.81 65.54 21.42 65.54 20.72 65.54 19.82 65.54 18.71 65.61 16.83 65.61 15.93 65.61 15.16 65.61 14.88 65.54 13.7 65.61 12.52 65.54 12.17 65.54 11.69 65.54 10.92 65.54 9.25 65.47 8.49 65.54 7.65 65.54 6.68 65.54 5.92 65.54 4.94 65.54 4.32 65.54 3.76 65.61 3.35 65.61 2.72 65.61 2.03 65.54 1.54 65.54 1.12 65.61 .7 65.61 .29 65.68 .22 65.68 .36 65.75 .77 65.68 .98 65.68 1.26 65.68 1.68 65.68 1.96 65.75 2.09 65.75 2.51 65.75 2.58 65.75 3 65.68 3.83 65.68 4.11 65.68 4.6 65.68 4.94 65.68 5.43 65.68 6.06 65.61 6.47 65.61 6.68 65.68 7.31 65.68 7.59 65.68 7.86 65.61 8.42 65.61 8.91 65.61 9.18 65.61 9.39 65.61 9.74 65.61 11.27 65.61 11.69 65.68 12.1 65.68 12.38 65.68 12.73 65.61 14.05 65.68 14.47 65.68 14.88 65.68 15.16 65.68 15.58 65.68 15.79 65.68 17.38 65.68 17.59 65.68 18.01 65.68 18.15 65.68 18.5 65.68 19.89 65.75 20.37 65.68 20.86 65.75 21.76 65.75 22.25 65.68 22.46 65.68 23.5 65.75 23.85 65.75 24.2 65.75 24.61 65.75 25.38 65.75 25.93 65.75 26.49 65.75 26.98 65.68 27.95 65.75 28.92 65.75 29.55 65.68 29.89 65.68 30.1 65.68 30.24 65.75 31.22 65.68 31.56 65.68 32.33 65.75 32.95 65.75 33.37 65.75 33.72 65.75 34.2 65.75 35.39 65.75 36.43 65.75 36.71 65.68 37.96 65.75 38.51 65.75 38.93 65.75 39.35 65.75 40.18 65.68 40.88 65.68 42.2 65.75 42.61 65.75 43.03 65.75 43.86 65.75 44.35 65.75 44.7 65.75 45.32 65.82 45.88 65.82 46.09 65.82 46.23 65.82 48.52 65.82 49.01 65.82 49.22 65.82 49.35 65.75 49.84 65.75 50.47 65.75 51.72 65.75 52.2 65.82 52.76 65.75 54.5 65.75 55.33 65.82 55.96 65.75 57.76 65.82 58.6 65.82 59.5 65.82 60.2 65.82 60.75 65.82 61.38 65.82 61.86 65.75 62.21 65.75 62.42 65.75 63.6 65.75 64.09 65.75 64.57 65.75 65.83 65.82 66.17 65.82 66.59 65.82 66.94 65.82 67.63 65.82 68.74 65.82 69.02 65.82 71.46 65.82 71.87 65.82 72.08 65.89 72.5 65.89 73.26 65.95 73.54 65.89 73.75 65.89 73.89"/><rect class="cls-1" x="31.44" y="24.57" width="1.63" height="1.63"/><polygon class="cls-1" points="57.61 73.96 57.55 73.96 57.41 73.75 57.48 73.33 57.48 73.05 57.41 72.57 57.48 72.5 57.48 72.22 57.48 70.97 57.41 70.62 57.41 70.27 57.48 69.58 57.48 69.3 57.48 69.09 57.55 66.38 57.48 66.03 57.34 65.2 57.41 64.37 57.48 63.81 57.48 63.05 57.48 62.63 57.55 62.14 57.55 61.73 57.48 61.24 57.48 60.89 57.48 60.06 57.41 59.85 57.48 59.43 57.48 59.01 57.48 58.53 57.48 58.39 57.41 57 57.48 56.65 57.48 56.3 57.55 55.75 57.41 54.84 57.48 54.08 57.48 53.52 57.41 53.32 57.41 52.97 57.41 52.76 57.41 52.27 57.41 51.72 57.48 51.23 57.41 50.61 57.41 50.33 57.41 50.19 57.41 49.7 57.41 48.87 57.48 48.45 57.48 48.17 57.41 47.89 57.48 47.48 57.48 46.71 57.48 46.37 57.48 45.95 57.48 45.67 57.48 45.53 57.41 44.84 57.41 44.56 57.48 43.86 57.48 43.79 57.48 43.52 57.48 43.03 57.48 42.27 57.48 42.06 57.48 41.78 57.48 41.5 57.48 41.08 57.48 40.25 57.55 39.9 57.48 39.55 57.48 38.58 57.48 38.37 57.41 38.16 57.48 37.75 57.48 37.33 57.48 36.43 57.48 36.15 57.48 35.73 57.48 35.66 57.41 35.39 57.41 35.11 57.48 34.06 57.48 33.44 57.48 33.18 57.61 32.95 57.55 31.01 57.55 30.52 57.48 30.03 57.48 28.99 57.48 28.44 57.48 28.16 57.48 27.11 57.41 25.93 57.41 25.31 57.41 24.82 57.48 24.47 57.48 23.36 57.41 23.01 57.41 22.6 57.41 22.46 57.34 20.51 57.34 19.89 57.34 19.54 57.34 18.91 57.48 18.5 57.41 18.29 57.48 18.08 57.48 16.06 57.41 15.65 57.41 15.44 57.41 15.02 57.41 14.67 57.41 14.26 57.41 13.91 57.41 13.77 57.48 13.15 57.48 12.66 57.48 11.76 57.48 10.57 57.41 10.3 57.41 9.88 57.41 9.32 57.41 8.91 57.41 8.77 57.48 8.14 57.48 7.86 57.48 7.24 57.48 6.47 57.41 6.06 57.41 5.85 57.41 5.64 57.48 5.01 57.48 4.94 57.41 4.39 57.48 4.25 57.48 3.48 57.41 3.28 57.41 3.07 57.41 2.65 57.41 2.37 57.41 1.89 57.41 1.54 57.41 1.05 57.48 .84 57.48 .77 57.48 .57 57.48 .36 57.61 .22 57.61 .29 57.61 .5 57.61 .7 57.61 1.05 57.61 1.19 57.61 1.61 57.55 2.44 57.55 2.86 57.55 3.21 57.61 3.62 57.61 4.11 57.61 4.53 57.61 5.29 57.55 5.78 57.61 6.2 57.61 6.61 57.61 6.89 57.68 7.93 57.55 8.56 57.61 8.98 57.61 9.25 57.61 9.6 57.55 10.16 57.61 10.37 57.61 10.64 57.61 11.27 57.61 11.69 57.61 13.15 57.61 13.7 57.55 13.84 57.55 14.19 57.61 14.19 57.61 14.4 57.61 14.54 57.68 14.88 57.68 15.37 57.61 16.2 57.61 16.62 57.61 17.04 57.61 17.8 57.61 18.22 57.68 18.64 57.61 18.91 57.61 19.19 57.61 19.75 57.55 20.23 57.55 20.51 57.61 20.72 57.55 20.93 57.55 21.49 57.55 21.62 57.61 21.76 57.61 21.9 57.61 22.11 57.61 22.18 57.55 22.32 57.61 22.32 57.61 22.53 57.61 22.74 57.55 22.81 57.61 22.81 57.68 23.22 57.61 23.43 57.68 24.2 57.61 24.61 57.68 24.96 57.61 25.17 57.68 25.38 57.68 25.52 57.68 25.72 57.61 26.56 57.61 26.98 57.68 27.25 57.61 27.53 57.61 27.74 57.61 28.02 57.61 28.3 57.61 29.48 57.61 30.17 57.61 30.38 57.68 31.01 57.68 31.42 57.68 31.77 57.75 32.47 57.68 32.95 57.68 33.3 57.75 33.65 57.75 34.55 57.68 35.32 57.68 35.59 57.61 36.43 57.61 36.98 57.68 37.47 57.61 38.16 57.61 39.14 57.61 39.62 57.61 40.39 57.61 40.67 57.68 41.5 57.68 43.1 57.61 43.45 57.61 43.93 57.61 44.28 57.68 44.42 57.68 44.77 57.68 44.98 57.68 45.39 57.61 45.6 57.61 45.81 57.61 46.23 57.68 46.57 57.68 46.85 57.75 47.76 57.68 48.17 57.68 48.31 57.68 48.8 57.61 48.94 57.61 49.35 57.61 49.56 57.61 49.91 57.75 50.33 57.68 50.88 57.75 51.16 57.75 51.51 57.68 51.86 57.61 52.9 57.68 53.73 57.68 54.36 57.61 54.78 57.61 54.98 57.68 56.44 57.68 57.21 57.68 57.42 57.68 58.25 57.68 59.08 57.75 59.5 57.75 60.27 57.68 61.03 57.75 61.38 57.68 63.81 57.75 64.85 57.75 65.06 57.75 65.27 57.68 65.34 57.68 65.55 57.75 65.62 57.68 66.1 57.82 66.59 57.82 66.8 57.75 67.56 57.82 68.88 57.75 69.16 57.75 69.86 57.75 70.41 57.75 70.97 57.75 71.87 57.82 72.5 57.68 72.91 57.68 73.12 57.68 73.33 57.68 73.68 57.68 73.89 57.61 73.96"/><rect class="cls-1" x="29.81" y="24.57" width="1.63" height="1.63"/><polygon class="cls-1" points="49.14 .22 49.28 .22 49.34 .29 49.41 .5 49.41 .84 49.41 1.61 49.34 1.89 49.34 2.16 49.34 2.86 49.41 3.21 49.41 3.76 49.41 5.92 49.34 6.13 49.34 6.33 49.34 6.61 49.34 6.89 49.28 7.72 49.41 8.63 49.41 8.98 49.41 9.18 49.34 9.46 49.34 9.67 49.41 10.64 49.41 11.34 49.48 12.03 49.41 12.45 49.34 13.08 49.41 13.49 49.34 13.7 49.34 14.19 49.41 15.44 49.41 15.79 49.41 16.27 49.41 16.48 49.41 16.9 49.41 17.59 49.48 18.15 49.41 19.05 49.41 19.47 49.41 19.82 49.41 20.23 49.41 20.72 49.41 21.14 49.48 23.64 49.41 24.06 49.41 24.47 49.41 24.82 49.34 25.38 49.34 28.3 49.41 28.92 49.41 29.41 49.41 29.96 49.41 30.8 49.48 32.19 49.41 33.09 49.41 33.65 49.41 33.93 49.41 34.41 49.48 35.32 49.48 36.01 49.48 36.29 49.41 36.5 49.41 36.64 49.41 38.3 49.41 38.79 49.41 39.14 49.34 39.83 49.41 40.6 49.48 41.5 49.48 41.92 49.48 42.75 49.48 43.52 49.48 44 49.48 44.49 49.41 44.98 49.41 46.02 49.41 46.64 49.41 46.99 49.41 48.8 49.41 49.63 49.41 50.54 49.41 51.3 49.48 52.69 49.48 53.39 49.48 54.29 49.48 55.4 49.41 57.28 49.41 58.18 49.41 58.95 49.41 59.22 49.48 60.4 49.41 61.59 49.48 61.93 49.48 62.42 49.48 63.18 49.48 64.85 49.55 65.62 49.48 66.45 49.48 67.42 49.48 68.19 49.48 69.16 49.48 69.79 49.48 70.34 49.41 70.76 49.41 71.39 49.41 72.08 49.48 72.57 49.48 72.98 49.41 73.4 49.41 73.82 49.34 73.89 49.34 73.75 49.28 73.33 49.34 73.12 49.34 72.85 49.34 72.43 49.34 72.15 49.28 72.01 49.28 71.59 49.28 71.52 49.28 71.11 49.34 70.27 49.34 70 49.34 69.51 49.34 69.16 49.34 68.68 49.34 68.05 49.41 67.63 49.41 67.42 49.34 66.8 49.34 66.52 49.34 66.24 49.41 65.69 49.41 65.2 49.41 64.92 49.41 64.71 49.41 64.37 49.41 62.84 49.41 62.42 49.34 62 49.34 61.73 49.34 61.38 49.41 60.06 49.34 59.64 49.34 59.22 49.34 58.95 49.34 58.53 49.34 58.32 49.34 56.72 49.34 56.51 49.34 56.1 49.34 55.96 49.34 55.61 49.34 54.22 49.28 53.73 49.34 53.25 49.28 52.34 49.28 51.86 49.34 51.65 49.34 50.61 49.28 50.26 49.28 49.91 49.28 49.49 49.28 48.73 49.28 48.17 49.28 47.62 49.28 47.13 49.34 46.16 49.28 45.18 49.28 44.56 49.34 44.21 49.34 44 49.34 43.86 49.28 42.89 49.34 42.54 49.34 41.78 49.28 41.15 49.28 40.74 49.28 40.39 49.28 39.9 49.28 38.72 49.28 37.68 49.28 37.4 49.34 36.15 49.28 35.59 49.28 35.18 49.28 34.76 49.28 33.93 49.34 33.23 49.34 31.91 49.28 31.49 49.28 31.08 49.28 30.24 49.28 29.76 49.28 29.41 49.28 28.78 49.21 28.23 49.21 28.02 49.21 27.88 49.21 25.59 49.21 25.1 49.21 24.89 49.21 24.75 49.28 24.27 49.28 23.64 49.28 22.39 49.28 21.9 49.21 21.35 49.28 19.61 49.28 18.77 49.21 18.15 49.28 16.34 49.21 15.51 49.21 14.6 49.21 13.91 49.21 13.35 49.21 12.73 49.21 12.24 49.28 11.89 49.28 11.69 49.28 10.5 49.28 10.02 49.28 9.53 49.28 8.28 49.21 7.93 49.21 7.52 49.21 7.17 49.21 6.47 49.21 5.36 49.21 5.08 49.21 2.65 49.21 2.23 49.21 2.03 49.14 1.61 49.14 .84 49.07 .57 49.14 .36 49.14 .22"/><rect class="cls-1" x="28.17" y="19.67" width="1.63" height="1.63"/><polygon class="cls-1" points="41.21 73.89 41.14 73.89 41 73.68 41.07 73.26 41.07 72.98 41 72.5 41.07 72.43 41.07 72.15 41.07 70.9 41 70.55 41 70.2 41.07 69.51 41.07 69.23 41.07 69.02 41.14 66.31 41.07 65.96 40.94 65.13 41 64.3 41.07 63.74 41.07 62.98 41.07 62.56 41.14 62.07 41.14 61.66 41.07 61.17 41.07 60.82 41.07 59.99 41 59.78 41.07 59.36 41.07 58.95 41.07 58.46 41.07 58.32 41 56.93 41.07 56.58 41.07 56.23 41.14 55.68 41 54.78 41.07 54.01 41.07 53.45 41 53.25 41 52.9 41 52.69 41 52.2 41 51.65 41.07 51.16 41 50.54 41 50.26 41 50.12 41 49.63 41 48.8 41.07 48.38 41.07 48.1 41 47.83 41.07 47.41 41.07 46.64 41.07 46.3 41.07 45.88 41.07 45.6 41.07 45.46 41 44.77 41 44.49 41.07 43.79 41.07 43.72 41.07 43.45 41.07 42.96 41.07 42.2 41.07 41.99 41.07 41.71 41.07 41.43 41.07 41.01 41.07 40.18 41.14 39.83 41.07 39.49 41.07 38.51 41.07 38.3 41 38.1 41.07 37.68 41.07 37.26 41.07 36.36 41.07 36.08 41.07 35.66 41.07 35.59 41 35.32 41 35.04 41.07 34 41.07 33.37 41.07 33.11 41.21 32.88 41.14 30.94 41.14 30.45 41.07 29.96 41.07 28.92 41.07 28.37 41.07 28.09 41.07 27.05 41 25.86 41 25.24 41 24.75 41.07 24.4 41.07 23.29 41 22.94 41 22.53 41 22.39 40.94 20.44 40.94 19.82 40.94 19.47 40.94 18.84 41.07 18.43 41 18.22 41.07 18.01 41.07 15.99 41 15.58 41 15.37 41 14.95 41 14.6 41 14.19 41 13.84 41 13.7 41.07 13.08 41.07 12.59 41.07 11.69 41.07 10.5 41 10.23 41 9.81 41 9.25 41 8.84 41 8.7 41.07 8.07 41.07 7.79 41.07 7.17 41.07 6.4 41 5.99 41 5.78 41 5.57 41.07 4.94 41.07 4.87 41 4.32 41.07 4.18 41.07 3.42 41 3.21 41 3 41 2.58 41 2.3 41 1.82 41 1.47 41 .98 41.07 .77 41.07 .7 41.07 .5 41.07 .29 41.21 .15 41.21 .22 41.21 .43 41.21 .64 41.21 .98 41.21 1.12 41.21 1.54 41.14 2.37 41.14 2.79 41.14 3.14 41.21 3.55 41.21 4.04 41.21 4.46 41.21 5.22 41.14 5.71 41.21 6.13 41.21 6.54 41.21 6.82 41.28 7.86 41.14 8.49 41.21 8.91 41.21 9.18 41.21 9.53 41.14 10.09 41.21 10.3 41.21 10.57 41.21 11.2 41.21 11.62 41.21 13.08 41.21 13.63 41.14 13.77 41.14 14.12 41.21 14.12 41.21 14.33 41.21 14.47 41.28 14.81 41.28 15.3 41.21 16.13 41.21 16.55 41.21 16.97 41.21 17.73 41.21 18.15 41.28 18.57 41.21 18.84 41.21 19.12 41.21 19.68 41.14 20.16 41.14 20.44 41.21 20.65 41.14 20.86 41.14 21.42 41.14 21.55 41.21 21.69 41.21 21.83 41.21 22.04 41.21 22.11 41.14 22.25 41.21 22.25 41.21 22.46 41.21 22.67 41.14 22.74 41.21 22.74 41.28 23.15 41.21 23.36 41.28 24.13 41.21 24.54 41.28 24.89 41.21 25.1 41.28 25.31 41.28 25.45 41.28 25.66 41.21 26.49 41.21 26.91 41.28 27.18 41.21 27.46 41.21 27.67 41.21 27.95 41.21 28.23 41.21 29.41 41.21 30.1 41.21 30.31 41.28 30.94 41.28 31.35 41.28 31.7 41.35 32.4 41.28 32.88 41.28 33.23 41.35 33.58 41.35 34.48 41.28 35.25 41.28 35.52 41.21 36.36 41.21 36.91 41.28 37.4 41.21 38.1 41.21 39.07 41.21 39.55 41.21 40.32 41.21 40.6 41.28 41.43 41.28 43.03 41.21 43.38 41.21 43.86 41.21 44.21 41.28 44.35 41.28 44.7 41.28 44.91 41.28 45.32 41.21 45.53 41.21 45.74 41.21 46.16 41.28 46.5 41.28 46.78 41.35 47.69 41.28 48.1 41.28 48.24 41.28 48.73 41.21 48.87 41.21 49.28 41.21 49.49 41.21 49.84 41.35 50.26 41.28 50.81 41.35 51.09 41.35 51.44 41.28 51.79 41.21 52.83 41.28 53.66 41.28 54.29 41.21 54.71 41.21 54.91 41.28 56.37 41.28 57.14 41.28 57.35 41.28 58.18 41.28 59.01 41.35 59.43 41.35 60.2 41.28 60.96 41.35 61.31 41.28 63.74 41.35 64.78 41.35 64.99 41.35 65.2 41.28 65.27 41.28 65.48 41.35 65.55 41.28 66.03 41.42 66.52 41.42 66.73 41.35 67.49 41.42 68.81 41.35 69.09 41.35 69.79 41.35 70.34 41.35 70.9 41.35 71.8 41.42 72.43 41.28 72.85 41.28 73.05 41.28 73.26 41.28 73.61 41.28 73.82 41.21 73.89"/><rect class="cls-1" x="26.54" y="16.4" width="1.63" height="1.63"/><polygon class="cls-1" points="32.94 0 33.01 0 33.15 .21 33.08 .63 33.08 .9 33.15 1.39 33.08 1.46 33.08 1.74 33.08 2.99 33.15 3.34 33.15 3.68 33.08 4.38 33.08 4.66 33.08 4.86 33.01 7.58 33.08 7.92 33.22 8.76 33.15 9.59 33.08 10.15 33.08 10.91 33.08 11.33 33.01 11.81 33.01 12.23 33.08 12.72 33.08 13.07 33.08 13.9 33.15 14.11 33.08 14.53 33.08 14.94 33.08 15.43 33.08 15.57 33.15 16.96 33.08 17.31 33.08 17.65 33.01 18.21 33.15 19.11 33.08 19.88 33.08 20.43 33.15 20.64 33.15 20.99 33.15 21.2 33.15 21.68 33.15 22.24 33.08 22.73 33.15 23.35 33.15 23.63 33.15 23.77 33.15 24.26 33.15 25.09 33.08 25.51 33.08 25.78 33.15 26.06 33.08 26.48 33.08 27.24 33.08 27.59 33.08 28.01 33.08 28.29 33.08 28.43 33.15 29.12 33.15 29.4 33.08 30.09 33.08 30.16 33.08 30.44 33.08 30.93 33.08 31.69 33.08 31.9 33.08 32.18 33.08 32.46 33.08 32.87 33.08 33.71 33.01 34.05 33.08 34.4 33.08 35.38 33.08 35.58 33.15 35.79 33.08 36.21 33.08 36.63 33.08 37.53 33.08 37.81 33.08 38.22 33.08 38.29 33.15 38.57 33.15 38.85 33.08 39.89 33.08 40.52 33.08 40.78 32.94 41 33.01 42.95 33.01 43.44 33.08 43.92 33.08 44.97 33.08 45.52 33.08 45.8 33.08 46.84 33.15 48.02 33.15 48.65 33.15 49.14 33.08 49.48 33.08 50.6 33.15 50.94 33.15 51.36 33.15 51.5 33.22 53.44 33.22 54.07 33.22 54.42 33.22 55.04 33.08 55.46 33.15 55.67 33.08 55.88 33.08 57.89 33.15 58.31 33.15 58.52 33.15 58.94 33.15 59.28 33.15 59.7 33.15 60.05 33.15 60.19 33.08 60.81 33.08 61.3 33.08 62.2 33.08 63.38 33.15 63.66 33.15 64.08 33.15 64.63 33.15 65.05 33.15 65.19 33.08 65.82 33.08 66.09 33.08 66.72 33.08 67.48 33.15 67.9 33.15 68.11 33.15 68.32 33.08 68.94 33.08 69.01 33.15 69.57 33.08 69.71 33.08 70.47 33.15 70.68 33.15 70.89 33.15 71.31 33.15 71.58 33.15 72.07 33.15 72.42 33.15 72.9 33.08 73.11 33.08 73.18 33.08 73.39 33.08 73.6 32.94 73.74 32.94 73.67 32.94 73.46 32.94 73.25 32.94 72.9 32.94 72.77 32.94 72.35 33.01 71.51 33.01 71.1 33.01 70.75 32.94 70.33 32.94 69.85 32.94 69.43 32.94 68.67 33.01 68.18 32.94 67.76 32.94 67.34 32.94 67.07 32.87 66.02 33.01 65.4 32.94 64.98 32.94 64.7 32.94 64.36 33.01 63.8 32.94 63.59 32.94 63.31 32.94 62.69 32.94 62.27 32.94 60.81 32.94 60.26 33.01 60.12 33.01 59.77 32.94 59.77 32.94 59.56 32.94 59.42 32.87 59.07 32.87 58.59 32.94 57.75 32.94 57.34 32.94 56.92 32.94 56.16 32.94 55.74 32.87 55.32 32.94 55.04 32.94 54.77 32.94 54.21 33.01 53.72 33.01 53.44 32.94 53.24 33.01 53.03 33.01 52.47 33.01 52.33 32.94 52.19 32.94 52.05 32.94 51.85 32.94 51.78 33.01 51.64 32.94 51.64 32.94 51.43 32.94 51.22 33.01 51.15 32.94 51.15 32.87 50.73 32.94 50.53 32.87 49.76 32.94 49.34 32.87 49 32.94 48.79 32.87 48.58 32.87 48.44 32.87 48.23 32.94 47.4 32.94 46.98 32.87 46.7 32.94 46.43 32.94 46.22 32.94 45.94 32.94 45.66 32.94 44.48 32.94 43.78 32.94 43.58 32.87 42.95 32.87 42.53 32.87 42.19 32.8 41.49 32.87 41 32.87 40.66 32.8 40.31 32.8 39.41 32.87 38.64 32.87 38.36 32.94 37.53 32.94 36.97 32.87 36.49 32.94 35.79 32.94 34.82 32.94 34.33 32.94 33.57 32.94 33.29 32.87 32.46 32.87 30.86 32.94 30.51 32.94 30.02 32.94 29.68 32.87 29.54 32.87 29.19 32.87 28.98 32.87 28.56 32.94 28.36 32.94 28.15 32.94 27.73 32.87 27.38 32.87 27.1 32.8 26.2 32.87 25.78 32.87 25.65 32.87 25.16 32.94 25.02 32.94 24.6 32.94 24.39 32.94 24.05 32.8 23.63 32.87 23.07 32.8 22.8 32.8 22.45 32.87 22.1 32.94 21.06 32.87 20.22 32.87 19.6 32.94 19.18 32.94 18.97 32.87 17.51 32.87 16.75 32.87 16.54 32.87 15.71 32.87 14.87 32.8 14.46 32.8 13.69 32.87 12.93 32.8 12.58 32.87 10.15 32.8 9.1 32.8 8.9 32.8 8.69 32.87 8.62 32.87 8.41 32.8 8.34 32.87 7.85 32.73 7.37 32.73 7.16 32.8 6.39 32.73 5.07 32.8 4.8 32.8 4.1 32.8 3.54 32.8 2.99 32.8 2.08 32.73 1.46 32.87 1.04 32.87 .83 32.87 .63 32.87 .28 32.87 .07 32.94 0"/><rect class="cls-1" x="24.91" y="14.77" width="1.63" height="1.63"/><polygon class="cls-1" points="24.95 74.17 24.81 74.17 24.74 74.1 24.67 73.89 24.67 73.54 24.67 72.78 24.74 72.5 24.74 72.22 24.74 71.52 24.67 71.18 24.67 70.62 24.67 68.47 24.74 68.26 24.74 68.05 24.74 67.77 24.74 67.49 24.81 66.66 24.67 65.76 24.67 65.41 24.67 65.2 24.74 64.92 24.74 64.71 24.67 63.74 24.67 63.05 24.6 62.35 24.67 61.93 24.74 61.31 24.67 60.89 24.74 60.68 24.74 60.2 24.67 58.95 24.67 58.6 24.67 58.11 24.67 57.9 24.67 57.49 24.67 56.79 24.6 56.23 24.67 55.33 24.67 54.91 24.67 54.57 24.67 54.15 24.67 53.66 24.67 53.25 24.6 50.74 24.67 50.33 24.67 49.91 24.67 49.56 24.74 49.01 24.74 46.09 24.67 45.46 24.67 44.98 24.67 44.42 24.67 43.59 24.6 42.2 24.67 41.29 24.67 40.74 24.67 40.46 24.67 39.97 24.6 39.07 24.6 38.37 24.6 38.1 24.67 37.89 24.67 37.75 24.67 36.08 24.67 35.59 24.67 35.25 24.74 34.55 24.67 33.79 24.6 32.88 24.6 32.47 24.6 31.63 24.6 30.87 24.6 30.38 24.6 29.89 24.67 29.41 24.67 28.37 24.67 27.74 24.67 27.39 24.67 25.59 24.67 24.75 24.67 23.85 24.67 23.08 24.6 21.69 24.6 21 24.6 20.1 24.6 18.98 24.67 17.11 24.67 16.2 24.67 15.44 24.67 15.16 24.6 13.98 24.67 12.8 24.6 12.45 24.6 11.96 24.6 11.2 24.6 9.53 24.53 8.77 24.6 7.93 24.6 6.96 24.6 6.2 24.6 5.22 24.6 4.6 24.6 4.04 24.67 3.62 24.67 3 24.67 2.3 24.6 1.82 24.6 1.4 24.67 .98 24.67 .57 24.74 .5 24.74 .64 24.81 1.05 24.74 1.26 24.74 1.54 24.74 1.96 24.74 2.23 24.81 2.37 24.81 2.79 24.81 2.86 24.81 3.28 24.74 4.11 24.74 4.39 24.74 4.87 24.74 5.22 24.74 5.71 24.74 6.33 24.67 6.75 24.67 6.96 24.74 7.59 24.74 7.86 24.74 8.14 24.67 8.7 24.67 9.18 24.67 9.46 24.67 9.67 24.67 10.02 24.67 11.55 24.67 11.96 24.74 12.38 24.74 12.66 24.74 13.01 24.67 14.33 24.74 14.74 24.74 15.16 24.74 15.44 24.74 15.86 24.74 16.06 24.74 17.66 24.74 17.87 24.74 18.29 24.74 18.43 24.74 18.77 24.74 20.16 24.81 20.65 24.74 21.14 24.81 22.04 24.81 22.53 24.74 22.74 24.74 23.78 24.81 24.13 24.81 24.47 24.81 24.89 24.81 25.66 24.81 26.21 24.81 26.77 24.81 27.25 24.74 28.23 24.81 29.2 24.81 29.83 24.74 30.17 24.74 30.38 24.74 30.52 24.81 31.49 24.74 31.84 24.74 32.61 24.81 33.23 24.81 33.65 24.81 34 24.81 34.48 24.81 35.66 24.81 36.71 24.81 36.98 24.74 38.23 24.81 38.79 24.81 39.21 24.81 39.62 24.81 40.46 24.74 41.15 24.74 42.47 24.81 42.89 24.81 43.31 24.81 44.14 24.81 44.63 24.81 44.98 24.81 45.6 24.88 46.16 24.88 46.37 24.88 46.5 24.88 48.8 24.88 49.28 24.88 49.49 24.88 49.63 24.81 50.12 24.81 50.74 24.81 52 24.81 52.48 24.88 53.04 24.81 54.78 24.81 55.61 24.88 56.23 24.81 58.04 24.88 58.88 24.88 59.78 24.88 60.47 24.88 61.03 24.88 61.66 24.88 62.14 24.81 62.49 24.81 62.7 24.81 63.88 24.81 64.37 24.81 64.85 24.81 66.1 24.88 66.45 24.88 66.87 24.88 67.22 24.88 67.91 24.88 69.02 24.88 69.3 24.88 71.73 24.88 72.15 24.88 72.36 24.95 72.78 24.95 73.54 25.02 73.82 24.95 74.03 24.95 74.17"/><rect class="cls-1" x="23.27" y="14.77" width="1.63" height="1.63"/><polygon class="cls-1" points="8.69 73.89 8.62 73.89 8.48 73.68 8.55 73.26 8.55 72.98 8.48 72.5 8.55 72.43 8.55 72.15 8.55 70.9 8.48 70.55 8.48 70.2 8.55 69.51 8.55 69.23 8.55 69.02 8.62 66.31 8.55 65.96 8.41 65.13 8.48 64.3 8.55 63.74 8.55 62.98 8.55 62.56 8.62 62.07 8.62 61.66 8.55 61.17 8.55 60.82 8.55 59.99 8.48 59.78 8.55 59.36 8.55 58.95 8.55 58.46 8.55 58.32 8.48 56.93 8.55 56.58 8.55 56.23 8.62 55.68 8.48 54.78 8.55 54.01 8.55 53.45 8.48 53.25 8.48 52.9 8.48 52.69 8.48 52.2 8.48 51.65 8.55 51.16 8.48 50.54 8.48 50.26 8.48 50.12 8.48 49.63 8.48 48.8 8.55 48.38 8.55 48.1 8.48 47.83 8.55 47.41 8.55 46.64 8.55 46.3 8.55 45.88 8.55 45.6 8.55 45.46 8.48 44.77 8.48 44.49 8.55 43.79 8.55 43.72 8.55 43.45 8.55 42.96 8.55 42.2 8.55 41.99 8.55 41.71 8.55 41.43 8.55 41.01 8.55 40.18 8.62 39.83 8.55 39.49 8.55 38.51 8.55 38.3 8.48 38.1 8.55 37.68 8.55 37.26 8.55 36.36 8.55 36.08 8.55 35.66 8.55 35.59 8.48 35.32 8.48 35.04 8.55 34 8.55 33.37 8.55 33.11 8.69 32.88 8.62 30.94 8.62 30.45 8.55 29.96 8.55 28.92 8.55 28.37 8.55 28.09 8.55 27.05 8.48 25.86 8.48 25.24 8.48 24.75 8.55 24.4 8.55 23.29 8.48 22.94 8.48 22.53 8.48 22.39 8.41 20.44 8.41 19.82 8.41 19.47 8.41 18.84 8.55 18.43 8.48 18.22 8.55 18.01 8.55 15.99 8.48 15.58 8.48 15.37 8.48 14.95 8.48 14.6 8.48 14.19 8.48 13.84 8.48 13.7 8.55 13.08 8.55 12.59 8.55 11.69 8.55 10.5 8.48 10.23 8.48 9.81 8.48 9.25 8.48 8.84 8.48 8.7 8.55 8.07 8.55 7.79 8.55 7.17 8.55 6.4 8.48 5.99 8.48 5.78 8.48 5.57 8.55 4.94 8.55 4.87 8.48 4.32 8.55 4.18 8.55 3.42 8.48 3.21 8.48 3 8.48 2.58 8.48 2.3 8.48 1.82 8.48 1.47 8.48 .98 8.55 .77 8.55 .7 8.55 .5 8.55 .29 8.69 .15 8.69 .22 8.69 .43 8.69 .64 8.69 .98 8.69 1.12 8.69 1.54 8.62 2.37 8.62 2.79 8.62 3.14 8.69 3.55 8.69 4.04 8.69 4.46 8.69 5.22 8.62 5.71 8.69 6.13 8.69 6.54 8.69 6.82 8.76 7.86 8.62 8.49 8.69 8.91 8.69 9.18 8.69 9.53 8.62 10.09 8.69 10.3 8.69 10.57 8.69 11.2 8.69 11.62 8.69 13.08 8.69 13.63 8.62 13.77 8.62 14.12 8.69 14.12 8.69 14.33 8.69 14.47 8.76 14.81 8.76 15.3 8.69 16.13 8.69 16.55 8.69 16.97 8.69 17.73 8.69 18.15 8.76 18.57 8.69 18.84 8.69 19.12 8.69 19.68 8.62 20.16 8.62 20.44 8.69 20.65 8.62 20.86 8.62 21.42 8.62 21.55 8.69 21.69 8.69 21.83 8.69 22.04 8.69 22.11 8.62 22.25 8.69 22.25 8.69 22.46 8.69 22.67 8.62 22.74 8.69 22.74 8.76 23.15 8.69 23.36 8.76 24.13 8.69 24.54 8.76 24.89 8.69 25.1 8.76 25.31 8.76 25.45 8.76 25.66 8.69 26.49 8.69 26.91 8.76 27.18 8.69 27.46 8.69 27.67 8.69 27.95 8.69 28.23 8.69 29.41 8.69 30.1 8.69 30.31 8.76 30.94 8.76 31.35 8.76 31.7 8.83 32.4 8.76 32.88 8.76 33.23 8.83 33.58 8.83 34.48 8.76 35.25 8.76 35.52 8.69 36.36 8.69 36.91 8.76 37.4 8.69 38.1 8.69 39.07 8.69 39.55 8.69 40.32 8.69 40.6 8.76 41.43 8.76 43.03 8.69 43.38 8.69 43.86 8.69 44.21 8.76 44.35 8.76 44.7 8.76 44.91 8.76 45.32 8.69 45.53 8.69 45.74 8.69 46.16 8.76 46.5 8.76 46.78 8.83 47.69 8.76 48.1 8.76 48.24 8.76 48.73 8.69 48.87 8.69 49.28 8.69 49.49 8.69 49.84 8.83 50.26 8.76 50.81 8.83 51.09 8.83 51.44 8.76 51.79 8.69 52.83 8.76 53.66 8.76 54.29 8.69 54.71 8.69 54.91 8.76 56.37 8.76 57.14 8.76 57.35 8.76 58.18 8.76 59.01 8.83 59.43 8.83 60.2 8.76 60.96 8.83 61.31 8.76 63.74 8.83 64.78 8.83 64.99 8.83 65.2 8.76 65.27 8.76 65.48 8.83 65.55 8.76 66.03 8.9 66.52 8.9 66.73 8.83 67.49 8.9 68.81 8.83 69.09 8.83 69.79 8.83 70.34 8.83 70.9 8.83 71.8 8.9 72.43 8.76 72.85 8.76 73.05 8.76 73.26 8.76 73.61 8.76 73.82 8.69 73.89"/><rect class="cls-1" x="21.64" y="13.14" width="1.63" height="1.63"/><polygon class="cls-1" points="16.82 74.17 16.75 74.17 16.61 73.96 16.68 73.54 16.68 73.26 16.61 72.78 16.68 72.71 16.68 72.43 16.68 71.18 16.61 70.83 16.61 70.48 16.68 69.79 16.68 69.51 16.68 69.3 16.75 66.59 16.68 66.24 16.54 65.41 16.61 64.57 16.68 64.02 16.68 63.25 16.68 62.84 16.75 62.35 16.75 61.93 16.68 61.45 16.68 61.1 16.68 60.27 16.61 60.06 16.68 59.64 16.68 59.22 16.68 58.74 16.68 58.6 16.61 57.21 16.68 56.86 16.68 56.51 16.75 55.96 16.61 55.05 16.68 54.29 16.68 53.73 16.61 53.52 16.61 53.18 16.61 52.97 16.61 52.48 16.61 51.93 16.68 51.44 16.61 50.81 16.61 50.54 16.61 50.4 16.61 49.91 16.61 49.08 16.68 48.66 16.68 48.38 16.61 48.1 16.68 47.69 16.68 46.92 16.68 46.57 16.68 46.16 16.68 45.88 16.68 45.74 16.61 45.05 16.61 44.77 16.68 44.07 16.68 44 16.68 43.72 16.68 43.24 16.68 42.47 16.68 42.27 16.68 41.99 16.68 41.71 16.68 41.29 16.68 40.46 16.75 40.11 16.68 39.76 16.68 38.79 16.68 38.58 16.61 38.37 16.68 37.96 16.68 37.54 16.68 36.64 16.68 36.36 16.68 35.94 16.68 35.87 16.61 35.59 16.61 35.32 16.68 34.27 16.68 33.65 16.68 33.39 16.82 33.16 16.75 31.22 16.75 30.73 16.68 30.24 16.68 29.2 16.68 28.64 16.68 28.37 16.68 27.32 16.61 26.14 16.61 25.52 16.61 25.03 16.68 24.68 16.68 23.57 16.61 23.22 16.61 22.81 16.61 22.67 16.54 20.72 16.54 20.1 16.54 19.75 16.54 19.12 16.68 18.71 16.61 18.5 16.68 18.29 16.68 16.27 16.61 15.86 16.61 15.65 16.61 15.23 16.61 14.88 16.61 14.47 16.61 14.12 16.61 13.98 16.68 13.35 16.68 12.87 16.68 11.96 16.68 10.78 16.61 10.5 16.61 10.09 16.61 9.53 16.61 9.11 16.61 8.98 16.68 8.35 16.68 8.07 16.68 7.45 16.68 6.68 16.61 6.26 16.61 6.06 16.61 5.85 16.68 5.22 16.68 5.15 16.61 4.6 16.68 4.46 16.68 3.69 16.61 3.48 16.61 3.28 16.61 2.86 16.61 2.58 16.61 2.09 16.61 1.75 16.61 1.26 16.68 1.05 16.68 .98 16.68 .77 16.68 .57 16.82 .43 16.82 .5 16.82 .7 16.82 .91 16.82 1.26 16.82 1.4 16.82 1.82 16.75 2.65 16.75 3.07 16.75 3.42 16.82 3.83 16.82 4.32 16.82 4.74 16.82 5.5 16.75 5.99 16.82 6.4 16.82 6.82 16.82 7.1 16.89 8.14 16.75 8.77 16.82 9.18 16.82 9.46 16.82 9.81 16.75 10.37 16.82 10.57 16.82 10.85 16.82 11.48 16.82 11.89 16.82 13.35 16.82 13.91 16.75 14.05 16.75 14.4 16.82 14.4 16.82 14.6 16.82 14.74 16.89 15.09 16.89 15.58 16.82 16.41 16.82 16.83 16.82 17.25 16.82 18.01 16.82 18.43 16.89 18.84 16.82 19.12 16.82 19.4 16.82 19.96 16.75 20.44 16.75 20.72 16.82 20.93 16.75 21.14 16.75 21.69 16.75 21.83 16.82 21.97 16.82 22.11 16.82 22.32 16.82 22.39 16.75 22.53 16.82 22.53 16.82 22.74 16.82 22.94 16.75 23.01 16.82 23.01 16.89 23.43 16.82 23.64 16.89 24.4 16.82 24.82 16.89 25.17 16.82 25.38 16.89 25.59 16.89 25.72 16.89 25.93 16.82 26.77 16.82 27.18 16.89 27.46 16.82 27.74 16.82 27.95 16.82 28.23 16.82 28.5 16.82 29.69 16.82 30.38 16.82 30.59 16.89 31.22 16.89 31.63 16.89 31.98 16.96 32.67 16.89 33.16 16.89 33.51 16.96 33.86 16.96 34.76 16.89 35.52 16.89 35.8 16.82 36.64 16.82 37.19 16.89 37.68 16.82 38.37 16.82 39.35 16.82 39.83 16.82 40.6 16.82 40.88 16.89 41.71 16.89 43.31 16.82 43.66 16.82 44.14 16.82 44.49 16.89 44.63 16.89 44.98 16.89 45.18 16.89 45.6 16.82 45.81 16.82 46.02 16.82 46.44 16.89 46.78 16.89 47.06 16.96 47.96 16.89 48.38 16.89 48.52 16.89 49.01 16.82 49.15 16.82 49.56 16.82 49.77 16.82 50.12 16.96 50.54 16.89 51.09 16.96 51.37 16.96 51.72 16.89 52.06 16.82 53.11 16.89 53.94 16.89 54.57 16.82 54.98 16.82 55.19 16.89 56.65 16.89 57.42 16.89 57.62 16.89 58.46 16.89 59.29 16.96 59.71 16.96 60.47 16.89 61.24 16.96 61.59 16.89 64.02 16.96 65.06 16.96 65.27 16.96 65.48 16.89 65.55 16.89 65.76 16.96 65.83 16.89 66.31 17.03 66.8 17.03 67.01 16.96 67.77 17.03 69.09 16.96 69.37 16.96 70.07 16.96 70.62 16.96 71.18 16.96 72.08 17.03 72.71 16.89 73.12 16.89 73.33 16.89 73.54 16.89 73.89 16.89 74.1 16.82 74.17"/><rect class="cls-1" x="23.27" y="24.57" width="1.63" height="1.63"/><rect class="cls-1" x="21.64" y="24.57" width="1.63" height="1.63"/><rect class="cls-1" x="28.17" y="24.57" width="1.63" height="1.63"/><rect class="cls-1" x="20.01" y="24.57" width="1.63" height="1.63"/><rect class="cls-1" x="20.01" y="44.16" width="1.63" height="1.63"/><rect class="cls-1" x="24.91" y="26.2" width="1.63" height="1.63"/><rect class="cls-1" x="26.54" y="29.46" width="1.63" height="1.63"/><rect class="cls-1" x="21.64" y="26.2" width="1.63" height="1.63"/><rect class="cls-1" x="21.64" y="27.83" width="1.63" height="1.63"/><rect class="cls-1" x="23.28" y="55.58" width="1.63" height="1.63"/><rect class="cls-1" x="23.28" y="27.83" width="1.63" height="1.63"/><rect class="cls-1" x="24.91" y="27.83" width="1.63" height="1.63"/><rect class="cls-1" x="23.28" y="53.94" width="1.63" height="1.63"/><rect class="cls-1" x="20.01" y="27.83" width="1.63" height="1.63"/><rect class="cls-1" x="60.82" y="19.67" width="1.63" height="1.63"/><rect class="cls-1" x="20.01" y="29.46" width="1.63" height="1.63"/><rect class="cls-1" x="18.38" y="49.05" width="1.63" height="1.63"/><rect class="cls-1" x="18.38" y="29.46" width="1.63" height="1.63"/><rect class="cls-1" x="16.75" y="27.83" width="1.63" height="1.63"/><rect class="cls-1" x="59.19" y="26.2" width="1.63" height="1.63"/><rect class="cls-1" x="26.54" y="26.2" width="1.63" height="1.63"/><rect class="cls-1" x="26.54" y="63.75" width="1.63" height="1.63"/><rect class="cls-1" x="28.17" y="26.2" width="1.63" height="1.63"/><rect class="cls-1" x="64.09" y="26.2" width="1.63" height="1.63"/><rect class="cls-1" x="29.81" y="26.2" width="1.63" height="1.63"/><rect class="cls-1" x="28.17" y="27.83" width="1.63" height="1.63"/><rect class="cls-1" x="15.11" y="53.95" width="1.63" height="1.63"/><rect class="cls-1" x="62.46" y="26.2" width="1.63" height="1.63"/><rect class="cls-1" x="16.75" y="55.58" width="1.63" height="1.63"/><rect class="cls-1" x="26.54" y="62.11" width="1.63" height="1.63"/><rect class="cls-1" x="16.75" y="53.95" width="1.63" height="1.63"/><rect class="cls-1" x="39.6" y="27.83" width="1.63" height="1.63"/><rect class="cls-1" x="16.75" y="52.32" width="1.63" height="1.63"/><rect class="cls-1" x="28.17" y="50.69" width="1.63" height="1.63"/><rect class="cls-1" x="28.17" y="37.63" width="1.63" height="1.63"/><rect class="cls-1" x="26.54" y="49.05" width="1.63" height="1.63"/><rect class="cls-1" x="26.54" y="60.48" width="1.63" height="1.63"/><rect class="cls-1" x="26.54" y="47.42" width="1.63" height="1.63"/><rect class="cls-1" x="28.17" y="34.36" width="1.63" height="1.63"/><rect class="cls-1" x="23.28" y="49.05" width="1.63" height="1.63"/><rect class="cls-1" x="21.64" y="49.05" width="1.63" height="1.63"/><rect class="cls-1" x="24.91" y="39.26" width="1.63" height="1.63"/><rect class="cls-1" x="20.01" y="49.05" width="1.63" height="1.63"/><rect class="cls-1" x="23.28" y="60.48" width="1.63" height="1.63"/><rect class="cls-1" x="18.38" y="50.69" width="1.63" height="1.63"/><rect class="cls-1" x="24.91" y="37.63" width="1.63" height="1.63"/><rect class="cls-1" x="20.01" y="50.69" width="1.63" height="1.63"/><rect class="cls-1" x="21.64" y="50.69" width="1.63" height="1.63"/><rect class="cls-1" x="15.12" y="27.83" width="1.63" height="1.63"/><rect class="cls-1" x="23.28" y="50.69" width="1.63" height="1.63"/><rect class="cls-1" x="24.91" y="62.11" width="1.63" height="1.63"/><rect class="cls-1" x="24.91" y="52.32" width="1.63" height="1.63"/><rect class="cls-1" x="15.12" y="26.19" width="1.63" height="1.63"/><rect class="cls-1" x="24.91" y="53.95" width="1.63" height="1.63"/><rect class="cls-1" x="24.91" y="55.58" width="1.63" height="1.63"/><rect class="cls-1" x="13.48" y="29.46" width="1.63" height="1.63"/><rect class="cls-1" x="24.91" y="57.22" width="1.63" height="1.63"/><rect class="cls-1" x="21.64" y="62.11" width="1.63" height="1.63"/><rect class="cls-1" x="23.28" y="57.22" width="1.63" height="1.63"/><rect class="cls-1" x="13.48" y="27.82" width="1.63" height="1.63"/><rect class="cls-1" x="23.28" y="58.85" width="1.63" height="1.63"/><rect class="cls-1" x="21.64" y="57.22" width="1.63" height="1.63"/><rect class="cls-1" x="24.91" y="45.79" width="1.63" height="1.63"/><rect class="cls-1" x="18.38" y="53.95" width="1.63" height="1.63"/><rect class="cls-1" x="18.38" y="52.32" width="1.63" height="1.63"/></g></svg>