<?xml version="1.0" encoding="UTF-8"?><svg id="Layer_2" xmlns="http://www.w3.org/2000/svg" viewBox="0 0 117.17 14.44"><defs><style>.cls-1{fill:#010101;}</style></defs><g id="hatch"><polygon class="cls-1" points="66.9 1.72 67.03 1.66 67.23 1.72 67.29 1.72 67.36 1.79 67.43 1.79 67.56 1.79 67.69 1.79 67.76 1.79 67.82 1.92 67.89 1.99 67.95 1.99 68.09 1.99 68.22 1.99 68.22 2.05 68.35 2.19 68.35 2.25 68.42 2.32 68.48 2.32 68.48 2.45 68.55 2.52 68.68 2.52 68.75 2.58 68.82 2.58 69.01 2.58 69.21 2.52 69.28 2.52 69.35 2.58 69.41 2.52 69.41 2.45 69.61 2.45 69.68 2.45 69.74 2.38 69.81 2.38 70.01 2.32 70.14 2.32 70.34 2.32 70.41 2.32 70.54 2.25 70.8 2.25 71.27 2.32 71.47 2.32 71.73 2.32 71.86 2.32 72 2.38 72.33 2.38 72.79 2.19 72.99 2.19 73.19 2.12 73.45 2.19 73.65 2.19 73.78 2.12 73.85 2.12 73.98 1.99 74.18 2.05 74.25 1.99 74.45 1.85 74.51 1.79 74.58 1.72 74.64 1.66 74.78 1.66 74.84 1.66 74.98 1.72 75.04 1.72 75.11 1.66 75.17 1.66 75.24 1.66 75.37 1.72 75.37 1.79 75.44 1.92 75.51 1.99 75.7 1.99 75.77 1.99 75.9 2.05 75.9 2.25 75.9 2.32 75.97 2.32 76.1 2.32 76.17 2.32 76.37 2.52 76.43 2.65 76.5 2.98 76.43 3.11 76.43 3.25 76.23 3.31 76.17 3.31 75.97 3.31 75.9 3.38 75.84 3.58 75.84 3.78 75.84 3.91 75.7 4.04 75.7 4.24 75.64 4.31 75.51 4.5 75.51 4.64 75.51 4.84 75.44 5.03 75.37 5.17 75.31 5.23 75.17 5.36 75.17 5.43 74.98 5.7 74.98 5.76 74.98 5.96 74.98 6.09 74.91 6.29 74.91 6.49 74.78 6.76 74.71 6.82 74.71 6.95 74.64 7.02 74.58 7.22 74.51 7.35 74.31 7.55 74.25 7.62 74.25 7.82 74.25 7.88 74.11 8.08 74.05 8.15 73.78 8.54 73.72 8.74 73.65 8.88 73.58 8.94 73.39 9.14 73.32 9.21 73.32 9.27 73.19 9.41 73.12 9.54 73.12 9.74 72.92 9.87 72.86 9.93 72.72 10 72.72 10.07 72.66 10.27 72.59 10.4 72.39 10.66 72.26 10.73 72.19 10.8 72.13 10.93 72 11.33 71.66 11.52 71.6 11.59 71.33 11.79 71.2 11.92 70.74 12.32 70.67 12.39 70.54 12.58 70.34 12.78 70.07 12.92 69.88 13.18 69.68 13.25 69.48 13.18 69.41 13.18 69.21 13.18 69.08 13.18 68.88 12.92 68.88 12.85 68.95 12.72 69.01 12.58 69.15 12.39 69.21 12.39 69.28 12.32 69.35 12.25 69.41 12.12 69.35 11.92 69.61 11.86 69.81 11.79 70.01 11.46 70.07 11.39 70.27 11.26 70.41 11.06 70.54 10.99 70.67 10.93 70.74 10.86 70.8 10.8 71 10.46 71 10.4 71.13 10.27 71.2 10.13 71.33 10.07 71.6 9.8 71.66 9.74 71.73 9.6 72 9.14 72.06 9.07 72.13 9.01 72.13 8.88 72.13 8.74 72.33 8.35 72.33 8.28 72.39 8.15 72.46 8.08 72.66 7.82 72.66 7.68 72.72 7.68 72.72 7.42 73.05 7.02 73.12 6.89 73.12 6.62 73.12 6.56 73.19 6.49 73.25 6.36 73.39 6.23 73.45 6.03 73.45 5.89 73.52 5.76 73.65 5.7 73.65 5.63 73.78 5.3 73.78 5.17 73.78 5.03 73.78 4.97 73.85 4.9 73.92 4.84 74.18 4.31 74.18 4.17 74.11 3.91 74.25 3.64 74.45 3.51 74.58 3.38 74.45 3.25 74.31 3.11 74.11 3.18 74.05 3.18 73.85 3.18 73.72 3.18 73.65 3.11 73.45 3.18 73.19 3.25 73.12 3.25 73.05 3.25 72.92 3.18 72.66 3.18 72.52 3.25 72.39 3.31 72.33 3.31 72.06 3.25 71.93 3.18 71.86 3.25 71.66 3.31 71.27 3.25 71.13 3.31 71.07 3.38 70.67 3.38 70.54 3.38 70.41 3.44 70.27 3.51 70.07 3.44 69.88 3.38 69.81 3.44 69.68 3.44 69.28 3.44 69.15 3.44 69.01 3.44 68.88 3.64 68.88 3.84 68.88 4.04 68.95 4.11 68.88 4.44 68.88 4.64 68.88 4.77 68.95 4.84 69.01 4.97 69.01 5.03 69.01 5.3 69.01 5.36 68.95 5.56 68.95 5.83 69.01 6.09 69.01 6.23 69.08 6.62 69.08 7.02 68.95 7.15 68.95 7.29 68.95 7.35 68.95 7.42 68.82 7.55 68.75 7.62 68.62 7.68 68.48 7.75 68.35 7.75 68.22 7.68 68.15 7.68 68.15 7.55 68.02 7.42 67.95 7.42 67.82 7.35 67.69 7.15 67.62 7.02 67.62 6.89 67.62 6.82 67.69 6.69 67.69 6.49 67.69 6.36 67.69 6.29 67.62 6.23 67.62 5.56 67.62 5.43 67.62 5.36 67.69 5.17 67.69 5.03 67.69 4.84 67.56 4.64 67.49 4.5 67.56 4.37 67.62 3.97 67.49 3.84 67.49 3.71 67.49 3.58 67.56 3.44 67.56 3.31 67.36 3.11 67.36 2.98 67.43 2.91 67.09 2.58 67.03 2.58 66.96 2.52 66.83 2.52 66.76 2.45 66.76 2.32 66.7 2.25 66.63 2.12 66.63 1.99 66.63 1.92 66.76 1.92 66.9 1.72"/><polygon class="cls-1" points="93.79 .93 93.79 .99 93.79 1.06 93.85 1.13 93.98 1.13 94.12 1.19 94.25 1.26 94.32 1.32 94.45 1.32 94.51 1.39 94.58 1.46 94.65 1.46 94.78 1.52 94.85 1.59 94.91 1.72 94.98 1.79 95.11 1.85 95.18 1.85 95.31 2.12 95.31 2.32 95.24 2.45 95.24 2.58 95.24 2.65 95.18 2.78 95.04 2.85 94.91 2.91 94.85 2.91 94.65 3.05 94.58 3.18 94.58 3.31 94.45 3.44 94.38 3.51 94.18 3.58 94.12 3.64 94.05 3.78 93.98 3.91 93.92 4.11 93.85 4.11 93.59 4.37 93.52 4.44 93.32 4.77 93.26 4.84 93.26 4.97 93.19 5.1 93.19 5.23 93.26 5.23 93.26 5.3 93.32 5.43 93.39 5.5 93.52 5.5 93.65 5.63 93.65 5.7 93.65 5.89 93.72 6.03 93.72 6.09 93.65 6.16 93.59 6.23 93.52 6.23 93.52 6.42 93.52 6.56 93.45 6.62 93.39 6.76 93.39 6.89 93.39 7.02 93.45 7.15 93.45 7.35 93.45 7.48 93.45 7.68 93.45 7.75 93.52 8.01 93.59 8.08 93.52 8.28 93.52 8.41 93.45 8.54 93.39 8.68 93.45 9.14 93.45 9.27 93.45 9.34 93.52 9.41 93.52 9.6 93.52 9.74 93.52 10.13 93.52 10.2 93.52 10.33 93.52 10.4 93.59 10.6 93.59 10.66 93.59 10.8 93.52 11.59 93.52 11.72 93.52 11.79 93.59 11.92 93.59 11.99 93.65 12.25 93.59 12.39 93.59 12.52 93.59 12.72 93.65 12.78 93.65 12.85 93.52 13.05 93.52 13.11 93.52 13.25 93.45 13.31 93.26 13.45 93.19 13.45 93.12 13.45 93.06 13.38 92.99 13.38 92.92 13.38 92.79 13.38 92.66 13.31 92.53 13.18 92.46 13.11 92.39 13.18 92.33 13.11 92.26 12.98 92.2 12.85 92.06 12.78 92.06 12.72 92.06 12.65 92.13 12.52 92.13 12.39 92.06 12.32 92 12.25 92 12.12 92 11.92 92.06 11.79 92.06 11.72 92.06 11.66 92.13 11.52 92.2 11.39 92.2 11.33 92.26 11.19 92.33 11.06 92.33 10.93 92.2 10.73 92.2 10.66 92.2 10.6 92.26 10.4 92.26 10.33 92.33 10 92.26 9.93 92.26 9.74 92.26 9.6 92.26 9.54 92.2 9.47 92.2 9.41 92.26 9.34 92.26 9.07 92.26 9.01 92.26 8.88 92.2 8.81 92.2 8.68 92.26 8.54 92.26 8.48 92.2 8.35 92.26 8.15 92.2 7.48 92.2 7.42 92.2 7.29 92.26 7.09 92.13 6.69 92.2 6.56 92.26 6.42 92.26 6.29 92.26 6.23 92.2 6.16 92.13 6.16 92.06 6.16 92 6.29 91.93 6.42 91.8 6.49 91.67 6.49 91.53 6.56 91.47 6.62 91.34 6.76 91.27 6.82 91.14 6.89 91.07 6.95 91.14 7.09 91.07 7.15 90.94 7.22 90.87 7.29 90.81 7.35 90.74 7.42 90.67 7.48 90.47 7.62 90.34 7.75 90.21 7.88 90.14 7.95 90.08 8.08 89.81 8.21 89.75 8.21 89.68 8.35 89.61 8.41 89.48 8.54 88.95 8.88 88.95 8.94 88.82 9.01 88.69 9.07 88.55 9.07 88.49 9.14 88.35 9.34 88.22 9.47 87.96 9.74 87.82 9.87 87.49 9.93 87.36 9.87 87.23 9.87 87.23 9.93 87.03 10.07 86.77 9.93 86.63 9.8 86.57 9.74 86.7 9.47 86.7 9.41 86.9 9.21 86.96 9.14 87.16 9.07 87.29 8.94 87.43 8.88 87.43 8.81 87.49 8.81 87.63 8.68 87.76 8.54 87.89 8.48 87.96 8.48 88.16 8.35 88.29 8.21 88.35 8.08 88.49 8.01 88.55 7.95 88.75 7.82 88.82 7.75 88.95 7.62 88.95 7.55 89.02 7.48 89.22 7.42 89.28 7.35 89.41 7.22 89.48 7.15 89.55 7.09 89.55 6.95 89.61 6.89 89.88 6.76 89.88 6.69 90.01 6.49 90.14 6.49 90.21 6.42 90.34 6.29 90.34 6.23 90.34 6.16 90.34 6.03 90.54 5.96 90.67 5.96 90.74 5.89 90.81 5.76 90.81 5.7 90.94 5.5 90.94 5.43 91 5.36 91.07 5.3 91.2 5.23 91.34 5.17 91.4 5.1 91.53 4.84 91.6 4.77 91.6 4.7 91.67 4.7 91.8 4.64 91.87 4.5 91.87 4.44 91.87 4.37 91.93 4.31 92 4.24 92.06 4.17 92.13 4.17 92.2 4.04 92.26 3.97 92.33 3.84 92.39 3.91 92.59 3.51 92.66 3.44 92.86 3.38 92.86 3.31 92.92 2.98 93.06 2.78 93.12 2.72 93.12 2.65 93.26 2.65 93.26 2.72 93.45 2.65 93.52 2.25 93.52 2.12 93.52 1.99 93.45 1.99 93.32 1.99 93.26 1.92 93.26 1.79 93.19 1.72 93.12 1.66 92.92 1.66 92.86 1.66 92.86 1.52 92.86 1.46 92.73 1.46 92.66 1.32 92.73 1.26 92.79 1.13 92.79 1.06 92.86 .99 92.99 .93 93.12 .93 93.19 .93 93.32 .86 93.45 .93 93.52 .99 93.59 1.06 93.79 .93"/><polygon class="cls-1" points="110.28 5.5 110.28 5.56 110.21 5.63 110.21 5.76 110.08 5.89 109.88 5.96 109.81 6.03 109.75 6.09 109.62 6.16 109.62 6.23 109.48 6.23 109.35 6.23 109.22 6.23 109.15 6.16 109.15 5.96 108.89 5.89 108.75 5.83 108.62 5.56 108.69 5.5 108.56 5.36 108.49 5.23 108.42 5.17 108.29 5.17 108.22 5.1 108.22 5.03 108.22 4.9 108.16 4.64 108.03 4.5 107.96 4.44 107.83 4.37 107.69 4.31 107.5 4.17 107.43 4.11 107.36 4.04 107.3 3.91 107.16 3.84 107.1 3.84 106.97 3.78 106.9 3.71 106.83 3.58 106.83 3.51 106.9 3.44 106.97 3.31 106.97 3.25 106.97 3.11 107.03 3.05 107.16 2.98 107.23 2.91 107.63 3.05 107.76 3.05 107.89 3.05 107.96 3.18 108.09 3.25 108.22 3.25 108.29 3.31 108.36 3.44 108.42 3.44 108.62 3.51 108.69 3.51 108.75 3.51 108.89 3.51 108.95 3.64 109.02 3.78 109.09 3.84 109.15 3.91 109.35 3.84 109.55 4.11 109.62 4.17 109.68 4.24 109.75 4.31 109.81 4.44 109.81 4.5 109.95 4.5 110.01 4.64 110.08 4.7 110.08 4.77 110.15 4.9 110.15 5.03 110.15 5.1 110.15 5.23 110.15 5.36 110.21 5.43 110.28 5.5"/><polygon class="cls-1" points="107.56 9.87 107.69 9.87 107.76 9.93 107.89 9.87 107.96 9.93 108.03 10.07 108.03 10.2 108.16 10.2 108.22 10.2 108.36 10.27 108.36 10.33 108.29 10.4 108.36 10.46 108.42 10.53 108.62 10.4 108.75 10.33 108.95 10.4 109.02 10.33 109.09 10.13 109.28 10 109.35 10 109.48 9.93 109.62 9.87 109.68 9.8 109.68 9.67 109.81 9.6 109.88 9.6 110.01 9.6 110.08 9.54 110.08 9.47 110.15 9.34 110.28 9.34 110.41 9.34 110.61 9.14 110.74 9.01 110.81 8.94 110.87 8.88 110.94 8.81 111.07 8.68 111.14 8.61 111.34 8.48 111.4 8.41 111.54 8.41 111.67 8.35 111.8 8.21 111.87 8.01 111.93 7.95 112.07 7.88 112.2 7.82 112.26 7.75 112.33 7.68 112.33 7.62 112.4 7.62 112.53 7.55 112.6 7.48 112.66 7.48 112.79 7.35 112.79 7.22 112.93 7.15 112.99 7.09 113.13 7.09 113.19 7.09 113.39 6.82 113.39 6.69 113.52 6.49 113.66 6.42 113.85 6.29 113.92 6.29 114.05 6.23 114.19 6.09 114.19 6.03 114.25 5.89 114.32 5.76 114.38 5.76 114.45 5.63 114.52 5.56 114.58 5.5 114.65 5.43 114.72 5.43 114.78 5.43 115.05 5.03 115.11 4.97 115.11 4.77 115.18 4.7 115.31 4.57 115.38 4.44 115.44 4.44 115.58 4.37 115.78 4.24 115.84 4.17 115.91 4.11 116.04 3.91 116.04 3.84 116.11 3.71 116.11 3.64 116.17 3.58 116.3 3.51 116.37 3.44 116.44 3.38 116.44 3.25 116.44 3.18 116.57 3.18 116.7 3.18 116.9 3.18 116.97 3.31 117.03 3.38 117.1 3.38 117.17 3.44 117.17 3.51 117.17 3.64 117.1 3.78 117.1 3.91 117.17 3.91 117.1 4.04 117.1 4.17 116.97 4.31 116.9 4.37 116.77 4.44 116.57 4.64 116.57 4.7 116.57 4.84 116.5 4.84 116.44 5.03 116.37 5.17 116.24 5.23 116.24 5.3 116.11 5.43 116.04 5.43 115.84 5.63 115.84 5.76 115.78 5.83 115.71 5.96 115.64 6.03 115.44 6.23 115.31 6.36 115.18 6.42 115.11 6.49 115.11 6.56 115.11 6.69 115.05 6.76 114.85 6.89 114.78 7.02 114.65 7.15 114.58 7.22 114.38 7.42 114.19 7.68 114.05 7.68 113.99 7.68 113.85 7.82 113.66 8.15 113.59 8.21 113.39 8.41 113.26 8.54 113.19 8.61 113.19 8.68 113.06 8.81 113.06 8.94 112.86 9.07 112.86 9.14 112.6 9.21 112.53 9.21 112.53 9.27 112.46 9.34 112.4 9.47 112.2 9.67 112.07 9.67 111.93 9.74 111.8 9.87 111.54 10.07 111.47 10.13 111.47 10.27 111.34 10.33 111.21 10.4 111.14 10.53 111.07 10.6 110.94 10.73 110.87 10.8 110.74 10.86 110.68 10.93 110.54 10.99 110.34 10.99 110.21 11.06 110.15 11.06 110.01 11.19 109.95 11.19 109.95 11.26 109.68 11.52 109.62 11.59 109.62 11.66 109.55 11.72 109.55 11.79 109.48 11.86 109.42 11.92 109.35 11.99 109.28 12.12 109.15 12.19 109.02 12.19 108.89 12.19 108.62 12.19 108.49 12.12 108.42 12.05 108.36 11.92 108.29 11.86 108.16 11.79 108.09 11.72 108.03 11.59 107.89 11.52 107.89 11.46 107.89 11.39 107.89 11.33 107.76 11.26 107.69 11.26 107.56 11.19 107.43 11.13 107.43 10.99 107.43 10.93 107.36 10.86 107.3 10.8 107.23 10.8 107.16 10.73 107.1 10.4 107.16 10.33 107.16 10.27 107.23 10.27 107.3 10.07 107.3 9.93 107.36 9.87 107.43 9.87 107.5 9.93 107.56 9.87"/><path class="cls-1" d="M51.93,5.1v.07l-.07.13v.2l.07.07v.13l-.07.2v.46l-.13.07v.33l-.2.26-.07.27v.13l-.13.26.07.13-.07.13-.2.27-.13.33-.07.07-.13.2-.13.13v.07l-.2.4-.07.07-.07.07-.07.13-.13.07-.07.13-.13.27-.13.13-.07.07-.13.13-.2.13-.13.07v.07l-.26.26h-.53l-.13-.07h-.13l-.13-.07-.07-.07-.07-.13-.13-.07h-.07l-.07-.07-.13-.13v-.07l-.07-.07-.07-.07-.07-.07-.07-.07.07-.2-.13-.13v-.07l-.07-.07-.07-.4-.07-.07-.07-.26v-.6l.07-.26v-.07l.13-.2-.07-.33.07-.13.07-.07.13-.26v-.07l.07-.13.2-.13v-.13l.07-.13.07-.2h.07l.13-.07.07-.2.07-.13.2-.13.07-.07.07-.07.2-.2.13-.07.07-.07h.13l.07-.13.07-.07h.07l.13-.07.07-.07h.07l.13-.07.13-.07.13-.07.13-.07h.13l.13-.13.13-.07.4-.07h.26l.53-.07.2-.07.13.07h.26l.26.07.4-.07.13.07.27.07.26.07h.13l.07.07.13.07h.07l.2.07.07.07v.07l.13.07.2.07.13.13v.07h.07l.13.07.13.07.07.07.07.07.07.07.13.26.07.07.13.07.07.07.07.07v.26l.07.07.07.13v.07l.2.13.07.26v.4l.07.13v.07l.07.26.07.07v.66l-.07.07v.2l.07.13-.26.53-.07.07v.13l-.2.13-.07.13v.13l-.2.2-.07.13-.07.2h-.07l-.13.13-.2.13-.13.13-.2.13-.13.07h-.13l-.13.13-.2.07-.13.13-.27.13h-.13l-.13.07h-.4l-.2.26-.2-.07h-.26l-.2.07-.07.07-.13.07h-.33l-.33.13-.4-.07h-.13l-.07-.13v-.2l.13-.13v-.07l.07-.13.2-.07h.13l.2.07.13-.07.26-.13.07-.07h.26l.33-.07.07-.07.07-.07h.07l.2-.13h.07l.2-.07.13-.07.2-.2.13-.07h.2v-.07l.26-.2h.07l.07-.13v-.07l.07-.07v-.07l.13-.13.07-.07h.07l.13-.13.07-.07.13-.13v-.26l.07-.07.13-.26.07-.07v-.13l-.07-.13v-.13l.07-.2-.07-.2.07-.13.07-.13-.07-.26v-.33l-.07-.07-.2-.27-.07-.07-.07-.13-.07-.13v-.13l-.13-.13-.07-.07-.13-.07-.13-.2-.2-.07-.13-.07-.13-.13v-.07l-.13-.07h-.07l-.13-.07h-.07l-.13-.07-.07-.07v-.07l-.2.07h-.2l-.13-.07-.07.07h-.07l-.13-.07h-.27ZM48.81,6.23l-.07.2v.07l-.07.07-.07.13-.07.07-.13.13v.07l-.13.07-.13.33v.07l-.07.07v.26l-.13.26v.6h.07l.07.13v.4l.13.13.07.2-.07.13.13.07.13.07h.13l.2-.07.13-.07v-.07l.07-.13.2-.26.13-.13.13-.13.07-.2.07-.07.2-.13.2-.33v-.13l.07-.07.07-.07.07-.13.2-.33v-.13l.07-.2.07-.13.13-.2.07-.13v-.07l.07-.07v-.6l.13-.07.07-.07.07-.13v-.27l-.2-.13h-.07l-.33.07h-.07l-.13.13h-.2l-.26.07-.13.07-.07.07-.13.13-.07.07-.26.13v.07l-.07.13-.07.07h-.2Z"/><path class="cls-1" d="M25.23,6.09l.13-.07.13-.07.07-.07.07-.13.13-.07h.13v-.13l.07-.07v-.2h.07l.07-.13.07-.13h.07v-.07h.07l.07-.07.07-.07v-.13l.07-.13.13-.07.13-.2.07-.07.07-.13v-.13l.07-.2.07-.13.07-.13.07-.13.07-.07.07-.07.07-.07-.07-.07.07-.07.07-.13.07-.07h.07l.07-.07.07-.07.07-.07h.07l.13.07.13.07.07.13v.2l-.07.13-.07.07-.13.13v.13l.07.07-.07.07-.07.07-.13.2v.13l-.07.07v.2l-.13.2-.07.07v.13l-.07.07-.07.2.13-.07.07-.13.13-.2.07-.13h.07l.13-.07.07-.13.07-.2.07-.13.13-.07.13-.2v-.07l.07-.2.13-.07.2-.26v-.4l.13-.07.13-.2.13-.2.13-.26.26-.66.13-.2v-.2l-.07-.26.07-.2.2-.26.13-.13.2.07.07.13h.07l.26.07.2.07.13.07v.07l.2.13.26.07.13.07.07.13v.07l-.07.2v.07l-.26.13h-.13l-.2.07-.13.13-.07.2-.13.2-.13.13v.26l.13.13h.13l.07-.07h.46l.26-.07.2.07h.33l.13-.13.13.07.2-.13v-.2l.07-.07v-.07l.07-.07-.07-.13.07-.07.07-.07.13-.13.07-.33.07-.2v-.46l.13-.2.2-.07.2.07.13.13.2.07.2.07.13.13.07.07.13.07h.13l.26.13v.07l.07.13v.13l-.13.13h-.07l-.07.07-.2.07h-.07v.07h-.2l-.13.07v.07l-.13.07-.07.07v.13l-.07.07-.2.13v.07l-.13.07v.13l.07.07h.07l.07-.07h.33l.07-.07h.33v.07h.17l.1-.07h.13l.07.07v.07h.13l.07-.07-.07-.07v-.07l.07-.07h.13l.07-.07.07-.07v-.13l.07-.07.07-.07h.07l.07-.07.13-.07h.13l.07.13.07.07.07-.07h.13l.13.07h.07l.07.13v.13l.07.07.2.13h.13l.13.07.07.07.07.07-.07.13v.33l-.13.07-.13-.07-.13.07-.07.07h-.33l-.07-.07h-.6l-.4.07h-.2l-.2-.07h-.13l-.27.07h-.13l-.13-.07h-.33l-.07-.07-.26.07-.07.13-.07.07.07.07v.2l-.07.13v.2l.07.07v.13h.13l.13.07h.13l.13-.07h.07l.13.07h.53l.07-.07.07-.13h.07l.07-.07.07-.07h.2l.07-.07v-.13l.13-.07h.13l.07.07.13-.07.07.13.07.13.13.07.07.07-.07.07v.07l.07.07.13.13h.2l.07.07v.13l.07.07v.33l-.07.07h-.07l-.2-.07h-.2l-.2.07h-.4l-.13-.07-.33.07h-.2l-.07-.07-.07-.07-.2.07-.13-.07h-.26l-.07.07-.07.07h-.26v-.07h-.07l-.13.13v.4l.07.07-.07.2-.07.13v.2h.13l.07.07h.07l.07.07h.2v-.07h.07l.07.07h.33l.07-.07h.07l.07.07.13-.07.07-.07v-.13l.13-.13h.13l.13-.13.07-.07.07-.13h.2v-.07h.13l.07.13h.13l.07.07.07.07h.13l.07.13v.07h.07l.07.07v.13l.13.07h.13v.07l.07.07v.2l.07.07v.07l-.07.07v.07h-.13l-.07.13-.13.07h-.27l-.07-.07h-.27l-.13.07h-.33l-.07-.07h-.33l-.13-.07v-.07l-.27.07-.13.07h-.13l-.13.07h-.13v-.07l-.07-.07h-.13l-.07.07-.13.07-.07.07v.13l.07.07-.07.13.13.07v.07l-.07.13-.07.13-.07.07.13.13h.53l.26-.07.07.07v.07l.46-.07.07-.07h.07l.07-.07.13.07.2-.07v-.2h.27l.07-.13v-.07l.07-.07h.2l.13-.07h.13l.13.13h.2l.07.13v.2l.2.13.07.07.07.07.2.07.13.13.07.13v.13l-.07.07v.13l-.13.07h-.2l-.2-.07h-.13l-.33.07h-.53l-.13-.07h-.27v.07h-.6l-.26.07-.13-.07h-.13l-.07-.13h-.46l-.13.07h-.33l-.07-.07h-.33v.07h-.2l-.26-.07-.07.13h-.66l-.07-.07h-.53l-.4.07-.13-.07h-.27l-.13.07-.13.07v.2l.07.07h.4l.13.07h.26l.13-.07h.13l.13.07h.03l.03.07.07.07h.07l.07.07v.2l-.07.13v.13h.07l-.07.07-.2.07-.13.07h-.07l-.07.07-.07.07v.13l.07.07v.07l.07.07h.07l.07-.07.07.07.26.07h.2l.07-.07h.07l.07-.07.13.07h.26l.07.07h.07l.53-.07h.07l.13-.07h.26l.13.07h.46l.07.07.13-.07h.46l.2-.07h.2l.07.07.2-.07.07-.07v-.07l.07-.07v-.07l.07-.07.13-.07v-.07h.13l.07-.07.07-.07.07-.13.13-.07h.26v.13l.07.07.07.13.13-.07h.07l.13.13.07.07.07.07.07.13.26.13h.13l.07.13v.07l.07.07v.07l-.13.13.07.13v.07l.07.07v.07l-.07.07h-.27l-.13-.07-.26-.07-.07.07h-.26l-.26-.07-.07-.07-.4.07h-.33l-.2.07h-.73l-.13-.07h-.46l-.07.07h-.4v-.07h-.6l-.07.07h-.73l-.07-.07h-.33l-.26.07h-.33l-.07.07-.07.07.07.07v.33l.07.07.07.26v.33l-.07.07-.07.13v.4l.13.07.07.07.07.1-.07.23v.4l.07.13-.07.2h-.07l-.07.07h-.27l-.07.13-.2.07h-.4l-.07-.07-.07.13h-.26l-.07-.13v-.13l-.07-.07v-.13l-.07-.07v-.33l.07-.13-.07-.4v-.13l-.07-.07v-.07l.07-.13v-.07h.07l-.07-.13.07-.13v-.26l-.07-.13v-.2l.07-.07v-.13l-.07-.07v-.13l.07-.07v-.13h-.2l-.13.07h-.66l-.07-.07h-.46l-.13.07h-.2l-.2-.07h-.07l-.13-.07h-.33l-.07.07h-.33l-.07-.07h-.2l-.07.07h-.33l-.07.07h-.53l-.07-.07h-.13l-.07-.07h-.07l-.07.07h-.33v.07l-.07.07h-.07l-.07.07h-.46l-.07-.07h-.2l-.07-.13-.07-.13v-.07l.07-.07v-.13l-.07-.07-.07-.07-.07-.07.07-.07-.07-.07h-.07v-.13l.07-.07v-.07h.07l.07.07v.07h.13l.07.07h.46l.13.07h.33l.07.07h.13v-.07h.46l.07-.07h.07l.13.07h.26l.13.07h.13v-.07h.13l.2-.07.07.07h.46l.13-.07.07.07h.07l.27.07.13-.13.07.07h.26l.2-.07h.2l.2.07h.13l.07-.07.07.07h.46l.07-.07h.07l.07.07.07-.07.07-.13v-.4l-.07-.07.07-.2-.07-.13v-.07h-.2l-.13.07-.2-.07v-.07l-.13-.07v.07l-.13-.07.07-.07v-.07l-.13-.07-.07-.13v-.07l-.07-.07.07-.13v-.2l.07-.13-.07-.2v-.2l-.07-.07v-.4h.07v-.53l.07-.07-.07-.07-.07-.2.07-.2v-.13l.07-.07v-.26l-.07-.2-.07-.2.07-.26v-.2l.13-.13-.07-.07-.07-.07-.2.13-.07.07-.13.13h-.13l-.07.13v.07l-.07.13h-.07l-.13.07-.07.13-.26.26-.13-.07-.13-.13-.13-.07-.07.07-.13.2-.07.07v.2l-.07.2-.07.07-.13.13-.07.07v.13l-.07.26-.13.13-.07.2v.46l.07.07.13.13v.13l.07.07v.13l.2.33v.07l-.13.26.07.2-.07.07-.13.2-.13.07-.07.07-.07.13h-.33l-.13-.07h-.13l-.07.07-.33-.26-.07-.07h-.07l-.13-.33.07-.13v-.07l-.07-.13.07-.2v-.13l.07-.13.07-.13-.07-.07v-.07h.07l.07-.07v-.26l-.07-.13.07-.07v-.13l-.07-.13-.26-.13-.07-.07-.07-.13h-.33l-.2-.2h-.26l-.07-.07-.13-.13.07-.2.07-.13h.07l.2-.07h.33l.2.07v.07l.07.07h.2l.13.07.13-.07.07-.07v-.07l.07-.07ZM30,3.18h-.07l-.07.13.07.07v.07l-.07.13v.4l.07.07.07.07.07.07.13.07h.4l.33-.07h.13l.07.07.07.07h.26l.13-.07h.26l.07.07.13-.13-.07-.07v-.13l.07-.13v-.13l-.07-.07v-.13l.07-.13v-.13l-.07-.07h-.07l-.13.07-.13-.07-.13-.07-.07.07h-.4l-.2-.07h-.07l-.2.07h-.6ZM30.14,4.97l-.07.13h-.07v.07l-.13.07.07.07.07.13v.07l-.07.07v.07l.07.13.07.13h.26l.07-.07.13.07.07.07h.13l.33.07h.33l.07-.07h.13l.26.07h.07l.07-.07.07-.13v-.07l-.07-.13.07-.07v-.2l-.07-.13v-.2h-.07l-.07-.07-.2.07-.13-.07h-.13l-.07.07h-.2l-.13-.07-.13.07h-.26l-.13-.07h-.33ZM30,6.89l-.07.07v.2l.07.07v.07l-.07.07-.07.13v.07l.07.07v.2h.07l.13.07h.4l.07-.07.13.07.13-.07.26.07h.46l.13-.07h.2l.07-.07.07-.07.07-.13h-.07l-.07-.07.07-.2.07-.07-.07-.07v-.26l-.07-.07h-.07l-.07.07h-.13l-.13-.07h-.26v.07h-.2l-.07-.07h-.07l-.07.07-.2-.07h-.26v.07h-.26l-.07-.07h-.07l-.07.07Z"/><polygon class="cls-1" points="23.58 2.98 23.65 2.91 23.78 2.78 24.04 2.78 24.24 2.85 24.37 2.91 24.44 2.91 24.64 2.98 24.7 2.98 24.77 3.05 24.9 3.11 24.97 3.11 25.1 3.11 25.17 3.18 25.37 3.31 25.5 3.38 25.7 3.44 25.76 3.51 25.9 3.71 26.03 3.78 26.1 3.84 26.23 4.04 26.23 4.17 26.16 4.24 26.16 4.5 26.23 4.64 26.16 4.64 26.1 4.7 26.03 4.77 25.96 4.84 25.96 4.9 25.9 4.97 25.7 5.1 25.57 5.1 25.3 5.1 25.1 4.77 25.04 4.77 24.9 4.7 24.77 4.57 24.77 4.37 24.77 4.17 24.7 4.17 24.57 4.04 24.37 3.91 24.24 3.71 24.18 3.64 23.91 3.38 23.84 3.38 23.65 3.38 23.51 3.38 23.51 3.25 23.51 3.18 23.51 3.11 23.58 2.98"/><polygon class="cls-1" points="24.51 .86 24.51 .79 24.57 .66 24.77 .66 24.9 .6 24.97 .53 25.17 .6 25.3 .66 25.43 .73 25.57 .73 25.76 .73 25.9 .73 25.96 .79 26.03 .86 26.1 .93 26.29 .93 26.36 .93 26.63 .99 26.63 1.06 26.63 1.19 26.76 1.32 26.82 1.32 26.82 1.39 26.96 1.46 27.02 1.52 27.09 1.85 27.09 1.92 27.09 2.05 27.09 2.12 26.96 2.25 26.96 2.38 27.02 2.45 26.96 2.52 26.82 2.72 26.69 2.72 26.56 2.78 26.49 2.85 26.43 2.85 26.36 2.85 26.16 2.72 26.1 2.65 26.1 2.58 25.96 2.38 25.9 2.38 25.83 2.19 25.83 2.05 25.76 1.99 25.57 1.85 25.43 1.72 25.3 1.52 25.04 1.26 25.04 1.32 24.84 1.26 24.77 1.06 24.7 1.06 24.57 1.06 24.51 .99 24.51 .86"/><path class="cls-1" d="M.99,2.58l-.07-.13v-.07l-.07-.26v-.2l.13-.07.13.07h.73l.2.07h.66l.2-.07h.2l.13.07h.2l.26-.07h.13l-.07-.2V.46l-.07-.13v-.2l.13-.13h.13l.2.13h.33l.13.07h.33l.07.07.2-.07.4.26.13.07v.33l-.07.07-.13.07-.07.07-.13.07-.07.13v.07l-.07.13v.2l.07.2v.07l.2.07h3.51l.13-.13v-.33l-.07-.2-.07-.13.13-.13v-.33l-.07-.13v-.33l-.07-.13.07-.07.2-.07.2.07h.13l.13.07h.26l.13.07h.46l.13.07.13.13.07.07.07.13-.07.13-.07.2h.07l-.2.13-.13.07h-.07l-.07.07v.73l.07.07h.13l.13-.07h.13l.2.07h.4l.13.07.13-.07.07-.07.26-.33.2-.26h.07l.2-.07h.26l.13.2.13.26.27.07.2.13.13.07.13.13.13.13v.2l-.07.2-.07.07-.13.07h-.93l-.13-.07h-.4l-.07.07h-.26l-.07-.07h-.4l-.13-.07h-.6l-.07.07h-.07l-.13.07.07.2v.53l-.07.13v.13l.07.13-.07.07.07.13.07.4-.07.13.07.13-.07.27v.86l-.07.26.07.13-.07.2v.26l.07.2v.53l.07.07h.07l.6.07h.2l.13-.07.07.07h.33l.13-.07.13-.13v-.13l.13-.07.2-.07.07-.13.2-.13.13-.07.2.07.07.07.07.07.13.07v.13l.2.07.13.07.07.07h.13l.13.07.07.13.13.13.13.07v.26l-.07.13-.07.13-.13.13h-.13v-.13h-.33l-.27-.07h-.79l-.13.07h-.93l-.4-.07h-.53l-.26.07h-.4l-.07.07.07.13.07.13.2.07.2.13.33.2v.13l.2.13.26.13.07.07.07.07.07.07.07.07.46.26.26.2h.33l.26.13.13.07.2.07.33.07.2.07.2.07h.4l.2.07h.2l.13.13.07.13v.07l-.13.2-.13.07v.07l-.13.07-.13-.07-.13.13-.07.13-.07.26-.07.07-.13.07-.13.07h-.13l-.13-.07-.13-.07-.13-.07h-.26l-.33-.13-.13-.2-.2-.07-.26-.07-.2-.13-.13-.07-.13-.07-.07-.07-.07-.2h-.2l-.33-.33-.13-.13-.13-.07-.13-.13-.2-.2-.07-.07-.13-.13-.07-.07v-.07l-.4-.33-.13-.07-.07-.07-.07-.2v-.07l-.13-.13-.07-.07-.07-.13-.07-.07-.07-.07-.07-.2h-3.38l-.07.13-.07.07-.07.07-.07.07v.26l-.13.07-.07.13-.33.4-.07.07h-.07l-.07.07h-.07v.13h-.07l-.07.13-.07.07-.13.13h-.2l-.07.07-.07.07.07.13.13.07.13.07h.4l.13-.07h.33l.13.07h.33l.13-.07.07.07h.4l.07-.13h.26v-.53h-.07l-.07-.07v-.13l.07-.07v-.33l-.07-.07v-.27l-.07-.07v-.07h-.07v-.07l.07-.13.13-.07.13-.07.2.07h.07l.2.07.07.07h.2l.07.07h.4l.13.07h.26l.07.07.13.07v.07l-.07.07-.07.07.07.07v.26l-.13.07h-.07l-.07.07-.07.07-.07.13v.07l-.07.07v.07l.07.07v.2l-.07.07v.07l.07.07.13.07h.2l.07.07h.26l.13-.07h.27l.07-.13.07-.07.13-.13.07-.07.13-.13.13-.13.13.07.07.07.13.07v.07l.13.07.13.07h.13l.13.07.13.2.13.13.13.07.07.13.13.13-.07.13-.07.07h-.07l-.13.07-.07.07h-.07l-.13-.07v-.13h-.4l-.07.07h-.27l-.6.07-.13-.07h-.13l-.26-.07h-.26l-.07.07-.07-.07h-.07l-.13.07h-.07l-.07-.07-.07.13v.07l.07.07.07.13v.2l-.07.07v.27l-.07.07.07.07v.13l.07.13-.07.07v.26h.07v.2l-.07.07.07.07h.26l.2-.07h.13l.2-.07.07.07h.26l.13.07.2-.13.13.07h.07l.26.07v-.07h.13l.13.07h.73l.07-.07h.53l.13-.07h.13v-.07l.07-.07.07-.13.07-.13h.13l.07-.13.07-.07.07.07.13-.07v-.07h.2v.13h.07l.13.07.07.07-.07.13h.07l.07.07.2.07h.07l.2.07.07.07v.13l.13.07.13.07v.2l-.07.07-.07.07v.2l-.07.07h-.2l-.13-.07-.07-.07-.13.07-.07.07h-.13l-.07-.07h-1.06l-.07-.07-.2-.07-.33.07h-1.79l-.13-.07-.26.07h-.4l-.26.13h-.13l-.33-.07h-.99l-.13-.07h-.53l-.13.07h-.79l-.27.07h-.2l-.13-.07h-.13l-.33-.07-.46.13h-.93l-.26-.07h-.13l-.07.07-.2.07h-.66v-.2l-.07-.2v-.07l.07-.07-.07-.13-.07-.07h-.07v-.26l.07-.07h.13l.13.07h.13l.13.07h1.46v.07h.73l.2-.07.26.07h.93l.2-.07h.13l.13.07h.53l.07-.07h.2l.07-.2-.07-.07-.07-.07v-.07l-.07-.26.07-.07v-.07l-.07-.13.07-.07v-.2l-.07-.07v-.13l-.07-.07-.07-.07h-.07l-.07-.07h-.2l-.07.07h-.07l-.26-.13-.07.07h-.4l-.2-.07h-.07l-.2.07h-.07l-.13-.07-.13.07h-.26l-.07-.07h-.07l-.07.07h-.07v-.13l-.07-.07h-.07l-.07-.13v-.2l-.13-.13-.07.07v.07h-.2v.07l-.07.07-.07.13-.07.07h-.2l-.07.07-.07.13h-.13l-.07.07-.13.07h-.07l-.2.07-.07.13-.13.13h-.4v.07l-.07.13-.07.07-.13-.07h-.07l-.13.13h-.13l-.07.13-.07.07-.07.07h-.2l-.07.07-.07-.13H.07l-.07-.07v-.2l.2-.13.07-.07v-.2l.07-.07.2-.07.2-.07.73-.4.07-.07.07-.07.07-.13.07-.13h.13l.2-.13.13-.13h.07v-.07l.13-.07.13-.13.13-.2.07-.07.13-.07.27-.2-.07-.07.07-.07.07-.07.13-.07.07-.07.07-.2v-.07l.13-.07.07-.07.07-.07.07-.13v-.13h-.07l-.13-.07-.2.07h-.2l-.07-.07h-.53l-.2-.07h-.4l-.07.07h-.33l-.07-.07h-.27l-.07.07h-.4l-.13-.07-.2-.07v-.2l-.07-.27.07-.07v-.13l-.07-.07-.07-.07.07-.07.07-.07h.07l.13.07h.07l.26.07h.4l.13-.07.07.07h.2l.33.07h.13l.4-.07.13.07h.33l.07-.07h.2l.13.07h.13l.07-.07.13-.07.07.07h.07v-.07l.07-.13h-.07l-.07-.07v-.07l-.13-.2.07-.13v-.13l.07-.2.07-.13v-.53l-.07-.07v-.07l.07-.46v-.2l.07-.07.07-.07v-.13l-.07-.13v-.07l-.07-.13v-.13l-.07-.2.07-.13v-.4l.07-.07v-.07l-.07-.26v-.26l-.07-.07v-.13h-.26l-.07.07-.33-.07h-.26l-.07.07h-.13l-.07-.07-.13.07h-.4l-.07-.07-.13.07h-.93l-.07-.07-.07-.07.07-.07v-.13ZM5.36,2.78l-.07.07v.13l-.07.13v.53l.07.13.07.07-.07.07h.2l.26-.07.26.07.33-.07h.53l.07.07h.86l.13-.07h.13l.33.07h.73l.07-.07-.07-.07.07-.13v-.26l-.07-.13v-.2l.07-.13v-.13h-.07v-.07l-.2-.07v.07h-.33l-.26-.07h-.2l-.13.07h-.33l-.13-.07-.2.07h-.4l-.27.07-.26-.07h-.26l-.13.07h-.66ZM5.36,4.7l-.07.07v.33l-.07.07v.07l.07.13v.27h.73l.46.07h.13l.2-.07h.33l.13.07h1.26l.13-.07.13.07h.26l.13-.07.07-.07-.07-.13-.07-.07.07-.07v-.13l-.07-.13v-.33l-.07-.07h-.33l-.26-.07h-.13l-.26.07h-.07l-.2.07h-.13l-.07-.07h-.07l-.13.07-.07-.07h-.07l-.13.07h-.73l-.33-.07-.13.07h-.6ZM5.3,6.62h-.07v.79l.07.07.07.07h.33l.07-.07h.13l.2.07h.13l.26.07.07-.07h.33l.4.07h.2l.13-.07h.07l.2.07.26-.07.13.07h.6l.07-.07.13.07.07-.07v-.2l.07-.13-.07-.2v-.07l.07-.13-.07-.07-.07-.13-.13-.07h-.53l-.2-.07-.27.07h-.13l-.07.07h-.07l-.07-.07h-.07l-.07.07-.2-.07h-.2l-.13.07v-.07h-.79l-.07-.07h-.13l-.07.07h-.2l-.13-.07h-.07v.07h-.13l-.07.07Z"/></g></svg>